<ttFont>
    <TTGlyph name="A" xMin="-33" yMin="-6" xMax="646" yMax="658">
      <contour>
        <pt x="377" y="121" on="1"/>
        <pt x="377" y="178" on="1"/>
        <pt x="312" y="180" on="0"/>
        <pt x="304" y="180" on="1"/>
        <pt x="227" y="175" on="1"/>
        <pt x="208" y="111" on="0"/>
        <pt x="208" y="104" on="1"/>
        <pt x="208" y="89" on="0"/>
        <pt x="231" y="89" on="1"/>
        <pt x="258" y="89" on="1"/>
        <pt x="265" y="79" on="1"/>
        <pt x="247" y="-4" on="1"/>
        <pt x="156" y="-1" on="0"/>
        <pt x="97" y="-1" on="1"/>
        <pt x="-33" y="-2" on="1"/>
        <pt x="-16" y="85" on="1"/>
        <pt x="20" y="94" on="0"/>
        <pt x="39" y="140" on="1"/>
        <pt x="250" y="642" on="1"/>
        <pt x="517" y="658" on="1"/>
        <pt x="531" y="646" on="1"/>
        <pt x="579" y="261" on="0"/>
        <pt x="593" y="153" on="1"/>
        <pt x="597" y="119" on="0"/>
        <pt x="619" y="89" on="0"/>
        <pt x="640" y="86" on="1"/>
        <pt x="646" y="76" on="1"/>
        <pt x="628" y="-3" on="1"/>
        <pt x="544" y="-1" on="0"/>
        <pt x="490" y="-1" on="1"/>
        <pt x="302" y="-6" on="1"/>
        <pt x="295" y="3" on="1"/>
        <pt x="311" y="87" on="1"/>
        <pt x="353" y="92" on="0"/>
        <pt x="377" y="104" on="0"/>
      </contour>
      <contour>
        <pt x="322" y="301" on="1"/>
        <pt x="329" y="301" on="0"/>
        <pt x="371" y="303" on="1"/>
        <pt x="361" y="478" on="1"/>
        <pt x="339" y="478" on="1"/>
        <pt x="274" y="301" on="1"/>
      </contour>
    </TTGlyph>
    <TTGlyph name="AE" xMin="-24" yMin="-7" xMax="894" yMax="659">
      <contour>
        <pt x="210" y="101" on="1"/>
        <pt x="210" y="92" on="0"/>
        <pt x="227" y="89" on="0"/>
        <pt x="262" y="89" on="1"/>
        <pt x="265" y="79" on="1"/>
        <pt x="248" y="-4" on="1"/>
        <pt x="242" y="-1" on="0"/>
        <pt x="54" y="-1" on="1"/>
        <pt x="-24" y="-2" on="1"/>
        <pt x="-16" y="85" on="1"/>
        <pt x="22" y="94" on="0"/>
        <pt x="46" y="140" on="1"/>
        <pt x="247" y="531" on="1"/>
        <pt x="246" y="559" on="0"/>
        <pt x="225" y="559" on="1"/>
        <pt x="200" y="557" on="1"/>
        <pt x="189" y="571" on="1"/>
        <pt x="208" y="650" on="1"/>
        <pt x="371" y="647" on="0"/>
        <pt x="804" y="649" on="0"/>
        <pt x="877" y="659" on="1"/>
        <pt x="888" y="643" on="1"/>
        <pt x="858" y="538" on="0"/>
        <pt x="841" y="444" on="1"/>
        <pt x="702" y="435" on="1"/>
        <pt x="709" y="467" on="0"/>
        <pt x="709" y="510" on="0"/>
        <pt x="673" y="527" on="0"/>
        <pt x="623" y="527" on="1"/>
        <pt x="589" y="527" on="0"/>
        <pt x="589" y="503" on="1"/>
        <pt x="595" y="372" on="1"/>
        <pt x="665" y="385" on="1"/>
        <pt x="766" y="411" on="1"/>
        <pt x="781" y="394" on="1"/>
        <pt x="756" y="278" on="1"/>
        <pt x="660" y="266" on="1"/>
        <pt x="598" y="254" on="1"/>
        <pt x="599" y="181" on="1"/>
        <pt x="600" y="114" on="0"/>
        <pt x="643" y="114" on="1"/>
        <pt x="696" y="114" on="0"/>
        <pt x="737" y="153" on="0"/>
        <pt x="754" y="221" on="1"/>
        <pt x="883" y="230" on="1"/>
        <pt x="894" y="215" on="1"/>
        <pt x="864" y="118" on="0"/>
        <pt x="841" y="9" on="1"/>
        <pt x="824" y="-7" on="1"/>
        <pt x="664" y="0" on="0"/>
        <pt x="470" y="0" on="1"/>
        <pt x="302" y="-6" on="1"/>
        <pt x="296" y="3" on="1"/>
        <pt x="312" y="87" on="1"/>
        <pt x="352" y="91" on="0"/>
        <pt x="366" y="100" on="1"/>
        <pt x="385" y="111" on="0"/>
        <pt x="385" y="162" on="1"/>
        <pt x="388" y="219" on="1"/>
        <pt x="315" y="206" on="1"/>
        <pt x="238" y="183" on="1"/>
        <pt x="210" y="105" on="0"/>
      </contour>
      <contour>
        <pt x="304" y="324" on="1"/>
        <pt x="344" y="328" on="1"/>
        <pt x="393" y="337" on="1"/>
        <pt x="397" y="478" on="1"/>
        <pt x="375" y="478" on="1"/>
      </contour>
    </TTGlyph>
    <TTGlyph name="AEacute" xMin="-24" yMin="-7" xMax="894" yMax="935">
      <contour>
        <pt x="210" y="101" on="1"/>
        <pt x="210" y="92" on="0"/>
        <pt x="227" y="89" on="0"/>
        <pt x="262" y="89" on="1"/>
        <pt x="265" y="79" on="1"/>
        <pt x="248" y="-4" on="1"/>
        <pt x="242" y="-1" on="0"/>
        <pt x="54" y="-1" on="1"/>
        <pt x="-24" y="-2" on="1"/>
        <pt x="-16" y="85" on="1"/>
        <pt x="22" y="94" on="0"/>
        <pt x="46" y="140" on="1"/>
        <pt x="247" y="531" on="1"/>
        <pt x="246" y="559" on="0"/>
        <pt x="225" y="559" on="1"/>
        <pt x="200" y="557" on="1"/>
        <pt x="189" y="571" on="1"/>
        <pt x="208" y="650" on="1"/>
        <pt x="371" y="647" on="0"/>
        <pt x="804" y="649" on="0"/>
        <pt x="877" y="659" on="1"/>
        <pt x="888" y="643" on="1"/>
        <pt x="858" y="538" on="0"/>
        <pt x="841" y="444" on="1"/>
        <pt x="702" y="435" on="1"/>
        <pt x="709" y="467" on="0"/>
        <pt x="709" y="510" on="0"/>
        <pt x="673" y="527" on="0"/>
        <pt x="623" y="527" on="1"/>
        <pt x="589" y="527" on="0"/>
        <pt x="589" y="503" on="1"/>
        <pt x="595" y="372" on="1"/>
        <pt x="665" y="385" on="1"/>
        <pt x="766" y="411" on="1"/>
        <pt x="781" y="394" on="1"/>
        <pt x="756" y="278" on="1"/>
        <pt x="660" y="266" on="1"/>
        <pt x="598" y="254" on="1"/>
        <pt x="599" y="181" on="1"/>
        <pt x="600" y="114" on="0"/>
        <pt x="643" y="114" on="1"/>
        <pt x="696" y="114" on="0"/>
        <pt x="737" y="153" on="0"/>
        <pt x="754" y="221" on="1"/>
        <pt x="883" y="230" on="1"/>
        <pt x="894" y="215" on="1"/>
        <pt x="864" y="118" on="0"/>
        <pt x="841" y="9" on="1"/>
        <pt x="824" y="-7" on="1"/>
        <pt x="664" y="0" on="0"/>
        <pt x="470" y="0" on="1"/>
        <pt x="302" y="-6" on="1"/>
        <pt x="296" y="3" on="1"/>
        <pt x="312" y="87" on="1"/>
        <pt x="352" y="91" on="0"/>
        <pt x="366" y="100" on="1"/>
        <pt x="385" y="111" on="0"/>
        <pt x="385" y="162" on="1"/>
        <pt x="388" y="219" on="1"/>
        <pt x="315" y="206" on="1"/>
        <pt x="238" y="183" on="1"/>
        <pt x="210" y="105" on="0"/>
      </contour>
      <contour>
        <pt x="304" y="324" on="1"/>
        <pt x="344" y="328" on="1"/>
        <pt x="393" y="337" on="1"/>
        <pt x="397" y="478" on="1"/>
        <pt x="375" y="478" on="1"/>
      </contour>
      <contour>
        <pt x="679" y="834" on="1"/>
        <pt x="677" y="817" on="1"/>
        <pt x="569" y="761" on="0"/>
        <pt x="466" y="700" on="1"/>
        <pt x="444" y="707" on="1"/>
        <pt x="403" y="768" on="1"/>
        <pt x="590" y="935" on="1"/>
        <pt x="607" y="935" on="1"/>
      </contour>
    </TTGlyph>
    <TTGlyph name="Aacute" xMin="-33" yMin="-6" xMax="646" yMax="875">
      <contour>
        <pt x="377" y="121" on="1"/>
        <pt x="377" y="178" on="1"/>
        <pt x="312" y="180" on="0"/>
        <pt x="304" y="180" on="1"/>
        <pt x="227" y="175" on="1"/>
        <pt x="208" y="111" on="0"/>
        <pt x="208" y="104" on="1"/>
        <pt x="208" y="89" on="0"/>
        <pt x="231" y="89" on="1"/>
        <pt x="258" y="89" on="1"/>
        <pt x="265" y="79" on="1"/>
        <pt x="247" y="-4" on="1"/>
        <pt x="156" y="-1" on="0"/>
        <pt x="97" y="-1" on="1"/>
        <pt x="-33" y="-2" on="1"/>
        <pt x="-16" y="85" on="1"/>
        <pt x="20" y="94" on="0"/>
        <pt x="39" y="140" on="1"/>
        <pt x="250" y="642" on="1"/>
        <pt x="517" y="658" on="1"/>
        <pt x="531" y="646" on="1"/>
        <pt x="579" y="261" on="0"/>
        <pt x="593" y="153" on="1"/>
        <pt x="597" y="119" on="0"/>
        <pt x="619" y="89" on="0"/>
        <pt x="640" y="86" on="1"/>
        <pt x="646" y="76" on="1"/>
        <pt x="628" y="-3" on="1"/>
        <pt x="544" y="-1" on="0"/>
        <pt x="490" y="-1" on="1"/>
        <pt x="302" y="-6" on="1"/>
        <pt x="295" y="3" on="1"/>
        <pt x="311" y="87" on="1"/>
        <pt x="353" y="92" on="0"/>
        <pt x="377" y="104" on="0"/>
      </contour>
      <contour>
        <pt x="322" y="301" on="1"/>
        <pt x="329" y="301" on="0"/>
        <pt x="371" y="303" on="1"/>
        <pt x="361" y="478" on="1"/>
        <pt x="339" y="478" on="1"/>
        <pt x="274" y="301" on="1"/>
      </contour>
      <contour>
        <pt x="551" y="762" on="1"/>
        <pt x="544" y="746" on="1"/>
        <pt x="414" y="722" on="0"/>
        <pt x="290" y="691" on="1"/>
        <pt x="271" y="704" on="1"/>
        <pt x="250" y="775" on="1"/>
        <pt x="353" y="813" on="0"/>
        <pt x="499" y="875" on="1"/>
        <pt x="515" y="870" on="1"/>
      </contour>
    </TTGlyph>
    <TTGlyph name="Abreve" xMin="-33" yMin="-6" xMax="646" yMax="900">
      <contour>
        <pt x="377" y="121" on="1"/>
        <pt x="377" y="178" on="1"/>
        <pt x="312" y="180" on="0"/>
        <pt x="304" y="180" on="1"/>
        <pt x="227" y="175" on="1"/>
        <pt x="208" y="111" on="0"/>
        <pt x="208" y="104" on="1"/>
        <pt x="208" y="89" on="0"/>
        <pt x="231" y="89" on="1"/>
        <pt x="258" y="89" on="1"/>
        <pt x="265" y="79" on="1"/>
        <pt x="247" y="-4" on="1"/>
        <pt x="156" y="-1" on="0"/>
        <pt x="97" y="-1" on="1"/>
        <pt x="-33" y="-2" on="1"/>
        <pt x="-16" y="85" on="1"/>
        <pt x="20" y="94" on="0"/>
        <pt x="39" y="140" on="1"/>
        <pt x="250" y="642" on="1"/>
        <pt x="517" y="658" on="1"/>
        <pt x="531" y="646" on="1"/>
        <pt x="579" y="261" on="0"/>
        <pt x="593" y="153" on="1"/>
        <pt x="597" y="119" on="0"/>
        <pt x="619" y="89" on="0"/>
        <pt x="640" y="86" on="1"/>
        <pt x="646" y="76" on="1"/>
        <pt x="628" y="-3" on="1"/>
        <pt x="544" y="-1" on="0"/>
        <pt x="490" y="-1" on="1"/>
        <pt x="302" y="-6" on="1"/>
        <pt x="295" y="3" on="1"/>
        <pt x="311" y="87" on="1"/>
        <pt x="353" y="92" on="0"/>
        <pt x="377" y="104" on="0"/>
      </contour>
      <contour>
        <pt x="405" y="830" on="1"/>
        <pt x="484" y="830" on="0"/>
        <pt x="523" y="900" on="1"/>
        <pt x="549" y="893" on="1"/>
        <pt x="581" y="831" on="1"/>
        <pt x="556" y="773" on="0"/>
        <pt x="459" y="695" on="0"/>
        <pt x="319" y="695" on="0"/>
        <pt x="240" y="773" on="0"/>
        <pt x="230" y="831" on="1"/>
        <pt x="278" y="893" on="1"/>
        <pt x="306" y="900" on="1"/>
        <pt x="315" y="866" on="0"/>
        <pt x="369" y="830" on="0"/>
      </contour>
      <contour>
        <pt x="322" y="301" on="1"/>
        <pt x="329" y="301" on="0"/>
        <pt x="371" y="303" on="1"/>
        <pt x="361" y="478" on="1"/>
        <pt x="339" y="478" on="1"/>
        <pt x="274" y="301" on="1"/>
      </contour>
    </TTGlyph>
    <TTGlyph name="Acircumflex" xMin="-33" yMin="-6" xMax="646" yMax="908">
      <contour>
        <pt x="377" y="121" on="1"/>
        <pt x="377" y="178" on="1"/>
        <pt x="312" y="180" on="0"/>
        <pt x="304" y="180" on="1"/>
        <pt x="227" y="175" on="1"/>
        <pt x="208" y="111" on="0"/>
        <pt x="208" y="104" on="1"/>
        <pt x="208" y="89" on="0"/>
        <pt x="231" y="89" on="1"/>
        <pt x="258" y="89" on="1"/>
        <pt x="265" y="79" on="1"/>
        <pt x="247" y="-4" on="1"/>
        <pt x="156" y="-1" on="0"/>
        <pt x="97" y="-1" on="1"/>
        <pt x="-33" y="-2" on="1"/>
        <pt x="-16" y="85" on="1"/>
        <pt x="20" y="94" on="0"/>
        <pt x="39" y="140" on="1"/>
        <pt x="250" y="642" on="1"/>
        <pt x="517" y="658" on="1"/>
        <pt x="531" y="646" on="1"/>
        <pt x="579" y="261" on="0"/>
        <pt x="593" y="153" on="1"/>
        <pt x="597" y="119" on="0"/>
        <pt x="619" y="89" on="0"/>
        <pt x="640" y="86" on="1"/>
        <pt x="646" y="76" on="1"/>
        <pt x="628" y="-3" on="1"/>
        <pt x="544" y="-1" on="0"/>
        <pt x="490" y="-1" on="1"/>
        <pt x="302" y="-6" on="1"/>
        <pt x="295" y="3" on="1"/>
        <pt x="311" y="87" on="1"/>
        <pt x="353" y="92" on="0"/>
        <pt x="377" y="104" on="0"/>
      </contour>
      <contour>
        <pt x="322" y="301" on="1"/>
        <pt x="329" y="301" on="0"/>
        <pt x="371" y="303" on="1"/>
        <pt x="361" y="478" on="1"/>
        <pt x="339" y="478" on="1"/>
        <pt x="274" y="301" on="1"/>
      </contour>
      <contour>
        <pt x="431" y="908" on="1"/>
        <pt x="431" y="911" on="0"/>
        <pt x="557" y="796" on="0"/>
        <pt x="587" y="770" on="1"/>
        <pt x="544" y="708" on="1"/>
        <pt x="520" y="701" on="1"/>
        <pt x="476" y="721" on="0"/>
        <pt x="398" y="752" on="1"/>
        <pt x="348" y="734" on="0"/>
        <pt x="264" y="701" on="1"/>
        <pt x="242" y="708" on="1"/>
        <pt x="214" y="770" on="1"/>
        <pt x="294" y="824" on="0"/>
        <pt x="404" y="908" on="1"/>
      </contour>
    </TTGlyph>
    <TTGlyph name="Adieresis" xMin="-33" yMin="-6" xMax="646" yMax="862">
      <contour>
        <pt x="377" y="121" on="1"/>
        <pt x="377" y="178" on="1"/>
        <pt x="312" y="180" on="0"/>
        <pt x="304" y="180" on="1"/>
        <pt x="227" y="175" on="1"/>
        <pt x="208" y="111" on="0"/>
        <pt x="208" y="104" on="1"/>
        <pt x="208" y="89" on="0"/>
        <pt x="231" y="89" on="1"/>
        <pt x="258" y="89" on="1"/>
        <pt x="265" y="79" on="1"/>
        <pt x="247" y="-4" on="1"/>
        <pt x="156" y="-1" on="0"/>
        <pt x="97" y="-1" on="1"/>
        <pt x="-33" y="-2" on="1"/>
        <pt x="-16" y="85" on="1"/>
        <pt x="20" y="94" on="0"/>
        <pt x="39" y="140" on="1"/>
        <pt x="250" y="642" on="1"/>
        <pt x="517" y="658" on="1"/>
        <pt x="531" y="646" on="1"/>
        <pt x="579" y="261" on="0"/>
        <pt x="593" y="153" on="1"/>
        <pt x="597" y="119" on="0"/>
        <pt x="619" y="89" on="0"/>
        <pt x="640" y="86" on="1"/>
        <pt x="646" y="76" on="1"/>
        <pt x="628" y="-3" on="1"/>
        <pt x="544" y="-1" on="0"/>
        <pt x="490" y="-1" on="1"/>
        <pt x="302" y="-6" on="1"/>
        <pt x="295" y="3" on="1"/>
        <pt x="311" y="87" on="1"/>
        <pt x="353" y="92" on="0"/>
        <pt x="377" y="104" on="0"/>
      </contour>
      <contour>
        <pt x="322" y="301" on="1"/>
        <pt x="329" y="301" on="0"/>
        <pt x="371" y="303" on="1"/>
        <pt x="361" y="478" on="1"/>
        <pt x="339" y="478" on="1"/>
        <pt x="274" y="301" on="1"/>
      </contour>
      <contour>
        <pt x="482" y="695" on="1"/>
        <pt x="411" y="695" on="0"/>
        <pt x="411" y="762" on="1"/>
        <pt x="411" y="807" on="0"/>
        <pt x="464" y="862" on="0"/>
        <pt x="503" y="862" on="1"/>
        <pt x="578" y="862" on="0"/>
        <pt x="578" y="794" on="1"/>
        <pt x="578" y="750" on="0"/>
        <pt x="525" y="695" on="0"/>
      </contour>
      <contour>
        <pt x="294" y="695" on="1"/>
        <pt x="224" y="695" on="0"/>
        <pt x="224" y="762" on="1"/>
        <pt x="224" y="807" on="0"/>
        <pt x="277" y="862" on="0"/>
        <pt x="316" y="862" on="1"/>
        <pt x="390" y="862" on="0"/>
        <pt x="390" y="794" on="1"/>
        <pt x="390" y="750" on="0"/>
        <pt x="337" y="695" on="0"/>
      </contour>
    </TTGlyph>
    <TTGlyph name="Agrave" xMin="-33" yMin="-6" xMax="646" yMax="875">
      <contour>
        <pt x="377" y="121" on="1"/>
        <pt x="377" y="178" on="1"/>
        <pt x="312" y="180" on="0"/>
        <pt x="304" y="180" on="1"/>
        <pt x="227" y="175" on="1"/>
        <pt x="208" y="111" on="0"/>
        <pt x="208" y="104" on="1"/>
        <pt x="208" y="89" on="0"/>
        <pt x="231" y="89" on="1"/>
        <pt x="258" y="89" on="1"/>
        <pt x="265" y="79" on="1"/>
        <pt x="247" y="-4" on="1"/>
        <pt x="156" y="-1" on="0"/>
        <pt x="97" y="-1" on="1"/>
        <pt x="-33" y="-2" on="1"/>
        <pt x="-16" y="85" on="1"/>
        <pt x="20" y="94" on="0"/>
        <pt x="39" y="140" on="1"/>
        <pt x="250" y="642" on="1"/>
        <pt x="517" y="658" on="1"/>
        <pt x="531" y="646" on="1"/>
        <pt x="579" y="261" on="0"/>
        <pt x="593" y="153" on="1"/>
        <pt x="597" y="119" on="0"/>
        <pt x="619" y="89" on="0"/>
        <pt x="640" y="86" on="1"/>
        <pt x="646" y="76" on="1"/>
        <pt x="628" y="-3" on="1"/>
        <pt x="544" y="-1" on="0"/>
        <pt x="490" y="-1" on="1"/>
        <pt x="302" y="-6" on="1"/>
        <pt x="295" y="3" on="1"/>
        <pt x="311" y="87" on="1"/>
        <pt x="353" y="92" on="0"/>
        <pt x="377" y="104" on="0"/>
      </contour>
      <contour>
        <pt x="251" y="746" on="1"/>
        <pt x="244" y="762" on="1"/>
        <pt x="280" y="870" on="1"/>
        <pt x="296" y="875" on="1"/>
        <pt x="422" y="821" on="0"/>
        <pt x="545" y="775" on="1"/>
        <pt x="524" y="704" on="1"/>
        <pt x="505" y="691" on="1"/>
        <pt x="412" y="715" on="0"/>
      </contour>
      <contour>
        <pt x="322" y="301" on="1"/>
        <pt x="329" y="301" on="0"/>
        <pt x="371" y="303" on="1"/>
        <pt x="361" y="478" on="1"/>
        <pt x="339" y="478" on="1"/>
        <pt x="274" y="301" on="1"/>
      </contour>
    </TTGlyph>
    <TTGlyph name="Amacron" xMin="-33" yMin="-6" xMax="646" yMax="823">
      <contour>
        <pt x="377" y="121" on="1"/>
        <pt x="377" y="178" on="1"/>
        <pt x="312" y="180" on="0"/>
        <pt x="304" y="180" on="1"/>
        <pt x="227" y="175" on="1"/>
        <pt x="208" y="111" on="0"/>
        <pt x="208" y="104" on="1"/>
        <pt x="208" y="89" on="0"/>
        <pt x="231" y="89" on="1"/>
        <pt x="258" y="89" on="1"/>
        <pt x="265" y="79" on="1"/>
        <pt x="247" y="-4" on="1"/>
        <pt x="156" y="-1" on="0"/>
        <pt x="97" y="-1" on="1"/>
        <pt x="-33" y="-2" on="1"/>
        <pt x="-16" y="85" on="1"/>
        <pt x="20" y="94" on="0"/>
        <pt x="39" y="140" on="1"/>
        <pt x="250" y="642" on="1"/>
        <pt x="517" y="658" on="1"/>
        <pt x="531" y="646" on="1"/>
        <pt x="579" y="261" on="0"/>
        <pt x="593" y="153" on="1"/>
        <pt x="597" y="119" on="0"/>
        <pt x="619" y="89" on="0"/>
        <pt x="640" y="86" on="1"/>
        <pt x="646" y="76" on="1"/>
        <pt x="628" y="-3" on="1"/>
        <pt x="544" y="-1" on="0"/>
        <pt x="490" y="-1" on="1"/>
        <pt x="302" y="-6" on="1"/>
        <pt x="295" y="3" on="1"/>
        <pt x="311" y="87" on="1"/>
        <pt x="353" y="92" on="0"/>
        <pt x="377" y="104" on="0"/>
      </contour>
      <contour>
        <pt x="322" y="301" on="1"/>
        <pt x="329" y="301" on="0"/>
        <pt x="371" y="303" on="1"/>
        <pt x="361" y="478" on="1"/>
        <pt x="339" y="478" on="1"/>
        <pt x="274" y="301" on="1"/>
      </contour>
      <contour>
        <pt x="551" y="823" on="1"/>
        <pt x="560" y="805" on="1"/>
        <pt x="528" y="696" on="1"/>
        <pt x="263" y="694" on="1"/>
        <pt x="249" y="709" on="1"/>
        <pt x="281" y="818" on="1"/>
        <pt x="373" y="817" on="0"/>
        <pt x="430" y="817" on="1"/>
      </contour>
    </TTGlyph>
    <TTGlyph name="Aogonek" xMin="-33" yMin="-242" xMax="646" yMax="658">
      <contour>
        <pt x="465" y="-242" on="0"/>
        <pt x="403" y="-199" on="0"/>
        <pt x="403" y="-128" on="0"/>
        <pt x="445" y="-59" on="0"/>
        <pt x="506" y="-1" on="1"/>
        <pt x="490" y="-1" on="1"/>
        <pt x="302" y="-6" on="1"/>
        <pt x="295" y="3" on="1"/>
        <pt x="311" y="87" on="1"/>
        <pt x="353" y="92" on="0"/>
        <pt x="377" y="104" on="0"/>
        <pt x="377" y="121" on="1"/>
        <pt x="377" y="178" on="1"/>
        <pt x="312" y="180" on="0"/>
        <pt x="304" y="180" on="1"/>
        <pt x="227" y="175" on="1"/>
        <pt x="208" y="111" on="0"/>
        <pt x="208" y="104" on="1"/>
        <pt x="208" y="89" on="0"/>
        <pt x="231" y="89" on="1"/>
        <pt x="258" y="89" on="1"/>
        <pt x="265" y="79" on="1"/>
        <pt x="247" y="-4" on="1"/>
        <pt x="156" y="-1" on="0"/>
        <pt x="97" y="-1" on="1"/>
        <pt x="-33" y="-2" on="1"/>
        <pt x="-16" y="85" on="1"/>
        <pt x="20" y="94" on="0"/>
        <pt x="39" y="140" on="1"/>
        <pt x="250" y="642" on="1"/>
        <pt x="517" y="658" on="1"/>
        <pt x="531" y="646" on="1"/>
        <pt x="579" y="261" on="0"/>
        <pt x="593" y="153" on="1"/>
        <pt x="597" y="119" on="0"/>
        <pt x="619" y="89" on="0"/>
        <pt x="640" y="86" on="1"/>
        <pt x="646" y="76" on="1"/>
        <pt x="628" y="-3" on="1"/>
        <pt x="607" y="-2" on="0"/>
        <pt x="583" y="-2" on="1"/>
        <pt x="539" y="-55" on="0"/>
        <pt x="511" y="-102" on="0"/>
        <pt x="511" y="-136" on="0"/>
        <pt x="529" y="-155" on="0"/>
        <pt x="542" y="-155" on="1"/>
        <pt x="566" y="-155" on="0"/>
        <pt x="610" y="-130" on="1"/>
        <pt x="631" y="-170" on="1"/>
        <pt x="569" y="-224" on="0"/>
        <pt x="521" y="-242" on="1"/>
      </contour>
      <contour>
        <pt x="322" y="301" on="1"/>
        <pt x="329" y="301" on="0"/>
        <pt x="371" y="303" on="1"/>
        <pt x="361" y="478" on="1"/>
        <pt x="339" y="478" on="1"/>
        <pt x="274" y="301" on="1"/>
      </contour>
    </TTGlyph>
    <TTGlyph name="Aring" xMin="-33" yMin="-6" xMax="646" yMax="892">
      <contour>
        <pt x="377" y="121" on="1"/>
        <pt x="377" y="178" on="1"/>
        <pt x="312" y="180" on="0"/>
        <pt x="304" y="180" on="1"/>
        <pt x="227" y="175" on="1"/>
        <pt x="208" y="111" on="0"/>
        <pt x="208" y="104" on="1"/>
        <pt x="208" y="89" on="0"/>
        <pt x="231" y="89" on="1"/>
        <pt x="258" y="89" on="1"/>
        <pt x="265" y="79" on="1"/>
        <pt x="247" y="-4" on="1"/>
        <pt x="156" y="-1" on="0"/>
        <pt x="97" y="-1" on="1"/>
        <pt x="-33" y="-2" on="1"/>
        <pt x="-16" y="85" on="1"/>
        <pt x="20" y="94" on="0"/>
        <pt x="39" y="140" on="1"/>
        <pt x="250" y="642" on="1"/>
        <pt x="517" y="658" on="1"/>
        <pt x="531" y="646" on="1"/>
        <pt x="579" y="261" on="0"/>
        <pt x="593" y="153" on="1"/>
        <pt x="597" y="119" on="0"/>
        <pt x="619" y="89" on="0"/>
        <pt x="640" y="86" on="1"/>
        <pt x="646" y="76" on="1"/>
        <pt x="628" y="-3" on="1"/>
        <pt x="544" y="-1" on="0"/>
        <pt x="490" y="-1" on="1"/>
        <pt x="302" y="-6" on="1"/>
        <pt x="295" y="3" on="1"/>
        <pt x="311" y="87" on="1"/>
        <pt x="353" y="92" on="0"/>
        <pt x="377" y="104" on="0"/>
      </contour>
      <contour>
        <pt x="511" y="757" on="0"/>
        <pt x="442" y="682" on="0"/>
        <pt x="345" y="682" on="0"/>
        <pt x="300" y="730" on="0"/>
        <pt x="300" y="823" on="0"/>
        <pt x="369" y="892" on="0"/>
        <pt x="468" y="892" on="0"/>
        <pt x="511" y="844" on="0"/>
      </contour>
      <contour>
        <pt x="322" y="301" on="1"/>
        <pt x="329" y="301" on="0"/>
        <pt x="371" y="303" on="1"/>
        <pt x="361" y="478" on="1"/>
        <pt x="339" y="478" on="1"/>
        <pt x="274" y="301" on="1"/>
      </contour>
      <contour>
        <pt x="403" y="752" on="1"/>
        <pt x="417" y="752" on="0"/>
        <pt x="441" y="769" on="0"/>
        <pt x="441" y="790" on="1"/>
        <pt x="441" y="820" on="0"/>
        <pt x="407" y="820" on="1"/>
        <pt x="370" y="820" on="0"/>
        <pt x="370" y="783" on="1"/>
        <pt x="370" y="752" on="0"/>
      </contour>
    </TTGlyph>
    <TTGlyph name="Aringacute" xMin="-33" yMin="-6" xMax="646" yMax="1016">
      <contour>
        <pt x="377" y="121" on="1"/>
        <pt x="377" y="178" on="1"/>
        <pt x="312" y="180" on="0"/>
        <pt x="304" y="180" on="1"/>
        <pt x="227" y="175" on="1"/>
        <pt x="208" y="111" on="0"/>
        <pt x="208" y="104" on="1"/>
        <pt x="208" y="89" on="0"/>
        <pt x="231" y="89" on="1"/>
        <pt x="258" y="89" on="1"/>
        <pt x="265" y="79" on="1"/>
        <pt x="247" y="-4" on="1"/>
        <pt x="156" y="-1" on="0"/>
        <pt x="97" y="-1" on="1"/>
        <pt x="-33" y="-2" on="1"/>
        <pt x="-16" y="85" on="1"/>
        <pt x="20" y="94" on="0"/>
        <pt x="39" y="140" on="1"/>
        <pt x="250" y="642" on="1"/>
        <pt x="517" y="658" on="1"/>
        <pt x="531" y="646" on="1"/>
        <pt x="579" y="261" on="0"/>
        <pt x="593" y="153" on="1"/>
        <pt x="597" y="119" on="0"/>
        <pt x="619" y="89" on="0"/>
        <pt x="640" y="86" on="1"/>
        <pt x="646" y="76" on="1"/>
        <pt x="628" y="-3" on="1"/>
        <pt x="544" y="-1" on="0"/>
        <pt x="490" y="-1" on="1"/>
        <pt x="302" y="-6" on="1"/>
        <pt x="295" y="3" on="1"/>
        <pt x="311" y="87" on="1"/>
        <pt x="353" y="92" on="0"/>
        <pt x="377" y="104" on="0"/>
      </contour>
      <contour>
        <pt x="322" y="301" on="1"/>
        <pt x="329" y="301" on="0"/>
        <pt x="371" y="303" on="1"/>
        <pt x="361" y="478" on="1"/>
        <pt x="339" y="478" on="1"/>
        <pt x="274" y="301" on="1"/>
      </contour>
      <contour>
        <pt x="397" y="723" on="1"/>
        <pt x="409" y="723" on="0"/>
        <pt x="431" y="738" on="0"/>
        <pt x="431" y="757" on="1"/>
        <pt x="431" y="784" on="0"/>
        <pt x="401" y="784" on="1"/>
        <pt x="367" y="784" on="0"/>
        <pt x="367" y="751" on="1"/>
        <pt x="367" y="723" on="0"/>
      </contour>
      <contour>
        <pt x="494" y="728" on="0"/>
        <pt x="432" y="660" on="0"/>
        <pt x="345" y="660" on="0"/>
        <pt x="304" y="703" on="0"/>
        <pt x="304" y="786" on="0"/>
        <pt x="366" y="849" on="0"/>
        <pt x="455" y="849" on="0"/>
        <pt x="494" y="805" on="0"/>
      </contour>
      <contour>
        <pt x="550" y="915" on="1"/>
        <pt x="544" y="900" on="1"/>
        <pt x="427" y="879" on="0"/>
        <pt x="315" y="851" on="1"/>
        <pt x="298" y="863" on="1"/>
        <pt x="279" y="926" on="1"/>
        <pt x="503" y="1016" on="1"/>
        <pt x="518" y="1012" on="1"/>
      </contour>
    </TTGlyph>
    <TTGlyph name="Atilde" xMin="-33" yMin="-6" xMax="646" yMax="888">
      <contour>
        <pt x="377" y="121" on="1"/>
        <pt x="377" y="178" on="1"/>
        <pt x="312" y="180" on="0"/>
        <pt x="304" y="180" on="1"/>
        <pt x="227" y="175" on="1"/>
        <pt x="208" y="111" on="0"/>
        <pt x="208" y="104" on="1"/>
        <pt x="208" y="89" on="0"/>
        <pt x="231" y="89" on="1"/>
        <pt x="258" y="89" on="1"/>
        <pt x="265" y="79" on="1"/>
        <pt x="247" y="-4" on="1"/>
        <pt x="156" y="-1" on="0"/>
        <pt x="97" y="-1" on="1"/>
        <pt x="-33" y="-2" on="1"/>
        <pt x="-16" y="85" on="1"/>
        <pt x="20" y="94" on="0"/>
        <pt x="39" y="140" on="1"/>
        <pt x="250" y="642" on="1"/>
        <pt x="517" y="658" on="1"/>
        <pt x="531" y="646" on="1"/>
        <pt x="579" y="261" on="0"/>
        <pt x="593" y="153" on="1"/>
        <pt x="597" y="119" on="0"/>
        <pt x="619" y="89" on="0"/>
        <pt x="640" y="86" on="1"/>
        <pt x="646" y="76" on="1"/>
        <pt x="628" y="-3" on="1"/>
        <pt x="544" y="-1" on="0"/>
        <pt x="490" y="-1" on="1"/>
        <pt x="302" y="-6" on="1"/>
        <pt x="295" y="3" on="1"/>
        <pt x="311" y="87" on="1"/>
        <pt x="353" y="92" on="0"/>
        <pt x="377" y="104" on="0"/>
      </contour>
      <contour>
        <pt x="322" y="301" on="1"/>
        <pt x="329" y="301" on="0"/>
        <pt x="371" y="303" on="1"/>
        <pt x="361" y="478" on="1"/>
        <pt x="339" y="478" on="1"/>
        <pt x="274" y="301" on="1"/>
      </contour>
      <contour>
        <pt x="334" y="864" on="0"/>
        <pt x="447" y="830" on="0"/>
        <pt x="460" y="830" on="1"/>
        <pt x="482" y="830" on="0"/>
        <pt x="521" y="874" on="1"/>
        <pt x="534" y="888" on="1"/>
        <pt x="550" y="888" on="1"/>
        <pt x="602" y="834" on="1"/>
        <pt x="600" y="818" on="1"/>
        <pt x="507" y="703" on="1"/>
        <pt x="490" y="699" on="1"/>
        <pt x="472" y="699" on="0"/>
        <pt x="359" y="733" on="0"/>
        <pt x="334" y="733" on="0"/>
        <pt x="297" y="704" on="0"/>
        <pt x="272" y="675" on="1"/>
        <pt x="256" y="675" on="1"/>
        <pt x="204" y="729" on="1"/>
        <pt x="206" y="745" on="1"/>
        <pt x="299" y="860" on="1"/>
        <pt x="316" y="864" on="1"/>
      </contour>
    </TTGlyph>
    <TTGlyph name="B" xMin="-20" yMin="-11" xMax="639" yMax="654">
      <contour>
        <pt x="120" y="527" on="1"/>
        <pt x="120" y="559" on="0"/>
        <pt x="99" y="559" on="1"/>
        <pt x="65" y="557" on="1"/>
        <pt x="55" y="569" on="1"/>
        <pt x="76" y="649" on="1"/>
        <pt x="212" y="647" on="0"/>
        <pt x="243" y="647" on="1"/>
        <pt x="424" y="654" on="1"/>
        <pt x="526" y="654" on="0"/>
        <pt x="639" y="581" on="0"/>
        <pt x="639" y="515" on="1"/>
        <pt x="639" y="464" on="0"/>
        <pt x="585" y="382" on="0"/>
        <pt x="525" y="343" on="1"/>
        <pt x="629" y="299" on="0"/>
        <pt x="629" y="210" on="1"/>
        <pt x="629" y="-11" on="0"/>
        <pt x="320" y="-11" on="1"/>
        <pt x="303" y="-8" on="0"/>
        <pt x="183" y="0" on="0"/>
        <pt x="160" y="0" on="1"/>
        <pt x="-20" y="-7" on="1"/>
        <pt x="0" y="83" on="1"/>
        <pt x="38" y="90" on="0"/>
        <pt x="70" y="120" on="0"/>
        <pt x="74" y="156" on="1"/>
        <pt x="120" y="520" on="0"/>
      </contour>
      <contour>
        <pt x="268" y="150" on="1"/>
        <pt x="268" y="114" on="0"/>
        <pt x="332" y="114" on="1"/>
        <pt x="370" y="114" on="0"/>
        <pt x="411" y="156" on="0"/>
        <pt x="411" y="242" on="0"/>
        <pt x="361" y="260" on="1"/>
        <pt x="286" y="260" on="1"/>
        <pt x="268" y="155" on="0"/>
      </contour>
      <contour>
        <pt x="427" y="470" on="1"/>
        <pt x="427" y="528" on="0"/>
        <pt x="345" y="528" on="1"/>
        <pt x="329" y="528" on="0"/>
        <pt x="326" y="514" on="1"/>
        <pt x="304" y="389" on="1"/>
        <pt x="356" y="378" on="0"/>
        <pt x="378" y="378" on="1"/>
        <pt x="397" y="389" on="0"/>
        <pt x="427" y="443" on="0"/>
      </contour>
    </TTGlyph>
    <TTGlyph name="C" xMin="18" yMin="-11" xMax="614" yMax="659">
      <contour>
        <pt x="505" y="27" on="1"/>
        <pt x="405" y="-11" on="0"/>
        <pt x="154" y="-11" on="0"/>
        <pt x="18" y="129" on="0"/>
        <pt x="18" y="259" on="1"/>
        <pt x="18" y="455" on="0"/>
        <pt x="206" y="659" on="0"/>
        <pt x="386" y="659" on="1"/>
        <pt x="460" y="659" on="0"/>
        <pt x="608" y="633" on="1"/>
        <pt x="614" y="613" on="1"/>
        <pt x="582" y="521" on="0"/>
        <pt x="560" y="399" on="1"/>
        <pt x="404" y="390" on="1"/>
        <pt x="415" y="447" on="0"/>
        <pt x="415" y="465" on="1"/>
        <pt x="415" y="521" on="0"/>
        <pt x="349" y="521" on="1"/>
        <pt x="294" y="521" on="0"/>
        <pt x="248" y="405" on="0"/>
        <pt x="248" y="268" on="1"/>
        <pt x="248" y="193" on="0"/>
        <pt x="279" y="130" on="0"/>
        <pt x="353" y="130" on="0"/>
        <pt x="388" y="177" on="0"/>
        <pt x="402" y="246" on="1"/>
        <pt x="557" y="256" on="1"/>
        <pt x="531" y="139" on="0"/>
        <pt x="520" y="43" on="1"/>
      </contour>
    </TTGlyph>
    <TTGlyph name="Cacute" xMin="18" yMin="-11" xMax="614" yMax="875">
      <contour>
        <pt x="505" y="27" on="1"/>
        <pt x="405" y="-11" on="0"/>
        <pt x="154" y="-11" on="0"/>
        <pt x="18" y="129" on="0"/>
        <pt x="18" y="259" on="1"/>
        <pt x="18" y="455" on="0"/>
        <pt x="206" y="659" on="0"/>
        <pt x="386" y="659" on="1"/>
        <pt x="460" y="659" on="0"/>
        <pt x="608" y="633" on="1"/>
        <pt x="614" y="613" on="1"/>
        <pt x="582" y="521" on="0"/>
        <pt x="560" y="399" on="1"/>
        <pt x="404" y="390" on="1"/>
        <pt x="415" y="447" on="0"/>
        <pt x="415" y="465" on="1"/>
        <pt x="415" y="521" on="0"/>
        <pt x="349" y="521" on="1"/>
        <pt x="294" y="521" on="0"/>
        <pt x="248" y="405" on="0"/>
        <pt x="248" y="268" on="1"/>
        <pt x="248" y="193" on="0"/>
        <pt x="279" y="130" on="0"/>
        <pt x="353" y="130" on="0"/>
        <pt x="388" y="177" on="0"/>
        <pt x="402" y="246" on="1"/>
        <pt x="557" y="256" on="1"/>
        <pt x="531" y="139" on="0"/>
        <pt x="520" y="43" on="1"/>
      </contour>
      <contour>
        <pt x="515" y="762" on="1"/>
        <pt x="508" y="746" on="1"/>
        <pt x="378" y="722" on="0"/>
        <pt x="254" y="691" on="1"/>
        <pt x="235" y="704" on="1"/>
        <pt x="214" y="775" on="1"/>
        <pt x="317" y="813" on="0"/>
        <pt x="463" y="875" on="1"/>
        <pt x="479" y="870" on="1"/>
      </contour>
    </TTGlyph>
    <TTGlyph name="Ccaron" xMin="18" yMin="-11" xMax="614" yMax="895">
      <contour>
        <pt x="505" y="27" on="1"/>
        <pt x="405" y="-11" on="0"/>
        <pt x="154" y="-11" on="0"/>
        <pt x="18" y="129" on="0"/>
        <pt x="18" y="259" on="1"/>
        <pt x="18" y="455" on="0"/>
        <pt x="206" y="659" on="0"/>
        <pt x="386" y="659" on="1"/>
        <pt x="460" y="659" on="0"/>
        <pt x="608" y="633" on="1"/>
        <pt x="614" y="613" on="1"/>
        <pt x="582" y="521" on="0"/>
        <pt x="560" y="399" on="1"/>
        <pt x="404" y="390" on="1"/>
        <pt x="415" y="447" on="0"/>
        <pt x="415" y="465" on="1"/>
        <pt x="415" y="521" on="0"/>
        <pt x="349" y="521" on="1"/>
        <pt x="294" y="521" on="0"/>
        <pt x="248" y="405" on="0"/>
        <pt x="248" y="268" on="1"/>
        <pt x="248" y="193" on="0"/>
        <pt x="279" y="130" on="0"/>
        <pt x="353" y="130" on="0"/>
        <pt x="388" y="177" on="0"/>
        <pt x="402" y="246" on="1"/>
        <pt x="557" y="256" on="1"/>
        <pt x="531" y="139" on="0"/>
        <pt x="520" y="43" on="1"/>
      </contour>
      <contour>
        <pt x="548" y="888" on="1"/>
        <pt x="577" y="826" on="1"/>
        <pt x="488" y="766" on="0"/>
        <pt x="386" y="688" on="1"/>
        <pt x="359" y="688" on="1"/>
        <pt x="278" y="765" on="0"/>
        <pt x="204" y="826" on="1"/>
        <pt x="246" y="888" on="1"/>
        <pt x="270" y="895" on="1"/>
        <pt x="293" y="884" on="0"/>
        <pt x="392" y="844" on="1"/>
        <pt x="442" y="862" on="0"/>
        <pt x="526" y="895" on="1"/>
      </contour>
    </TTGlyph>
    <TTGlyph name="Ccedilla" xMin="18" yMin="-243" xMax="614" yMax="659">
      <contour>
        <pt x="222" y="-126" on="1"/>
        <pt x="222" y="-174" on="0"/>
        <pt x="262" y="-174" on="1"/>
        <pt x="293" y="-174" on="0"/>
        <pt x="293" y="-127" on="0"/>
        <pt x="216" y="-87" on="1"/>
        <pt x="244" y="-9" on="1"/>
        <pt x="135" y="0" on="0"/>
        <pt x="18" y="138" on="0"/>
        <pt x="18" y="259" on="1"/>
        <pt x="18" y="455" on="0"/>
        <pt x="206" y="659" on="0"/>
        <pt x="386" y="659" on="1"/>
        <pt x="460" y="659" on="0"/>
        <pt x="608" y="633" on="1"/>
        <pt x="614" y="613" on="1"/>
        <pt x="582" y="521" on="0"/>
        <pt x="560" y="399" on="1"/>
        <pt x="404" y="390" on="1"/>
        <pt x="415" y="447" on="0"/>
        <pt x="415" y="465" on="1"/>
        <pt x="415" y="521" on="0"/>
        <pt x="349" y="521" on="1"/>
        <pt x="294" y="521" on="0"/>
        <pt x="248" y="405" on="0"/>
        <pt x="248" y="268" on="1"/>
        <pt x="248" y="193" on="0"/>
        <pt x="279" y="130" on="0"/>
        <pt x="353" y="130" on="0"/>
        <pt x="388" y="177" on="0"/>
        <pt x="402" y="246" on="1"/>
        <pt x="557" y="256" on="1"/>
        <pt x="531" y="139" on="0"/>
        <pt x="520" y="43" on="1"/>
        <pt x="505" y="27" on="1"/>
        <pt x="420" y="-5" on="0"/>
        <pt x="308" y="-10" on="1"/>
        <pt x="300" y="-37" on="1"/>
        <pt x="337" y="-56" on="0"/>
        <pt x="396" y="-109" on="0"/>
        <pt x="396" y="-138" on="1"/>
        <pt x="396" y="-181" on="0"/>
        <pt x="301" y="-243" on="0"/>
        <pt x="235" y="-243" on="1"/>
        <pt x="205" y="-243" on="0"/>
        <pt x="153" y="-215" on="0"/>
        <pt x="153" y="-171" on="0"/>
        <pt x="214" y="-118" on="1"/>
        <pt x="222" y="-118" on="1"/>
        <pt x="222" y="-122" on="0"/>
      </contour>
    </TTGlyph>
    <TTGlyph name="Ccircumflex" xMin="18" yMin="-11" xMax="614" yMax="934">
      <contour>
        <pt x="505" y="27" on="1"/>
        <pt x="405" y="-11" on="0"/>
        <pt x="154" y="-11" on="0"/>
        <pt x="18" y="129" on="0"/>
        <pt x="18" y="259" on="1"/>
        <pt x="18" y="455" on="0"/>
        <pt x="206" y="659" on="0"/>
        <pt x="386" y="659" on="1"/>
        <pt x="460" y="659" on="0"/>
        <pt x="608" y="633" on="1"/>
        <pt x="614" y="613" on="1"/>
        <pt x="582" y="521" on="0"/>
        <pt x="560" y="399" on="1"/>
        <pt x="404" y="390" on="1"/>
        <pt x="415" y="447" on="0"/>
        <pt x="415" y="465" on="1"/>
        <pt x="415" y="521" on="0"/>
        <pt x="349" y="521" on="1"/>
        <pt x="294" y="521" on="0"/>
        <pt x="248" y="405" on="0"/>
        <pt x="248" y="268" on="1"/>
        <pt x="248" y="193" on="0"/>
        <pt x="279" y="130" on="0"/>
        <pt x="353" y="130" on="0"/>
        <pt x="388" y="177" on="0"/>
        <pt x="402" y="246" on="1"/>
        <pt x="557" y="256" on="1"/>
        <pt x="531" y="139" on="0"/>
        <pt x="520" y="43" on="1"/>
      </contour>
      <contour>
        <pt x="241" y="716" on="1"/>
        <pt x="203" y="778" on="1"/>
        <pt x="279" y="840" on="0"/>
        <pt x="385" y="934" on="1"/>
        <pt x="412" y="934" on="1"/>
        <pt x="488" y="847" on="0"/>
        <pt x="556" y="778" on="1"/>
        <pt x="503" y="716" on="1"/>
        <pt x="479" y="709" on="1"/>
        <pt x="452" y="730" on="0"/>
        <pt x="379" y="778" on="1"/>
        <pt x="307" y="738" on="0"/>
        <pt x="264" y="709" on="1"/>
      </contour>
    </TTGlyph>
    <TTGlyph name="Cdotaccent" xMin="18" yMin="-11" xMax="614" yMax="882">
      <contour>
        <pt x="505" y="27" on="1"/>
        <pt x="405" y="-11" on="0"/>
        <pt x="154" y="-11" on="0"/>
        <pt x="18" y="129" on="0"/>
        <pt x="18" y="259" on="1"/>
        <pt x="18" y="455" on="0"/>
        <pt x="206" y="659" on="0"/>
        <pt x="386" y="659" on="1"/>
        <pt x="460" y="659" on="0"/>
        <pt x="608" y="633" on="1"/>
        <pt x="614" y="613" on="1"/>
        <pt x="582" y="521" on="0"/>
        <pt x="560" y="399" on="1"/>
        <pt x="404" y="390" on="1"/>
        <pt x="415" y="447" on="0"/>
        <pt x="415" y="465" on="1"/>
        <pt x="415" y="521" on="0"/>
        <pt x="349" y="521" on="1"/>
        <pt x="294" y="521" on="0"/>
        <pt x="248" y="405" on="0"/>
        <pt x="248" y="268" on="1"/>
        <pt x="248" y="193" on="0"/>
        <pt x="279" y="130" on="0"/>
        <pt x="353" y="130" on="0"/>
        <pt x="388" y="177" on="0"/>
        <pt x="402" y="246" on="1"/>
        <pt x="557" y="256" on="1"/>
        <pt x="531" y="139" on="0"/>
        <pt x="520" y="43" on="1"/>
      </contour>
      <contour>
        <pt x="496" y="748" on="0"/>
        <pt x="433" y="683" on="0"/>
        <pt x="388" y="683" on="1"/>
        <pt x="299" y="683" on="0"/>
        <pt x="299" y="763" on="1"/>
        <pt x="299" y="817" on="0"/>
        <pt x="362" y="882" on="0"/>
        <pt x="408" y="882" on="1"/>
        <pt x="496" y="882" on="0"/>
        <pt x="496" y="801" on="1"/>
      </contour>
    </TTGlyph>
    <TTGlyph name="D" xMin="-16" yMin="-12" xMax="665" yMax="653">
      <contour>
        <pt x="119" y="531" on="1"/>
        <pt x="119" y="557" on="0"/>
        <pt x="100" y="557" on="1"/>
        <pt x="69" y="555" on="1"/>
        <pt x="61" y="569" on="1"/>
        <pt x="80" y="650" on="1"/>
        <pt x="189" y="647" on="0"/>
        <pt x="229" y="647" on="1"/>
        <pt x="382" y="653" on="1"/>
        <pt x="519" y="653" on="0"/>
        <pt x="665" y="525" on="0"/>
        <pt x="665" y="402" on="1"/>
        <pt x="665" y="215" on="0"/>
        <pt x="453" y="-12" on="0"/>
        <pt x="279" y="-12" on="1"/>
        <pt x="187" y="0" on="0"/>
        <pt x="126" y="0" on="1"/>
        <pt x="-16" y="-8" on="1"/>
        <pt x="4" y="85" on="1"/>
        <pt x="40" y="91" on="0"/>
        <pt x="69" y="125" on="0"/>
        <pt x="76" y="168" on="1"/>
        <pt x="119" y="520" on="0"/>
      </contour>
      <contour>
        <pt x="343" y="526" on="1"/>
        <pt x="333" y="526" on="0"/>
        <pt x="323" y="515" on="0"/>
        <pt x="315" y="474" on="0"/>
        <pt x="267" y="153" on="0"/>
        <pt x="267" y="140" on="1"/>
        <pt x="267" y="113" on="0"/>
        <pt x="293" y="113" on="1"/>
        <pt x="435" y="113" on="0"/>
        <pt x="435" y="398" on="1"/>
        <pt x="435" y="469" on="0"/>
        <pt x="394" y="526" on="0"/>
      </contour>
    </TTGlyph>
    <TTGlyph name="Dcaron" xMin="-16" yMin="-12" xMax="665" yMax="895">
      <contour>
        <pt x="119" y="531" on="1"/>
        <pt x="119" y="557" on="0"/>
        <pt x="100" y="557" on="1"/>
        <pt x="69" y="555" on="1"/>
        <pt x="61" y="569" on="1"/>
        <pt x="80" y="650" on="1"/>
        <pt x="189" y="647" on="0"/>
        <pt x="229" y="647" on="1"/>
        <pt x="382" y="653" on="1"/>
        <pt x="519" y="653" on="0"/>
        <pt x="665" y="525" on="0"/>
        <pt x="665" y="402" on="1"/>
        <pt x="665" y="215" on="0"/>
        <pt x="453" y="-12" on="0"/>
        <pt x="279" y="-12" on="1"/>
        <pt x="187" y="0" on="0"/>
        <pt x="126" y="0" on="1"/>
        <pt x="-16" y="-8" on="1"/>
        <pt x="4" y="85" on="1"/>
        <pt x="40" y="91" on="0"/>
        <pt x="69" y="125" on="0"/>
        <pt x="76" y="168" on="1"/>
        <pt x="119" y="520" on="0"/>
      </contour>
      <contour>
        <pt x="343" y="526" on="1"/>
        <pt x="333" y="526" on="0"/>
        <pt x="323" y="515" on="0"/>
        <pt x="315" y="474" on="0"/>
        <pt x="267" y="153" on="0"/>
        <pt x="267" y="140" on="1"/>
        <pt x="267" y="113" on="0"/>
        <pt x="293" y="113" on="1"/>
        <pt x="435" y="113" on="0"/>
        <pt x="435" y="398" on="1"/>
        <pt x="435" y="469" on="0"/>
        <pt x="394" y="526" on="0"/>
      </contour>
      <contour>
        <pt x="550" y="888" on="1"/>
        <pt x="579" y="826" on="1"/>
        <pt x="490" y="766" on="0"/>
        <pt x="388" y="688" on="1"/>
        <pt x="361" y="688" on="1"/>
        <pt x="280" y="765" on="0"/>
        <pt x="206" y="826" on="1"/>
        <pt x="248" y="888" on="1"/>
        <pt x="272" y="895" on="1"/>
        <pt x="295" y="884" on="0"/>
        <pt x="394" y="844" on="1"/>
        <pt x="444" y="862" on="0"/>
        <pt x="528" y="895" on="1"/>
      </contour>
    </TTGlyph>
    <TTGlyph name="Dcroat" xMin="4" yMin="-12" xMax="685" yMax="653">
      <contour>
        <pt x="139" y="531" on="1"/>
        <pt x="139" y="557" on="0"/>
        <pt x="120" y="557" on="1"/>
        <pt x="89" y="555" on="1"/>
        <pt x="81" y="569" on="1"/>
        <pt x="100" y="650" on="1"/>
        <pt x="209" y="647" on="0"/>
        <pt x="249" y="647" on="1"/>
        <pt x="402" y="653" on="1"/>
        <pt x="539" y="653" on="0"/>
        <pt x="685" y="525" on="0"/>
        <pt x="685" y="402" on="1"/>
        <pt x="685" y="215" on="0"/>
        <pt x="473" y="-12" on="0"/>
        <pt x="299" y="-12" on="1"/>
        <pt x="207" y="0" on="0"/>
        <pt x="146" y="0" on="1"/>
        <pt x="4" y="-8" on="1"/>
        <pt x="24" y="85" on="1"/>
        <pt x="60" y="91" on="0"/>
        <pt x="89" y="125" on="0"/>
        <pt x="96" y="168" on="1"/>
        <pt x="108" y="266" on="1"/>
        <pt x="20" y="266" on="1"/>
        <pt x="11" y="274" on="1"/>
        <pt x="35" y="363" on="1"/>
        <pt x="120" y="363" on="1"/>
        <pt x="139" y="521" on="0"/>
      </contour>
      <contour>
        <pt x="363" y="526" on="1"/>
        <pt x="353" y="526" on="0"/>
        <pt x="343" y="515" on="0"/>
        <pt x="337" y="483" on="0"/>
        <pt x="318" y="364" on="1"/>
        <pt x="388" y="367" on="1"/>
        <pt x="395" y="357" on="1"/>
        <pt x="377" y="267" on="1"/>
        <pt x="304" y="267" on="1"/>
        <pt x="287" y="157" on="0"/>
        <pt x="287" y="142" on="1"/>
        <pt x="287" y="113" on="0"/>
        <pt x="313" y="113" on="1"/>
        <pt x="455" y="113" on="0"/>
        <pt x="455" y="398" on="1"/>
        <pt x="455" y="469" on="0"/>
        <pt x="414" y="526" on="0"/>
      </contour>
    </TTGlyph>
    <TTGlyph name="Delta" xMin="-16" yMin="0" xMax="623" yMax="659">
      <contour>
        <pt x="-5" y="0" on="1"/>
        <pt x="-16" y="13" on="1"/>
        <pt x="250" y="642" on="1"/>
        <pt x="519" y="659" on="1"/>
        <pt x="529" y="659" on="1"/>
        <pt x="572" y="299" on="0"/>
        <pt x="623" y="7" on="1"/>
        <pt x="613" y="0" on="1"/>
      </contour>
      <contour>
        <pt x="365" y="497" on="1"/>
        <pt x="341" y="497" on="1"/>
        <pt x="215" y="136" on="1"/>
        <pt x="381" y="136" on="1"/>
      </contour>
    </TTGlyph>
    <TTGlyph name="E" xMin="-20" yMin="-10" xMax="623" yMax="659">
      <contour>
        <pt x="303" y="387" on="1"/>
        <pt x="382" y="386" on="1"/>
        <pt x="489" y="392" on="1"/>
        <pt x="499" y="378" on="1"/>
        <pt x="471" y="263" on="1"/>
        <pt x="400" y="266" on="0"/>
        <pt x="337" y="266" on="0"/>
        <pt x="283" y="260" on="1"/>
        <pt x="269" y="165" on="0"/>
        <pt x="269" y="129" on="0"/>
        <pt x="286" y="115" on="0"/>
        <pt x="309" y="115" on="1"/>
        <pt x="369" y="115" on="0"/>
        <pt x="414" y="154" on="0"/>
        <pt x="431" y="221" on="1"/>
        <pt x="560" y="230" on="1"/>
        <pt x="571" y="215" on="1"/>
        <pt x="541" y="118" on="0"/>
        <pt x="518" y="9" on="1"/>
        <pt x="501" y="-7" on="1"/>
        <pt x="343" y="0" on="0"/>
        <pt x="244" y="0" on="1"/>
        <pt x="100" y="0" on="0"/>
        <pt x="-20" y="-10" on="1"/>
        <pt x="0" y="82" on="1"/>
        <pt x="37" y="88" on="0"/>
        <pt x="68" y="125" on="0"/>
        <pt x="73" y="170" on="1"/>
        <pt x="118" y="521" on="0"/>
        <pt x="118" y="542" on="0"/>
        <pt x="112" y="559" on="0"/>
        <pt x="96" y="559" on="1"/>
        <pt x="71" y="557" on="1"/>
        <pt x="61" y="571" on="1"/>
        <pt x="80" y="650" on="1"/>
        <pt x="220" y="647" on="0"/>
        <pt x="518" y="647" on="0"/>
        <pt x="612" y="659" on="1"/>
        <pt x="623" y="643" on="1"/>
        <pt x="592" y="538" on="0"/>
        <pt x="576" y="444" on="1"/>
        <pt x="436" y="435" on="1"/>
        <pt x="444" y="467" on="0"/>
        <pt x="444" y="510" on="0"/>
        <pt x="408" y="527" on="0"/>
        <pt x="339" y="527" on="0"/>
        <pt x="326" y="517" on="0"/>
        <pt x="323" y="500" on="1"/>
      </contour>
    </TTGlyph>
    <TTGlyph name="Eacute" xMin="-20" yMin="-10" xMax="623" yMax="875">
      <contour>
        <pt x="303" y="387" on="1"/>
        <pt x="382" y="386" on="1"/>
        <pt x="489" y="392" on="1"/>
        <pt x="499" y="378" on="1"/>
        <pt x="471" y="263" on="1"/>
        <pt x="400" y="266" on="0"/>
        <pt x="337" y="266" on="0"/>
        <pt x="283" y="260" on="1"/>
        <pt x="269" y="165" on="0"/>
        <pt x="269" y="129" on="0"/>
        <pt x="286" y="115" on="0"/>
        <pt x="309" y="115" on="1"/>
        <pt x="369" y="115" on="0"/>
        <pt x="414" y="154" on="0"/>
        <pt x="431" y="221" on="1"/>
        <pt x="560" y="230" on="1"/>
        <pt x="571" y="215" on="1"/>
        <pt x="541" y="118" on="0"/>
        <pt x="518" y="9" on="1"/>
        <pt x="501" y="-7" on="1"/>
        <pt x="343" y="0" on="0"/>
        <pt x="244" y="0" on="1"/>
        <pt x="100" y="0" on="0"/>
        <pt x="-20" y="-10" on="1"/>
        <pt x="0" y="82" on="1"/>
        <pt x="37" y="88" on="0"/>
        <pt x="68" y="125" on="0"/>
        <pt x="73" y="170" on="1"/>
        <pt x="118" y="521" on="0"/>
        <pt x="118" y="542" on="0"/>
        <pt x="112" y="559" on="0"/>
        <pt x="96" y="559" on="1"/>
        <pt x="71" y="557" on="1"/>
        <pt x="61" y="571" on="1"/>
        <pt x="80" y="650" on="1"/>
        <pt x="220" y="647" on="0"/>
        <pt x="518" y="647" on="0"/>
        <pt x="612" y="659" on="1"/>
        <pt x="623" y="643" on="1"/>
        <pt x="592" y="538" on="0"/>
        <pt x="576" y="444" on="1"/>
        <pt x="436" y="435" on="1"/>
        <pt x="444" y="467" on="0"/>
        <pt x="444" y="510" on="0"/>
        <pt x="408" y="527" on="0"/>
        <pt x="339" y="527" on="0"/>
        <pt x="326" y="517" on="0"/>
        <pt x="323" y="500" on="1"/>
      </contour>
      <contour>
        <pt x="516" y="762" on="1"/>
        <pt x="509" y="746" on="1"/>
        <pt x="379" y="722" on="0"/>
        <pt x="255" y="691" on="1"/>
        <pt x="236" y="704" on="1"/>
        <pt x="215" y="775" on="1"/>
        <pt x="318" y="813" on="0"/>
        <pt x="464" y="875" on="1"/>
        <pt x="480" y="870" on="1"/>
      </contour>
    </TTGlyph>
    <TTGlyph name="Ebreve" xMin="-20" yMin="-10" xMax="623" yMax="895">
      <contour>
        <pt x="303" y="387" on="1"/>
        <pt x="382" y="386" on="1"/>
        <pt x="489" y="392" on="1"/>
        <pt x="499" y="378" on="1"/>
        <pt x="471" y="263" on="1"/>
        <pt x="400" y="266" on="0"/>
        <pt x="337" y="266" on="0"/>
        <pt x="283" y="260" on="1"/>
        <pt x="269" y="165" on="0"/>
        <pt x="269" y="129" on="0"/>
        <pt x="286" y="115" on="0"/>
        <pt x="309" y="115" on="1"/>
        <pt x="369" y="115" on="0"/>
        <pt x="414" y="154" on="0"/>
        <pt x="431" y="221" on="1"/>
        <pt x="560" y="230" on="1"/>
        <pt x="571" y="215" on="1"/>
        <pt x="541" y="118" on="0"/>
        <pt x="518" y="9" on="1"/>
        <pt x="501" y="-7" on="1"/>
        <pt x="343" y="0" on="0"/>
        <pt x="244" y="0" on="1"/>
        <pt x="100" y="0" on="0"/>
        <pt x="-20" y="-10" on="1"/>
        <pt x="0" y="82" on="1"/>
        <pt x="37" y="88" on="0"/>
        <pt x="68" y="125" on="0"/>
        <pt x="73" y="170" on="1"/>
        <pt x="118" y="521" on="0"/>
        <pt x="118" y="542" on="0"/>
        <pt x="112" y="559" on="0"/>
        <pt x="96" y="559" on="1"/>
        <pt x="71" y="557" on="1"/>
        <pt x="61" y="571" on="1"/>
        <pt x="80" y="650" on="1"/>
        <pt x="220" y="647" on="0"/>
        <pt x="518" y="647" on="0"/>
        <pt x="612" y="659" on="1"/>
        <pt x="623" y="643" on="1"/>
        <pt x="592" y="538" on="0"/>
        <pt x="576" y="444" on="1"/>
        <pt x="436" y="435" on="1"/>
        <pt x="444" y="467" on="0"/>
        <pt x="444" y="510" on="0"/>
        <pt x="408" y="527" on="0"/>
        <pt x="339" y="527" on="0"/>
        <pt x="326" y="517" on="0"/>
        <pt x="323" y="500" on="1"/>
      </contour>
      <contour>
        <pt x="274" y="895" on="1"/>
        <pt x="295" y="825" on="0"/>
        <pt x="454" y="825" on="0"/>
        <pt x="491" y="895" on="1"/>
        <pt x="518" y="888" on="1"/>
        <pt x="550" y="826" on="1"/>
        <pt x="525" y="768" on="0"/>
        <pt x="428" y="690" on="0"/>
        <pt x="288" y="690" on="0"/>
        <pt x="209" y="768" on="0"/>
        <pt x="199" y="826" on="1"/>
        <pt x="246" y="888" on="1"/>
      </contour>
    </TTGlyph>
    <TTGlyph name="Ecaron" xMin="-20" yMin="-10" xMax="623" yMax="895">
      <contour>
        <pt x="303" y="387" on="1"/>
        <pt x="382" y="386" on="1"/>
        <pt x="489" y="392" on="1"/>
        <pt x="499" y="378" on="1"/>
        <pt x="471" y="263" on="1"/>
        <pt x="400" y="266" on="0"/>
        <pt x="337" y="266" on="0"/>
        <pt x="283" y="260" on="1"/>
        <pt x="269" y="165" on="0"/>
        <pt x="269" y="129" on="0"/>
        <pt x="286" y="115" on="0"/>
        <pt x="309" y="115" on="1"/>
        <pt x="369" y="115" on="0"/>
        <pt x="414" y="154" on="0"/>
        <pt x="431" y="221" on="1"/>
        <pt x="560" y="230" on="1"/>
        <pt x="571" y="215" on="1"/>
        <pt x="541" y="118" on="0"/>
        <pt x="518" y="9" on="1"/>
        <pt x="501" y="-7" on="1"/>
        <pt x="343" y="0" on="0"/>
        <pt x="244" y="0" on="1"/>
        <pt x="100" y="0" on="0"/>
        <pt x="-20" y="-10" on="1"/>
        <pt x="0" y="82" on="1"/>
        <pt x="37" y="88" on="0"/>
        <pt x="68" y="125" on="0"/>
        <pt x="73" y="170" on="1"/>
        <pt x="118" y="521" on="0"/>
        <pt x="118" y="542" on="0"/>
        <pt x="112" y="559" on="0"/>
        <pt x="96" y="559" on="1"/>
        <pt x="71" y="557" on="1"/>
        <pt x="61" y="571" on="1"/>
        <pt x="80" y="650" on="1"/>
        <pt x="220" y="647" on="0"/>
        <pt x="518" y="647" on="0"/>
        <pt x="612" y="659" on="1"/>
        <pt x="623" y="643" on="1"/>
        <pt x="592" y="538" on="0"/>
        <pt x="576" y="444" on="1"/>
        <pt x="436" y="435" on="1"/>
        <pt x="444" y="467" on="0"/>
        <pt x="444" y="510" on="0"/>
        <pt x="408" y="527" on="0"/>
        <pt x="339" y="527" on="0"/>
        <pt x="326" y="517" on="0"/>
        <pt x="323" y="500" on="1"/>
      </contour>
      <contour>
        <pt x="549" y="888" on="1"/>
        <pt x="578" y="826" on="1"/>
        <pt x="489" y="766" on="0"/>
        <pt x="387" y="688" on="1"/>
        <pt x="360" y="688" on="1"/>
        <pt x="279" y="765" on="0"/>
        <pt x="205" y="826" on="1"/>
        <pt x="247" y="888" on="1"/>
        <pt x="271" y="895" on="1"/>
        <pt x="294" y="884" on="0"/>
        <pt x="393" y="844" on="1"/>
        <pt x="443" y="862" on="0"/>
        <pt x="527" y="895" on="1"/>
      </contour>
    </TTGlyph>
    <TTGlyph name="Ecircumflex" xMin="-20" yMin="-10" xMax="623" yMax="908">
      <contour>
        <pt x="303" y="387" on="1"/>
        <pt x="382" y="386" on="1"/>
        <pt x="489" y="392" on="1"/>
        <pt x="499" y="378" on="1"/>
        <pt x="471" y="263" on="1"/>
        <pt x="400" y="266" on="0"/>
        <pt x="337" y="266" on="0"/>
        <pt x="283" y="260" on="1"/>
        <pt x="269" y="165" on="0"/>
        <pt x="269" y="129" on="0"/>
        <pt x="286" y="115" on="0"/>
        <pt x="309" y="115" on="1"/>
        <pt x="369" y="115" on="0"/>
        <pt x="414" y="154" on="0"/>
        <pt x="431" y="221" on="1"/>
        <pt x="560" y="230" on="1"/>
        <pt x="571" y="215" on="1"/>
        <pt x="541" y="118" on="0"/>
        <pt x="518" y="9" on="1"/>
        <pt x="501" y="-7" on="1"/>
        <pt x="343" y="0" on="0"/>
        <pt x="244" y="0" on="1"/>
        <pt x="100" y="0" on="0"/>
        <pt x="-20" y="-10" on="1"/>
        <pt x="0" y="82" on="1"/>
        <pt x="37" y="88" on="0"/>
        <pt x="68" y="125" on="0"/>
        <pt x="73" y="170" on="1"/>
        <pt x="118" y="521" on="0"/>
        <pt x="118" y="542" on="0"/>
        <pt x="112" y="559" on="0"/>
        <pt x="96" y="559" on="1"/>
        <pt x="71" y="557" on="1"/>
        <pt x="61" y="571" on="1"/>
        <pt x="80" y="650" on="1"/>
        <pt x="220" y="647" on="0"/>
        <pt x="518" y="647" on="0"/>
        <pt x="612" y="659" on="1"/>
        <pt x="623" y="643" on="1"/>
        <pt x="592" y="538" on="0"/>
        <pt x="576" y="444" on="1"/>
        <pt x="436" y="435" on="1"/>
        <pt x="444" y="467" on="0"/>
        <pt x="444" y="510" on="0"/>
        <pt x="408" y="527" on="0"/>
        <pt x="339" y="527" on="0"/>
        <pt x="326" y="517" on="0"/>
        <pt x="323" y="500" on="1"/>
      </contour>
      <contour>
        <pt x="416" y="908" on="1"/>
        <pt x="416" y="911" on="0"/>
        <pt x="542" y="796" on="0"/>
        <pt x="572" y="770" on="1"/>
        <pt x="529" y="708" on="1"/>
        <pt x="505" y="701" on="1"/>
        <pt x="461" y="721" on="0"/>
        <pt x="383" y="752" on="1"/>
        <pt x="333" y="734" on="0"/>
        <pt x="249" y="701" on="1"/>
        <pt x="227" y="708" on="1"/>
        <pt x="199" y="770" on="1"/>
        <pt x="279" y="824" on="0"/>
        <pt x="389" y="908" on="1"/>
      </contour>
    </TTGlyph>
    <TTGlyph name="Edieresis" xMin="-20" yMin="-10" xMax="623" yMax="862">
      <contour>
        <pt x="303" y="387" on="1"/>
        <pt x="382" y="386" on="1"/>
        <pt x="489" y="392" on="1"/>
        <pt x="499" y="378" on="1"/>
        <pt x="471" y="263" on="1"/>
        <pt x="400" y="266" on="0"/>
        <pt x="337" y="266" on="0"/>
        <pt x="283" y="260" on="1"/>
        <pt x="269" y="165" on="0"/>
        <pt x="269" y="129" on="0"/>
        <pt x="286" y="115" on="0"/>
        <pt x="309" y="115" on="1"/>
        <pt x="369" y="115" on="0"/>
        <pt x="414" y="154" on="0"/>
        <pt x="431" y="221" on="1"/>
        <pt x="560" y="230" on="1"/>
        <pt x="571" y="215" on="1"/>
        <pt x="541" y="118" on="0"/>
        <pt x="518" y="9" on="1"/>
        <pt x="501" y="-7" on="1"/>
        <pt x="343" y="0" on="0"/>
        <pt x="244" y="0" on="1"/>
        <pt x="100" y="0" on="0"/>
        <pt x="-20" y="-10" on="1"/>
        <pt x="0" y="82" on="1"/>
        <pt x="37" y="88" on="0"/>
        <pt x="68" y="125" on="0"/>
        <pt x="73" y="170" on="1"/>
        <pt x="118" y="521" on="0"/>
        <pt x="118" y="542" on="0"/>
        <pt x="112" y="559" on="0"/>
        <pt x="96" y="559" on="1"/>
        <pt x="71" y="557" on="1"/>
        <pt x="61" y="571" on="1"/>
        <pt x="80" y="650" on="1"/>
        <pt x="220" y="647" on="0"/>
        <pt x="518" y="647" on="0"/>
        <pt x="612" y="659" on="1"/>
        <pt x="623" y="643" on="1"/>
        <pt x="592" y="538" on="0"/>
        <pt x="576" y="444" on="1"/>
        <pt x="436" y="435" on="1"/>
        <pt x="444" y="467" on="0"/>
        <pt x="444" y="510" on="0"/>
        <pt x="408" y="527" on="0"/>
        <pt x="339" y="527" on="0"/>
        <pt x="326" y="517" on="0"/>
        <pt x="323" y="500" on="1"/>
      </contour>
      <contour>
        <pt x="467" y="695" on="1"/>
        <pt x="396" y="695" on="0"/>
        <pt x="396" y="762" on="1"/>
        <pt x="396" y="807" on="0"/>
        <pt x="449" y="862" on="0"/>
        <pt x="488" y="862" on="1"/>
        <pt x="563" y="862" on="0"/>
        <pt x="563" y="794" on="1"/>
        <pt x="563" y="750" on="0"/>
        <pt x="510" y="695" on="0"/>
      </contour>
      <contour>
        <pt x="279" y="695" on="1"/>
        <pt x="209" y="695" on="0"/>
        <pt x="209" y="762" on="1"/>
        <pt x="209" y="807" on="0"/>
        <pt x="262" y="862" on="0"/>
        <pt x="300" y="862" on="1"/>
        <pt x="375" y="862" on="0"/>
        <pt x="375" y="794" on="1"/>
        <pt x="375" y="750" on="0"/>
        <pt x="322" y="695" on="0"/>
      </contour>
    </TTGlyph>
    <TTGlyph name="Edotaccent" xMin="-20" yMin="-10" xMax="623" yMax="882">
      <contour>
        <pt x="303" y="387" on="1"/>
        <pt x="382" y="386" on="1"/>
        <pt x="489" y="392" on="1"/>
        <pt x="499" y="378" on="1"/>
        <pt x="471" y="263" on="1"/>
        <pt x="400" y="266" on="0"/>
        <pt x="337" y="266" on="0"/>
        <pt x="283" y="260" on="1"/>
        <pt x="269" y="165" on="0"/>
        <pt x="269" y="129" on="0"/>
        <pt x="286" y="115" on="0"/>
        <pt x="309" y="115" on="1"/>
        <pt x="369" y="115" on="0"/>
        <pt x="414" y="154" on="0"/>
        <pt x="431" y="221" on="1"/>
        <pt x="560" y="230" on="1"/>
        <pt x="571" y="215" on="1"/>
        <pt x="541" y="118" on="0"/>
        <pt x="518" y="9" on="1"/>
        <pt x="501" y="-7" on="1"/>
        <pt x="343" y="0" on="0"/>
        <pt x="244" y="0" on="1"/>
        <pt x="100" y="0" on="0"/>
        <pt x="-20" y="-10" on="1"/>
        <pt x="0" y="82" on="1"/>
        <pt x="37" y="88" on="0"/>
        <pt x="68" y="125" on="0"/>
        <pt x="73" y="170" on="1"/>
        <pt x="118" y="521" on="0"/>
        <pt x="118" y="542" on="0"/>
        <pt x="112" y="559" on="0"/>
        <pt x="96" y="559" on="1"/>
        <pt x="71" y="557" on="1"/>
        <pt x="61" y="571" on="1"/>
        <pt x="80" y="650" on="1"/>
        <pt x="220" y="647" on="0"/>
        <pt x="518" y="647" on="0"/>
        <pt x="612" y="659" on="1"/>
        <pt x="623" y="643" on="1"/>
        <pt x="592" y="538" on="0"/>
        <pt x="576" y="444" on="1"/>
        <pt x="436" y="435" on="1"/>
        <pt x="444" y="467" on="0"/>
        <pt x="444" y="510" on="0"/>
        <pt x="408" y="527" on="0"/>
        <pt x="339" y="527" on="0"/>
        <pt x="326" y="517" on="0"/>
        <pt x="323" y="500" on="1"/>
      </contour>
      <contour>
        <pt x="487" y="748" on="0"/>
        <pt x="424" y="683" on="0"/>
        <pt x="378" y="683" on="1"/>
        <pt x="290" y="683" on="0"/>
        <pt x="290" y="763" on="1"/>
        <pt x="290" y="817" on="0"/>
        <pt x="353" y="882" on="0"/>
        <pt x="398" y="882" on="1"/>
        <pt x="487" y="882" on="0"/>
        <pt x="487" y="801" on="1"/>
      </contour>
    </TTGlyph>
    <TTGlyph name="Egrave" xMin="-20" yMin="-10" xMax="623" yMax="875">
      <contour>
        <pt x="303" y="387" on="1"/>
        <pt x="382" y="386" on="1"/>
        <pt x="489" y="392" on="1"/>
        <pt x="499" y="378" on="1"/>
        <pt x="471" y="263" on="1"/>
        <pt x="400" y="266" on="0"/>
        <pt x="337" y="266" on="0"/>
        <pt x="283" y="260" on="1"/>
        <pt x="269" y="165" on="0"/>
        <pt x="269" y="129" on="0"/>
        <pt x="286" y="115" on="0"/>
        <pt x="309" y="115" on="1"/>
        <pt x="369" y="115" on="0"/>
        <pt x="414" y="154" on="0"/>
        <pt x="431" y="221" on="1"/>
        <pt x="560" y="230" on="1"/>
        <pt x="571" y="215" on="1"/>
        <pt x="541" y="118" on="0"/>
        <pt x="518" y="9" on="1"/>
        <pt x="501" y="-7" on="1"/>
        <pt x="343" y="0" on="0"/>
        <pt x="244" y="0" on="1"/>
        <pt x="100" y="0" on="0"/>
        <pt x="-20" y="-10" on="1"/>
        <pt x="0" y="82" on="1"/>
        <pt x="37" y="88" on="0"/>
        <pt x="68" y="125" on="0"/>
        <pt x="73" y="170" on="1"/>
        <pt x="118" y="521" on="0"/>
        <pt x="118" y="542" on="0"/>
        <pt x="112" y="559" on="0"/>
        <pt x="96" y="559" on="1"/>
        <pt x="71" y="557" on="1"/>
        <pt x="61" y="571" on="1"/>
        <pt x="80" y="650" on="1"/>
        <pt x="220" y="647" on="0"/>
        <pt x="518" y="647" on="0"/>
        <pt x="612" y="659" on="1"/>
        <pt x="623" y="643" on="1"/>
        <pt x="592" y="538" on="0"/>
        <pt x="576" y="444" on="1"/>
        <pt x="436" y="435" on="1"/>
        <pt x="444" y="467" on="0"/>
        <pt x="444" y="510" on="0"/>
        <pt x="408" y="527" on="0"/>
        <pt x="339" y="527" on="0"/>
        <pt x="326" y="517" on="0"/>
        <pt x="323" y="500" on="1"/>
      </contour>
      <contour>
        <pt x="221" y="746" on="1"/>
        <pt x="214" y="762" on="1"/>
        <pt x="250" y="870" on="1"/>
        <pt x="266" y="875" on="1"/>
        <pt x="392" y="821" on="0"/>
        <pt x="515" y="775" on="1"/>
        <pt x="494" y="704" on="1"/>
        <pt x="475" y="691" on="1"/>
        <pt x="382" y="715" on="0"/>
      </contour>
    </TTGlyph>
    <TTGlyph name="Emacron" xMin="-20" yMin="-10" xMax="623" yMax="823">
      <contour>
        <pt x="303" y="387" on="1"/>
        <pt x="382" y="386" on="1"/>
        <pt x="489" y="392" on="1"/>
        <pt x="499" y="378" on="1"/>
        <pt x="471" y="263" on="1"/>
        <pt x="400" y="266" on="0"/>
        <pt x="337" y="266" on="0"/>
        <pt x="283" y="260" on="1"/>
        <pt x="269" y="165" on="0"/>
        <pt x="269" y="129" on="0"/>
        <pt x="286" y="115" on="0"/>
        <pt x="309" y="115" on="1"/>
        <pt x="369" y="115" on="0"/>
        <pt x="414" y="154" on="0"/>
        <pt x="431" y="221" on="1"/>
        <pt x="560" y="230" on="1"/>
        <pt x="571" y="215" on="1"/>
        <pt x="541" y="118" on="0"/>
        <pt x="518" y="9" on="1"/>
        <pt x="501" y="-7" on="1"/>
        <pt x="343" y="0" on="0"/>
        <pt x="244" y="0" on="1"/>
        <pt x="100" y="0" on="0"/>
        <pt x="-20" y="-10" on="1"/>
        <pt x="0" y="82" on="1"/>
        <pt x="37" y="88" on="0"/>
        <pt x="68" y="125" on="0"/>
        <pt x="73" y="170" on="1"/>
        <pt x="118" y="521" on="0"/>
        <pt x="118" y="542" on="0"/>
        <pt x="112" y="559" on="0"/>
        <pt x="96" y="559" on="1"/>
        <pt x="71" y="557" on="1"/>
        <pt x="61" y="571" on="1"/>
        <pt x="80" y="650" on="1"/>
        <pt x="220" y="647" on="0"/>
        <pt x="518" y="647" on="0"/>
        <pt x="612" y="659" on="1"/>
        <pt x="623" y="643" on="1"/>
        <pt x="592" y="538" on="0"/>
        <pt x="576" y="444" on="1"/>
        <pt x="436" y="435" on="1"/>
        <pt x="444" y="467" on="0"/>
        <pt x="444" y="510" on="0"/>
        <pt x="408" y="527" on="0"/>
        <pt x="339" y="527" on="0"/>
        <pt x="326" y="517" on="0"/>
        <pt x="323" y="500" on="1"/>
      </contour>
      <contour>
        <pt x="536" y="823" on="1"/>
        <pt x="545" y="805" on="1"/>
        <pt x="513" y="696" on="1"/>
        <pt x="248" y="694" on="1"/>
        <pt x="234" y="709" on="1"/>
        <pt x="266" y="818" on="1"/>
        <pt x="358" y="817" on="0"/>
        <pt x="415" y="817" on="1"/>
      </contour>
    </TTGlyph>
    <TTGlyph name="Eng" xMin="-8" yMin="-172" xMax="767" yMax="652">
      <contour>
        <pt x="499" y="318" on="1"/>
        <pt x="521" y="530" on="0"/>
        <pt x="521" y="539" on="1"/>
        <pt x="521" y="563" on="0"/>
        <pt x="493" y="563" on="1"/>
        <pt x="463" y="562" on="1"/>
        <pt x="460" y="572" on="1"/>
        <pt x="474" y="651" on="1"/>
        <pt x="607" y="647" on="0"/>
        <pt x="636" y="647" on="1"/>
        <pt x="767" y="651" on="1"/>
        <pt x="752" y="564" on="1"/>
        <pt x="720" y="560" on="0"/>
        <pt x="692" y="532" on="0"/>
        <pt x="687" y="501" on="1"/>
        <pt x="626" y="85" on="1"/>
        <pt x="610" y="-17" on="0"/>
        <pt x="480" y="-139" on="0"/>
        <pt x="353" y="-172" on="1"/>
        <pt x="317" y="-123" on="1"/>
        <pt x="321" y="-108" on="1"/>
        <pt x="397" y="-69" on="0"/>
        <pt x="427" y="0" on="1"/>
        <pt x="367" y="137" on="0"/>
        <pt x="272" y="331" on="1"/>
        <pt x="258" y="331" on="1"/>
        <pt x="235" y="125" on="0"/>
        <pt x="235" y="113" on="1"/>
        <pt x="235" y="83" on="0"/>
        <pt x="268" y="83" on="1"/>
        <pt x="302" y="86" on="1"/>
        <pt x="309" y="78" on="1"/>
        <pt x="289" y="-4" on="1"/>
        <pt x="190" y="0" on="0"/>
        <pt x="111" y="0" on="1"/>
        <pt x="-8" y="-8" on="1"/>
        <pt x="13" y="78" on="1"/>
        <pt x="42" y="82" on="0"/>
        <pt x="71" y="112" on="0"/>
        <pt x="76" y="143" on="1"/>
        <pt x="132" y="505" on="0"/>
        <pt x="132" y="535" on="0"/>
        <pt x="110" y="556" on="0"/>
        <pt x="66" y="561" on="1"/>
        <pt x="56" y="575" on="1"/>
        <pt x="71" y="652" on="1"/>
        <pt x="161" y="647" on="0"/>
        <pt x="215" y="647" on="1"/>
        <pt x="335" y="651" on="1"/>
        <pt x="397" y="497" on="0"/>
        <pt x="485" y="318" on="1"/>
      </contour>
    </TTGlyph>
    <TTGlyph name="Eogonek" xMin="-20" yMin="-242" xMax="623" yMax="659">
      <contour>
        <pt x="303" y="387" on="1"/>
        <pt x="382" y="386" on="1"/>
        <pt x="489" y="392" on="1"/>
        <pt x="499" y="378" on="1"/>
        <pt x="471" y="263" on="1"/>
        <pt x="400" y="266" on="0"/>
        <pt x="337" y="266" on="0"/>
        <pt x="283" y="260" on="1"/>
        <pt x="269" y="165" on="0"/>
        <pt x="269" y="129" on="0"/>
        <pt x="286" y="115" on="0"/>
        <pt x="309" y="115" on="1"/>
        <pt x="369" y="115" on="0"/>
        <pt x="414" y="154" on="0"/>
        <pt x="431" y="221" on="1"/>
        <pt x="560" y="230" on="1"/>
        <pt x="571" y="215" on="1"/>
        <pt x="541" y="118" on="0"/>
        <pt x="518" y="9" on="1"/>
        <pt x="501" y="-7" on="1"/>
        <pt x="489" y="-6" on="0"/>
        <pt x="470" y="-5" on="1"/>
        <pt x="427" y="-56" on="0"/>
        <pt x="401" y="-102" on="0"/>
        <pt x="401" y="-136" on="0"/>
        <pt x="419" y="-155" on="0"/>
        <pt x="432" y="-155" on="1"/>
        <pt x="456" y="-155" on="0"/>
        <pt x="500" y="-130" on="1"/>
        <pt x="521" y="-170" on="1"/>
        <pt x="459" y="-224" on="0"/>
        <pt x="411" y="-242" on="1"/>
        <pt x="355" y="-242" on="0"/>
        <pt x="293" y="-199" on="0"/>
        <pt x="293" y="-128" on="0"/>
        <pt x="334" y="-61" on="0"/>
        <pt x="394" y="-3" on="1"/>
        <pt x="308" y="0" on="0"/>
        <pt x="226" y="0" on="1"/>
        <pt x="100" y="0" on="0"/>
        <pt x="-20" y="-10" on="1"/>
        <pt x="0" y="82" on="1"/>
        <pt x="37" y="88" on="0"/>
        <pt x="68" y="125" on="0"/>
        <pt x="73" y="170" on="1"/>
        <pt x="118" y="521" on="0"/>
        <pt x="118" y="542" on="0"/>
        <pt x="112" y="559" on="0"/>
        <pt x="96" y="559" on="1"/>
        <pt x="71" y="557" on="1"/>
        <pt x="61" y="571" on="1"/>
        <pt x="80" y="650" on="1"/>
        <pt x="220" y="647" on="0"/>
        <pt x="518" y="647" on="0"/>
        <pt x="612" y="659" on="1"/>
        <pt x="623" y="643" on="1"/>
        <pt x="592" y="538" on="0"/>
        <pt x="576" y="444" on="1"/>
        <pt x="436" y="435" on="1"/>
        <pt x="444" y="467" on="0"/>
        <pt x="444" y="510" on="0"/>
        <pt x="408" y="527" on="0"/>
        <pt x="339" y="527" on="0"/>
        <pt x="326" y="517" on="0"/>
        <pt x="323" y="500" on="1"/>
      </contour>
    </TTGlyph>
    <TTGlyph name="Eth" xMin="4" yMin="-12" xMax="685" yMax="653">
      <contour>
        <pt x="139" y="531" on="1"/>
        <pt x="139" y="557" on="0"/>
        <pt x="120" y="557" on="1"/>
        <pt x="89" y="555" on="1"/>
        <pt x="81" y="569" on="1"/>
        <pt x="100" y="650" on="1"/>
        <pt x="209" y="647" on="0"/>
        <pt x="249" y="647" on="1"/>
        <pt x="402" y="653" on="1"/>
        <pt x="539" y="653" on="0"/>
        <pt x="685" y="525" on="0"/>
        <pt x="685" y="402" on="1"/>
        <pt x="685" y="215" on="0"/>
        <pt x="473" y="-12" on="0"/>
        <pt x="299" y="-12" on="1"/>
        <pt x="207" y="0" on="0"/>
        <pt x="146" y="0" on="1"/>
        <pt x="4" y="-8" on="1"/>
        <pt x="24" y="85" on="1"/>
        <pt x="60" y="91" on="0"/>
        <pt x="89" y="125" on="0"/>
        <pt x="96" y="168" on="1"/>
        <pt x="108" y="266" on="1"/>
        <pt x="20" y="266" on="1"/>
        <pt x="11" y="274" on="1"/>
        <pt x="35" y="363" on="1"/>
        <pt x="120" y="363" on="1"/>
        <pt x="139" y="521" on="0"/>
      </contour>
      <contour>
        <pt x="363" y="526" on="1"/>
        <pt x="353" y="526" on="0"/>
        <pt x="343" y="515" on="0"/>
        <pt x="337" y="483" on="0"/>
        <pt x="318" y="364" on="1"/>
        <pt x="388" y="367" on="1"/>
        <pt x="395" y="357" on="1"/>
        <pt x="377" y="267" on="1"/>
        <pt x="304" y="267" on="1"/>
        <pt x="287" y="157" on="0"/>
        <pt x="287" y="142" on="1"/>
        <pt x="287" y="113" on="0"/>
        <pt x="313" y="113" on="1"/>
        <pt x="455" y="113" on="0"/>
        <pt x="455" y="398" on="1"/>
        <pt x="455" y="469" on="0"/>
        <pt x="414" y="526" on="0"/>
      </contour>
    </TTGlyph>
    <TTGlyph name="Euro" xMin="-11" yMin="-8" xMax="553" yMax="513">
      <contour>
        <pt x="311" y="99" on="1"/>
        <pt x="343" y="99" on="0"/>
        <pt x="375" y="137" on="0"/>
        <pt x="387" y="190" on="1"/>
        <pt x="509" y="198" on="1"/>
        <pt x="488" y="107" on="0"/>
        <pt x="479" y="33" on="1"/>
        <pt x="467" y="21" on="1"/>
        <pt x="386" y="-8" on="0"/>
        <pt x="191" y="-8" on="0"/>
        <pt x="80" y="78" on="0"/>
        <pt x="68" y="160" on="1"/>
        <pt x="-4" y="160" on="1"/>
        <pt x="-11" y="166" on="1"/>
        <pt x="6" y="233" on="1"/>
        <pt x="66" y="233" on="1"/>
        <pt x="66" y="254" on="0"/>
        <pt x="69" y="273" on="1"/>
        <pt x="10" y="273" on="1"/>
        <pt x="3" y="279" on="1"/>
        <pt x="20" y="346" on="1"/>
        <pt x="87" y="346" on="1"/>
        <pt x="150" y="513" on="0"/>
        <pt x="367" y="513" on="1"/>
        <pt x="422" y="513" on="0"/>
        <pt x="548" y="492" on="1"/>
        <pt x="553" y="476" on="1"/>
        <pt x="528" y="406" on="0"/>
        <pt x="510" y="312" on="1"/>
        <pt x="388" y="305" on="1"/>
        <pt x="396" y="348" on="0"/>
        <pt x="396" y="362" on="1"/>
        <pt x="396" y="407" on="0"/>
        <pt x="281" y="407" on="0"/>
        <pt x="261" y="346" on="1"/>
        <pt x="374" y="350" on="1"/>
        <pt x="381" y="342" on="1"/>
        <pt x="366" y="274" on="1"/>
        <pt x="248" y="273" on="1"/>
        <pt x="246" y="249" on="0"/>
        <pt x="246" y="233" on="1"/>
        <pt x="247" y="233" on="1"/>
        <pt x="360" y="237" on="1"/>
        <pt x="367" y="229" on="1"/>
        <pt x="353" y="161" on="1"/>
        <pt x="250" y="160" on="1"/>
        <pt x="260" y="99" on="0"/>
      </contour>
    </TTGlyph>
    <TTGlyph name="F" xMin="-20" yMin="-10" xMax="595" yMax="659">
      <contour>
        <pt x="281" y="243" on="1"/>
        <pt x="270" y="159" on="0"/>
        <pt x="270" y="134" on="0"/>
        <pt x="280" y="115" on="0"/>
        <pt x="331" y="115" on="0"/>
        <pt x="361" y="123" on="1"/>
        <pt x="375" y="105" on="1"/>
        <pt x="349" y="-3" on="1"/>
        <pt x="236" y="0" on="0"/>
        <pt x="190" y="0" on="1"/>
        <pt x="100" y="0" on="0"/>
        <pt x="-20" y="-10" on="1"/>
        <pt x="0" y="82" on="1"/>
        <pt x="37" y="88" on="0"/>
        <pt x="67" y="125" on="0"/>
        <pt x="73" y="170" on="1"/>
        <pt x="118" y="521" on="0"/>
        <pt x="118" y="542" on="0"/>
        <pt x="112" y="559" on="0"/>
        <pt x="96" y="559" on="1"/>
        <pt x="71" y="557" on="1"/>
        <pt x="61" y="571" on="1"/>
        <pt x="80" y="650" on="1"/>
        <pt x="220" y="647" on="0"/>
        <pt x="498" y="647" on="0"/>
        <pt x="584" y="659" on="1"/>
        <pt x="595" y="643" on="1"/>
        <pt x="569" y="536" on="0"/>
        <pt x="554" y="444" on="1"/>
        <pt x="414" y="436" on="1"/>
        <pt x="421" y="467" on="0"/>
        <pt x="421" y="509" on="0"/>
        <pt x="394" y="527" on="0"/>
        <pt x="339" y="527" on="0"/>
        <pt x="326" y="517" on="0"/>
        <pt x="323" y="500" on="1"/>
        <pt x="300" y="370" on="1"/>
        <pt x="380" y="369" on="1"/>
        <pt x="482" y="375" on="1"/>
        <pt x="493" y="361" on="1"/>
        <pt x="465" y="246" on="1"/>
        <pt x="397" y="249" on="0"/>
        <pt x="332" y="249" on="0"/>
      </contour>
    </TTGlyph>
    <TTGlyph name="G" xMin="18" yMin="-11" xMax="614" yMax="659">
      <contour>
        <pt x="279" y="-11" on="1"/>
        <pt x="154" y="-11" on="0"/>
        <pt x="18" y="129" on="0"/>
        <pt x="18" y="259" on="1"/>
        <pt x="18" y="455" on="0"/>
        <pt x="206" y="659" on="0"/>
        <pt x="386" y="659" on="1"/>
        <pt x="460" y="659" on="0"/>
        <pt x="608" y="633" on="1"/>
        <pt x="614" y="613" on="1"/>
        <pt x="582" y="535" on="0"/>
        <pt x="560" y="413" on="1"/>
        <pt x="404" y="404" on="1"/>
        <pt x="415" y="450" on="0"/>
        <pt x="415" y="468" on="1"/>
        <pt x="415" y="521" on="0"/>
        <pt x="349" y="521" on="1"/>
        <pt x="294" y="521" on="0"/>
        <pt x="248" y="405" on="0"/>
        <pt x="248" y="268" on="1"/>
        <pt x="248" y="193" on="0"/>
        <pt x="279" y="130" on="0"/>
        <pt x="316" y="130" on="1"/>
        <pt x="345" y="130" on="0"/>
        <pt x="371" y="142" on="1"/>
        <pt x="379" y="215" on="0"/>
        <pt x="379" y="232" on="0"/>
        <pt x="371" y="246" on="0"/>
        <pt x="354" y="246" on="1"/>
        <pt x="323" y="245" on="1"/>
        <pt x="316" y="259" on="1"/>
        <pt x="339" y="354" on="1"/>
        <pt x="489" y="354" on="1"/>
        <pt x="597" y="354" on="0"/>
        <pt x="597" y="359" on="1"/>
        <pt x="600" y="301" on="1"/>
        <pt x="560" y="276" on="0"/>
        <pt x="552" y="226" on="1"/>
        <pt x="532" y="122" on="0"/>
        <pt x="532" y="76" on="1"/>
        <pt x="533" y="38" on="1"/>
        <pt x="519" y="22" on="1"/>
        <pt x="438" y="-11" on="0"/>
      </contour>
    </TTGlyph>
    <TTGlyph name="Gbreve" xMin="18" yMin="-11" xMax="614" yMax="900">
      <contour>
        <pt x="279" y="-11" on="1"/>
        <pt x="154" y="-11" on="0"/>
        <pt x="18" y="129" on="0"/>
        <pt x="18" y="259" on="1"/>
        <pt x="18" y="455" on="0"/>
        <pt x="206" y="659" on="0"/>
        <pt x="386" y="659" on="1"/>
        <pt x="460" y="659" on="0"/>
        <pt x="608" y="633" on="1"/>
        <pt x="614" y="613" on="1"/>
        <pt x="582" y="535" on="0"/>
        <pt x="560" y="413" on="1"/>
        <pt x="404" y="404" on="1"/>
        <pt x="415" y="450" on="0"/>
        <pt x="415" y="468" on="1"/>
        <pt x="415" y="521" on="0"/>
        <pt x="349" y="521" on="1"/>
        <pt x="294" y="521" on="0"/>
        <pt x="248" y="405" on="0"/>
        <pt x="248" y="268" on="1"/>
        <pt x="248" y="193" on="0"/>
        <pt x="279" y="130" on="0"/>
        <pt x="316" y="130" on="1"/>
        <pt x="345" y="130" on="0"/>
        <pt x="371" y="142" on="1"/>
        <pt x="379" y="215" on="0"/>
        <pt x="379" y="232" on="0"/>
        <pt x="371" y="246" on="0"/>
        <pt x="354" y="246" on="1"/>
        <pt x="323" y="245" on="1"/>
        <pt x="316" y="259" on="1"/>
        <pt x="339" y="354" on="1"/>
        <pt x="489" y="354" on="1"/>
        <pt x="597" y="354" on="0"/>
        <pt x="597" y="359" on="1"/>
        <pt x="600" y="301" on="1"/>
        <pt x="560" y="276" on="0"/>
        <pt x="552" y="226" on="1"/>
        <pt x="532" y="122" on="0"/>
        <pt x="532" y="76" on="1"/>
        <pt x="533" y="38" on="1"/>
        <pt x="519" y="22" on="1"/>
        <pt x="438" y="-11" on="0"/>
      </contour>
      <contour>
        <pt x="393" y="830" on="1"/>
        <pt x="472" y="830" on="0"/>
        <pt x="511" y="900" on="1"/>
        <pt x="537" y="893" on="1"/>
        <pt x="569" y="831" on="1"/>
        <pt x="544" y="773" on="0"/>
        <pt x="447" y="695" on="0"/>
        <pt x="307" y="695" on="0"/>
        <pt x="228" y="773" on="0"/>
        <pt x="218" y="831" on="1"/>
        <pt x="266" y="893" on="1"/>
        <pt x="294" y="900" on="1"/>
        <pt x="303" y="866" on="0"/>
        <pt x="357" y="830" on="0"/>
      </contour>
    </TTGlyph>
    <TTGlyph name="Gcircumflex" xMin="18" yMin="-11" xMax="614" yMax="934">
      <contour>
        <pt x="279" y="-11" on="1"/>
        <pt x="154" y="-11" on="0"/>
        <pt x="18" y="129" on="0"/>
        <pt x="18" y="259" on="1"/>
        <pt x="18" y="455" on="0"/>
        <pt x="206" y="659" on="0"/>
        <pt x="386" y="659" on="1"/>
        <pt x="460" y="659" on="0"/>
        <pt x="608" y="633" on="1"/>
        <pt x="614" y="613" on="1"/>
        <pt x="582" y="535" on="0"/>
        <pt x="560" y="413" on="1"/>
        <pt x="404" y="404" on="1"/>
        <pt x="415" y="450" on="0"/>
        <pt x="415" y="468" on="1"/>
        <pt x="415" y="521" on="0"/>
        <pt x="349" y="521" on="1"/>
        <pt x="294" y="521" on="0"/>
        <pt x="248" y="405" on="0"/>
        <pt x="248" y="268" on="1"/>
        <pt x="248" y="193" on="0"/>
        <pt x="279" y="130" on="0"/>
        <pt x="316" y="130" on="1"/>
        <pt x="345" y="130" on="0"/>
        <pt x="371" y="142" on="1"/>
        <pt x="379" y="215" on="0"/>
        <pt x="379" y="232" on="0"/>
        <pt x="371" y="246" on="0"/>
        <pt x="354" y="246" on="1"/>
        <pt x="323" y="245" on="1"/>
        <pt x="316" y="259" on="1"/>
        <pt x="339" y="354" on="1"/>
        <pt x="489" y="354" on="1"/>
        <pt x="597" y="354" on="0"/>
        <pt x="597" y="359" on="1"/>
        <pt x="600" y="301" on="1"/>
        <pt x="560" y="276" on="0"/>
        <pt x="552" y="226" on="1"/>
        <pt x="532" y="122" on="0"/>
        <pt x="532" y="76" on="1"/>
        <pt x="533" y="38" on="1"/>
        <pt x="519" y="22" on="1"/>
        <pt x="438" y="-11" on="0"/>
      </contour>
      <contour>
        <pt x="248" y="716" on="1"/>
        <pt x="210" y="778" on="1"/>
        <pt x="286" y="840" on="0"/>
        <pt x="392" y="934" on="1"/>
        <pt x="419" y="934" on="1"/>
        <pt x="495" y="847" on="0"/>
        <pt x="563" y="778" on="1"/>
        <pt x="510" y="716" on="1"/>
        <pt x="486" y="709" on="1"/>
        <pt x="459" y="730" on="0"/>
        <pt x="386" y="778" on="1"/>
        <pt x="314" y="738" on="0"/>
        <pt x="271" y="709" on="1"/>
      </contour>
    </TTGlyph>
    <TTGlyph name="Gcommaaccent" xMin="18" yMin="-345" xMax="614" yMax="659">
      <contour>
        <pt x="279" y="-11" on="1"/>
        <pt x="154" y="-11" on="0"/>
        <pt x="18" y="129" on="0"/>
        <pt x="18" y="259" on="1"/>
        <pt x="18" y="455" on="0"/>
        <pt x="206" y="659" on="0"/>
        <pt x="386" y="659" on="1"/>
        <pt x="460" y="659" on="0"/>
        <pt x="608" y="633" on="1"/>
        <pt x="614" y="613" on="1"/>
        <pt x="582" y="535" on="0"/>
        <pt x="560" y="413" on="1"/>
        <pt x="404" y="404" on="1"/>
        <pt x="415" y="450" on="0"/>
        <pt x="415" y="468" on="1"/>
        <pt x="415" y="521" on="0"/>
        <pt x="349" y="521" on="1"/>
        <pt x="294" y="521" on="0"/>
        <pt x="248" y="405" on="0"/>
        <pt x="248" y="268" on="1"/>
        <pt x="248" y="193" on="0"/>
        <pt x="279" y="130" on="0"/>
        <pt x="316" y="130" on="1"/>
        <pt x="345" y="130" on="0"/>
        <pt x="371" y="142" on="1"/>
        <pt x="379" y="215" on="0"/>
        <pt x="379" y="232" on="0"/>
        <pt x="371" y="246" on="0"/>
        <pt x="354" y="246" on="1"/>
        <pt x="323" y="245" on="1"/>
        <pt x="316" y="259" on="1"/>
        <pt x="339" y="354" on="1"/>
        <pt x="489" y="354" on="1"/>
        <pt x="597" y="354" on="0"/>
        <pt x="597" y="359" on="1"/>
        <pt x="600" y="301" on="1"/>
        <pt x="560" y="276" on="0"/>
        <pt x="552" y="226" on="1"/>
        <pt x="532" y="122" on="0"/>
        <pt x="532" y="76" on="1"/>
        <pt x="533" y="38" on="1"/>
        <pt x="519" y="22" on="1"/>
        <pt x="438" y="-11" on="0"/>
      </contour>
      <contour>
        <pt x="182" y="-78" on="1"/>
        <pt x="239" y="-34" on="0"/>
        <pt x="322" y="-34" on="0"/>
        <pt x="369" y="-89" on="0"/>
        <pt x="369" y="-188" on="0"/>
        <pt x="279" y="-301" on="0"/>
        <pt x="202" y="-345" on="1"/>
        <pt x="144" y="-299" on="1"/>
        <pt x="144" y="-274" on="1"/>
        <pt x="173" y="-253" on="0"/>
        <pt x="208" y="-195" on="0"/>
        <pt x="208" y="-124" on="0"/>
        <pt x="179" y="-92" on="1"/>
      </contour>
    </TTGlyph>
    <TTGlyph name="Gdotaccent" xMin="18" yMin="-11" xMax="614" yMax="882">
      <contour>
        <pt x="279" y="-11" on="1"/>
        <pt x="154" y="-11" on="0"/>
        <pt x="18" y="129" on="0"/>
        <pt x="18" y="259" on="1"/>
        <pt x="18" y="455" on="0"/>
        <pt x="206" y="659" on="0"/>
        <pt x="386" y="659" on="1"/>
        <pt x="460" y="659" on="0"/>
        <pt x="608" y="633" on="1"/>
        <pt x="614" y="613" on="1"/>
        <pt x="582" y="535" on="0"/>
        <pt x="560" y="413" on="1"/>
        <pt x="404" y="404" on="1"/>
        <pt x="415" y="450" on="0"/>
        <pt x="415" y="468" on="1"/>
        <pt x="415" y="521" on="0"/>
        <pt x="349" y="521" on="1"/>
        <pt x="294" y="521" on="0"/>
        <pt x="248" y="405" on="0"/>
        <pt x="248" y="268" on="1"/>
        <pt x="248" y="193" on="0"/>
        <pt x="279" y="130" on="0"/>
        <pt x="316" y="130" on="1"/>
        <pt x="345" y="130" on="0"/>
        <pt x="371" y="142" on="1"/>
        <pt x="379" y="215" on="0"/>
        <pt x="379" y="232" on="0"/>
        <pt x="371" y="246" on="0"/>
        <pt x="354" y="246" on="1"/>
        <pt x="323" y="245" on="1"/>
        <pt x="316" y="259" on="1"/>
        <pt x="339" y="354" on="1"/>
        <pt x="489" y="354" on="1"/>
        <pt x="597" y="354" on="0"/>
        <pt x="597" y="359" on="1"/>
        <pt x="600" y="301" on="1"/>
        <pt x="560" y="276" on="0"/>
        <pt x="552" y="226" on="1"/>
        <pt x="532" y="122" on="0"/>
        <pt x="532" y="76" on="1"/>
        <pt x="533" y="38" on="1"/>
        <pt x="519" y="22" on="1"/>
        <pt x="438" y="-11" on="0"/>
      </contour>
      <contour>
        <pt x="503" y="748" on="0"/>
        <pt x="440" y="683" on="0"/>
        <pt x="394" y="683" on="1"/>
        <pt x="306" y="683" on="0"/>
        <pt x="306" y="763" on="1"/>
        <pt x="306" y="817" on="0"/>
        <pt x="369" y="882" on="0"/>
        <pt x="414" y="882" on="1"/>
        <pt x="503" y="882" on="0"/>
        <pt x="503" y="801" on="1"/>
      </contour>
    </TTGlyph>
    <TTGlyph name="H" xMin="-17" yMin="-5" xMax="762" yMax="652">
      <contour>
        <pt x="625" y="133" on="1"/>
        <pt x="625" y="89" on="0"/>
        <pt x="656" y="89" on="1"/>
        <pt x="683" y="92" on="1"/>
        <pt x="690" y="81" on="1"/>
        <pt x="671" y="-2" on="1"/>
        <pt x="616" y="-1" on="0"/>
        <pt x="552" y="0" on="1"/>
        <pt x="503" y="0" on="1"/>
        <pt x="339" y="-1" on="1"/>
        <pt x="357" y="86" on="1"/>
        <pt x="391" y="87" on="0"/>
        <pt x="425" y="121" on="0"/>
        <pt x="430" y="162" on="1"/>
        <pt x="443" y="264" on="1"/>
        <pt x="414" y="265" on="0"/>
        <pt x="390" y="265" on="1"/>
        <pt x="282" y="256" on="1"/>
        <pt x="267" y="131" on="0"/>
        <pt x="267" y="101" on="0"/>
        <pt x="278" y="87" on="0"/>
        <pt x="292" y="87" on="1"/>
        <pt x="318" y="90" on="1"/>
        <pt x="325" y="80" on="1"/>
        <pt x="306" y="-4" on="1"/>
        <pt x="185" y="0" on="0"/>
        <pt x="145" y="0" on="1"/>
        <pt x="-17" y="-5" on="1"/>
        <pt x="1" y="80" on="1"/>
        <pt x="40" y="88" on="0"/>
        <pt x="68" y="120" on="0"/>
        <pt x="73" y="162" on="1"/>
        <pt x="118" y="521" on="0"/>
        <pt x="118" y="543" on="0"/>
        <pt x="108" y="559" on="0"/>
        <pt x="88" y="559" on="1"/>
        <pt x="63" y="558" on="1"/>
        <pt x="56" y="572" on="1"/>
        <pt x="73" y="647" on="1"/>
        <pt x="199" y="647" on="1"/>
        <pt x="397" y="652" on="1"/>
        <pt x="379" y="562" on="1"/>
        <pt x="348" y="556" on="0"/>
        <pt x="326" y="537" on="0"/>
        <pt x="322" y="510" on="1"/>
        <pt x="302" y="389" on="1"/>
        <pt x="379" y="386" on="1"/>
        <pt x="432" y="386" on="0"/>
        <pt x="458" y="389" on="1"/>
        <pt x="475" y="521" on="0"/>
        <pt x="475" y="542" on="0"/>
        <pt x="465" y="559" on="0"/>
        <pt x="445" y="559" on="1"/>
        <pt x="419" y="558" on="1"/>
        <pt x="412" y="572" on="1"/>
        <pt x="429" y="647" on="1"/>
        <pt x="615" y="647" on="1"/>
        <pt x="762" y="652" on="1"/>
        <pt x="745" y="564" on="1"/>
        <pt x="709" y="558" on="0"/>
        <pt x="685" y="538" on="0"/>
        <pt x="667" y="446" on="0"/>
        <pt x="625" y="160" on="0"/>
      </contour>
    </TTGlyph>
    <TTGlyph name="Hbar" xMin="-17" yMin="-5" xMax="768" yMax="652">
      <contour>
        <pt x="680" y="510" on="1"/>
        <pt x="680" y="510" on="0"/>
        <pt x="679" y="506" on="1"/>
        <pt x="753" y="508" on="1"/>
        <pt x="768" y="493" on="1"/>
        <pt x="763" y="438" on="1"/>
        <pt x="667" y="437" on="1"/>
        <pt x="625" y="183" on="0"/>
        <pt x="625" y="89" on="0"/>
        <pt x="656" y="89" on="1"/>
        <pt x="683" y="92" on="1"/>
        <pt x="690" y="81" on="1"/>
        <pt x="671" y="-2" on="1"/>
        <pt x="616" y="-1" on="0"/>
        <pt x="552" y="0" on="1"/>
        <pt x="503" y="0" on="1"/>
        <pt x="339" y="-1" on="1"/>
        <pt x="357" y="86" on="1"/>
        <pt x="391" y="87" on="0"/>
        <pt x="425" y="121" on="0"/>
        <pt x="430" y="162" on="1"/>
        <pt x="443" y="264" on="1"/>
        <pt x="414" y="265" on="0"/>
        <pt x="390" y="265" on="1"/>
        <pt x="282" y="256" on="1"/>
        <pt x="267" y="131" on="0"/>
        <pt x="267" y="101" on="0"/>
        <pt x="278" y="87" on="0"/>
        <pt x="292" y="87" on="1"/>
        <pt x="318" y="90" on="1"/>
        <pt x="325" y="80" on="1"/>
        <pt x="306" y="-4" on="1"/>
        <pt x="185" y="0" on="0"/>
        <pt x="145" y="0" on="1"/>
        <pt x="-17" y="-5" on="1"/>
        <pt x="1" y="80" on="1"/>
        <pt x="40" y="88" on="0"/>
        <pt x="68" y="120" on="0"/>
        <pt x="73" y="162" on="1"/>
        <pt x="107" y="436" on="1"/>
        <pt x="26" y="436" on="1"/>
        <pt x="15" y="446" on="1"/>
        <pt x="23" y="504" on="1"/>
        <pt x="62" y="503" on="0"/>
        <pt x="115" y="503" on="1"/>
        <pt x="118" y="516" on="0"/>
        <pt x="118" y="543" on="0"/>
        <pt x="108" y="559" on="0"/>
        <pt x="88" y="559" on="1"/>
        <pt x="63" y="558" on="1"/>
        <pt x="56" y="572" on="1"/>
        <pt x="73" y="647" on="1"/>
        <pt x="199" y="647" on="1"/>
        <pt x="397" y="652" on="1"/>
        <pt x="379" y="562" on="1"/>
        <pt x="348" y="556" on="0"/>
        <pt x="326" y="537" on="0"/>
        <pt x="321" y="503" on="1"/>
        <pt x="472" y="503" on="1"/>
        <pt x="475" y="516" on="0"/>
        <pt x="475" y="542" on="0"/>
        <pt x="465" y="559" on="0"/>
        <pt x="445" y="559" on="1"/>
        <pt x="419" y="558" on="1"/>
        <pt x="412" y="572" on="1"/>
        <pt x="429" y="647" on="1"/>
        <pt x="615" y="647" on="1"/>
        <pt x="762" y="652" on="1"/>
        <pt x="745" y="564" on="1"/>
        <pt x="709" y="558" on="0"/>
        <pt x="685" y="538" on="0"/>
      </contour>
      <contour>
        <pt x="464" y="437" on="1"/>
        <pt x="310" y="437" on="1"/>
        <pt x="302" y="389" on="1"/>
        <pt x="379" y="386" on="1"/>
        <pt x="432" y="386" on="0"/>
        <pt x="458" y="389" on="1"/>
      </contour>
    </TTGlyph>
    <TTGlyph name="Hcircumflex" xMin="-17" yMin="-5" xMax="762" yMax="960">
      <contour>
        <pt x="625" y="133" on="1"/>
        <pt x="625" y="89" on="0"/>
        <pt x="656" y="89" on="1"/>
        <pt x="683" y="92" on="1"/>
        <pt x="690" y="81" on="1"/>
        <pt x="671" y="-2" on="1"/>
        <pt x="616" y="-1" on="0"/>
        <pt x="552" y="0" on="1"/>
        <pt x="503" y="0" on="1"/>
        <pt x="339" y="-1" on="1"/>
        <pt x="357" y="86" on="1"/>
        <pt x="391" y="87" on="0"/>
        <pt x="425" y="121" on="0"/>
        <pt x="430" y="162" on="1"/>
        <pt x="443" y="264" on="1"/>
        <pt x="414" y="265" on="0"/>
        <pt x="390" y="265" on="1"/>
        <pt x="282" y="256" on="1"/>
        <pt x="267" y="131" on="0"/>
        <pt x="267" y="101" on="0"/>
        <pt x="278" y="87" on="0"/>
        <pt x="292" y="87" on="1"/>
        <pt x="318" y="90" on="1"/>
        <pt x="325" y="80" on="1"/>
        <pt x="306" y="-4" on="1"/>
        <pt x="185" y="0" on="0"/>
        <pt x="145" y="0" on="1"/>
        <pt x="-17" y="-5" on="1"/>
        <pt x="1" y="80" on="1"/>
        <pt x="40" y="88" on="0"/>
        <pt x="68" y="120" on="0"/>
        <pt x="73" y="162" on="1"/>
        <pt x="118" y="521" on="0"/>
        <pt x="118" y="543" on="0"/>
        <pt x="108" y="559" on="0"/>
        <pt x="88" y="559" on="1"/>
        <pt x="63" y="558" on="1"/>
        <pt x="56" y="572" on="1"/>
        <pt x="73" y="647" on="1"/>
        <pt x="199" y="647" on="1"/>
        <pt x="397" y="652" on="1"/>
        <pt x="379" y="562" on="1"/>
        <pt x="348" y="556" on="0"/>
        <pt x="326" y="537" on="0"/>
        <pt x="322" y="510" on="1"/>
        <pt x="302" y="389" on="1"/>
        <pt x="379" y="386" on="1"/>
        <pt x="432" y="386" on="0"/>
        <pt x="458" y="389" on="1"/>
        <pt x="475" y="521" on="0"/>
        <pt x="475" y="542" on="0"/>
        <pt x="465" y="559" on="0"/>
        <pt x="445" y="559" on="1"/>
        <pt x="419" y="558" on="1"/>
        <pt x="412" y="572" on="1"/>
        <pt x="429" y="647" on="1"/>
        <pt x="615" y="647" on="1"/>
        <pt x="762" y="652" on="1"/>
        <pt x="745" y="564" on="1"/>
        <pt x="709" y="558" on="0"/>
        <pt x="685" y="538" on="0"/>
        <pt x="667" y="446" on="0"/>
        <pt x="625" y="160" on="0"/>
      </contour>
      <contour>
        <pt x="284" y="742" on="1"/>
        <pt x="246" y="804" on="1"/>
        <pt x="322" y="866" on="0"/>
        <pt x="428" y="960" on="1"/>
        <pt x="455" y="960" on="1"/>
        <pt x="531" y="873" on="0"/>
        <pt x="599" y="804" on="1"/>
        <pt x="546" y="742" on="1"/>
        <pt x="522" y="735" on="1"/>
        <pt x="495" y="756" on="0"/>
        <pt x="422" y="804" on="1"/>
        <pt x="350" y="764" on="0"/>
        <pt x="307" y="735" on="1"/>
      </contour>
    </TTGlyph>
    <TTGlyph name="I" xMin="-17" yMin="-5" xMax="402" yMax="652">
      <contour>
        <pt x="308" y="428" on="0"/>
        <pt x="267" y="152" on="0"/>
        <pt x="267" y="103" on="0"/>
        <pt x="278" y="87" on="0"/>
        <pt x="292" y="87" on="1"/>
        <pt x="323" y="90" on="1"/>
        <pt x="329" y="80" on="1"/>
        <pt x="310" y="-4" on="1"/>
        <pt x="188" y="0" on="0"/>
        <pt x="147" y="0" on="1"/>
        <pt x="-17" y="-5" on="1"/>
        <pt x="1" y="80" on="1"/>
        <pt x="41" y="89" on="0"/>
        <pt x="68" y="120" on="0"/>
        <pt x="73" y="162" on="1"/>
        <pt x="118" y="521" on="0"/>
        <pt x="118" y="543" on="0"/>
        <pt x="108" y="559" on="0"/>
        <pt x="88" y="559" on="1"/>
        <pt x="64" y="558" on="1"/>
        <pt x="56" y="572" on="1"/>
        <pt x="73" y="647" on="1"/>
        <pt x="232" y="647" on="1"/>
        <pt x="402" y="652" on="1"/>
        <pt x="384" y="562" on="1"/>
        <pt x="351" y="557" on="0"/>
        <pt x="329" y="538" on="0"/>
        <pt x="323" y="510" on="1"/>
      </contour>
    </TTGlyph>
    <TTGlyph name="IJ" xMin="-17" yMin="-164" xMax="746" yMax="655">
      <contour>
        <pt x="308" y="428" on="0"/>
        <pt x="267" y="152" on="0"/>
        <pt x="267" y="103" on="0"/>
        <pt x="278" y="87" on="0"/>
        <pt x="292" y="87" on="1"/>
        <pt x="323" y="90" on="1"/>
        <pt x="329" y="80" on="1"/>
        <pt x="310" y="-4" on="1"/>
        <pt x="188" y="0" on="0"/>
        <pt x="147" y="0" on="1"/>
        <pt x="-17" y="-5" on="1"/>
        <pt x="1" y="80" on="1"/>
        <pt x="41" y="89" on="0"/>
        <pt x="68" y="120" on="0"/>
        <pt x="73" y="162" on="1"/>
        <pt x="118" y="521" on="0"/>
        <pt x="118" y="543" on="0"/>
        <pt x="108" y="559" on="0"/>
        <pt x="88" y="559" on="1"/>
        <pt x="64" y="558" on="1"/>
        <pt x="56" y="572" on="1"/>
        <pt x="73" y="647" on="1"/>
        <pt x="232" y="647" on="1"/>
        <pt x="402" y="652" on="1"/>
        <pt x="384" y="562" on="1"/>
        <pt x="351" y="557" on="0"/>
        <pt x="329" y="538" on="0"/>
        <pt x="323" y="510" on="1"/>
      </contour>
      <contour>
        <pt x="421" y="132" on="1"/>
        <pt x="469" y="523" on="0"/>
        <pt x="469" y="544" on="0"/>
        <pt x="462" y="559" on="0"/>
        <pt x="443" y="559" on="1"/>
        <pt x="408" y="557" on="1"/>
        <pt x="401" y="571" on="1"/>
        <pt x="418" y="647" on="1"/>
        <pt x="557" y="648" on="1"/>
        <pt x="746" y="655" on="1"/>
        <pt x="726" y="562" on="1"/>
        <pt x="697" y="555" on="0"/>
        <pt x="680" y="538" on="0"/>
        <pt x="675" y="510" on="1"/>
        <pt x="644" y="353" on="0"/>
        <pt x="611" y="85" on="1"/>
        <pt x="597" y="-11" on="0"/>
        <pt x="460" y="-131" on="0"/>
        <pt x="324" y="-164" on="1"/>
        <pt x="289" y="-116" on="1"/>
        <pt x="293" y="-101" on="1"/>
        <pt x="358" y="-54" on="0"/>
        <pt x="408" y="35" on="0"/>
      </contour>
    </TTGlyph>
    <TTGlyph name="Iacute" xMin="-17" yMin="-5" xMax="402" yMax="875">
      <contour>
        <pt x="308" y="428" on="0"/>
        <pt x="267" y="152" on="0"/>
        <pt x="267" y="103" on="0"/>
        <pt x="278" y="87" on="0"/>
        <pt x="292" y="87" on="1"/>
        <pt x="323" y="90" on="1"/>
        <pt x="329" y="80" on="1"/>
        <pt x="310" y="-4" on="1"/>
        <pt x="188" y="0" on="0"/>
        <pt x="147" y="0" on="1"/>
        <pt x="-17" y="-5" on="1"/>
        <pt x="1" y="80" on="1"/>
        <pt x="41" y="89" on="0"/>
        <pt x="68" y="120" on="0"/>
        <pt x="73" y="162" on="1"/>
        <pt x="118" y="521" on="0"/>
        <pt x="118" y="543" on="0"/>
        <pt x="108" y="559" on="0"/>
        <pt x="88" y="559" on="1"/>
        <pt x="64" y="558" on="1"/>
        <pt x="56" y="572" on="1"/>
        <pt x="73" y="647" on="1"/>
        <pt x="232" y="647" on="1"/>
        <pt x="402" y="652" on="1"/>
        <pt x="384" y="562" on="1"/>
        <pt x="351" y="557" on="0"/>
        <pt x="329" y="538" on="0"/>
        <pt x="323" y="510" on="1"/>
      </contour>
      <contour>
        <pt x="397" y="762" on="1"/>
        <pt x="390" y="746" on="1"/>
        <pt x="260" y="722" on="0"/>
        <pt x="136" y="691" on="1"/>
        <pt x="117" y="704" on="1"/>
        <pt x="96" y="775" on="1"/>
        <pt x="199" y="813" on="0"/>
        <pt x="345" y="875" on="1"/>
        <pt x="361" y="870" on="1"/>
      </contour>
    </TTGlyph>
    <TTGlyph name="Ibreve" xMin="-17" yMin="-5" xMax="430" yMax="900">
      <contour>
        <pt x="308" y="428" on="0"/>
        <pt x="267" y="152" on="0"/>
        <pt x="267" y="103" on="0"/>
        <pt x="278" y="87" on="0"/>
        <pt x="292" y="87" on="1"/>
        <pt x="323" y="90" on="1"/>
        <pt x="329" y="80" on="1"/>
        <pt x="310" y="-4" on="1"/>
        <pt x="188" y="0" on="0"/>
        <pt x="147" y="0" on="1"/>
        <pt x="-17" y="-5" on="1"/>
        <pt x="1" y="80" on="1"/>
        <pt x="41" y="89" on="0"/>
        <pt x="68" y="120" on="0"/>
        <pt x="73" y="162" on="1"/>
        <pt x="118" y="521" on="0"/>
        <pt x="118" y="543" on="0"/>
        <pt x="108" y="559" on="0"/>
        <pt x="88" y="559" on="1"/>
        <pt x="64" y="558" on="1"/>
        <pt x="56" y="572" on="1"/>
        <pt x="73" y="647" on="1"/>
        <pt x="232" y="647" on="1"/>
        <pt x="402" y="652" on="1"/>
        <pt x="384" y="562" on="1"/>
        <pt x="351" y="557" on="0"/>
        <pt x="329" y="538" on="0"/>
        <pt x="323" y="510" on="1"/>
      </contour>
      <contour>
        <pt x="254" y="830" on="1"/>
        <pt x="333" y="830" on="0"/>
        <pt x="372" y="900" on="1"/>
        <pt x="398" y="893" on="1"/>
        <pt x="430" y="831" on="1"/>
        <pt x="405" y="773" on="0"/>
        <pt x="308" y="695" on="0"/>
        <pt x="168" y="695" on="0"/>
        <pt x="89" y="773" on="0"/>
        <pt x="79" y="831" on="1"/>
        <pt x="127" y="893" on="1"/>
        <pt x="155" y="900" on="1"/>
        <pt x="164" y="866" on="0"/>
        <pt x="218" y="830" on="0"/>
      </contour>
    </TTGlyph>
    <TTGlyph name="Icircumflex" xMin="-17" yMin="-5" xMax="433" yMax="908">
      <contour>
        <pt x="308" y="428" on="0"/>
        <pt x="267" y="152" on="0"/>
        <pt x="267" y="103" on="0"/>
        <pt x="278" y="87" on="0"/>
        <pt x="292" y="87" on="1"/>
        <pt x="323" y="90" on="1"/>
        <pt x="329" y="80" on="1"/>
        <pt x="310" y="-4" on="1"/>
        <pt x="188" y="0" on="0"/>
        <pt x="147" y="0" on="1"/>
        <pt x="-17" y="-5" on="1"/>
        <pt x="1" y="80" on="1"/>
        <pt x="41" y="89" on="0"/>
        <pt x="68" y="120" on="0"/>
        <pt x="73" y="162" on="1"/>
        <pt x="118" y="521" on="0"/>
        <pt x="118" y="543" on="0"/>
        <pt x="108" y="559" on="0"/>
        <pt x="88" y="559" on="1"/>
        <pt x="64" y="558" on="1"/>
        <pt x="56" y="572" on="1"/>
        <pt x="73" y="647" on="1"/>
        <pt x="232" y="647" on="1"/>
        <pt x="402" y="652" on="1"/>
        <pt x="384" y="562" on="1"/>
        <pt x="351" y="557" on="0"/>
        <pt x="329" y="538" on="0"/>
        <pt x="323" y="510" on="1"/>
      </contour>
      <contour>
        <pt x="277" y="908" on="1"/>
        <pt x="277" y="911" on="0"/>
        <pt x="403" y="796" on="0"/>
        <pt x="433" y="770" on="1"/>
        <pt x="390" y="708" on="1"/>
        <pt x="366" y="701" on="1"/>
        <pt x="322" y="721" on="0"/>
        <pt x="244" y="752" on="1"/>
        <pt x="194" y="734" on="0"/>
        <pt x="110" y="701" on="1"/>
        <pt x="88" y="708" on="1"/>
        <pt x="60" y="770" on="1"/>
        <pt x="140" y="824" on="0"/>
        <pt x="250" y="908" on="1"/>
      </contour>
    </TTGlyph>
    <TTGlyph name="Idieresis" xMin="-17" yMin="-5" xMax="424" yMax="862">
      <contour>
        <pt x="308" y="428" on="0"/>
        <pt x="267" y="152" on="0"/>
        <pt x="267" y="103" on="0"/>
        <pt x="278" y="87" on="0"/>
        <pt x="292" y="87" on="1"/>
        <pt x="323" y="90" on="1"/>
        <pt x="329" y="80" on="1"/>
        <pt x="310" y="-4" on="1"/>
        <pt x="188" y="0" on="0"/>
        <pt x="147" y="0" on="1"/>
        <pt x="-17" y="-5" on="1"/>
        <pt x="1" y="80" on="1"/>
        <pt x="41" y="89" on="0"/>
        <pt x="68" y="120" on="0"/>
        <pt x="73" y="162" on="1"/>
        <pt x="118" y="521" on="0"/>
        <pt x="118" y="543" on="0"/>
        <pt x="108" y="559" on="0"/>
        <pt x="88" y="559" on="1"/>
        <pt x="64" y="558" on="1"/>
        <pt x="56" y="572" on="1"/>
        <pt x="73" y="647" on="1"/>
        <pt x="232" y="647" on="1"/>
        <pt x="402" y="652" on="1"/>
        <pt x="384" y="562" on="1"/>
        <pt x="351" y="557" on="0"/>
        <pt x="329" y="538" on="0"/>
        <pt x="323" y="510" on="1"/>
      </contour>
      <contour>
        <pt x="328" y="695" on="1"/>
        <pt x="257" y="695" on="0"/>
        <pt x="257" y="762" on="1"/>
        <pt x="257" y="807" on="0"/>
        <pt x="310" y="862" on="0"/>
        <pt x="349" y="862" on="1"/>
        <pt x="424" y="862" on="0"/>
        <pt x="424" y="794" on="1"/>
        <pt x="424" y="750" on="0"/>
        <pt x="371" y="695" on="0"/>
      </contour>
      <contour>
        <pt x="140" y="695" on="1"/>
        <pt x="70" y="695" on="0"/>
        <pt x="70" y="762" on="1"/>
        <pt x="70" y="807" on="0"/>
        <pt x="123" y="862" on="0"/>
        <pt x="162" y="862" on="1"/>
        <pt x="236" y="862" on="0"/>
        <pt x="236" y="794" on="1"/>
        <pt x="236" y="750" on="0"/>
        <pt x="183" y="695" on="0"/>
      </contour>
    </TTGlyph>
    <TTGlyph name="Idotaccent" xMin="-17" yMin="-5" xMax="402" yMax="882">
      <contour>
        <pt x="308" y="428" on="0"/>
        <pt x="267" y="152" on="0"/>
        <pt x="267" y="103" on="0"/>
        <pt x="278" y="87" on="0"/>
        <pt x="292" y="87" on="1"/>
        <pt x="323" y="90" on="1"/>
        <pt x="329" y="80" on="1"/>
        <pt x="310" y="-4" on="1"/>
        <pt x="188" y="0" on="0"/>
        <pt x="147" y="0" on="1"/>
        <pt x="-17" y="-5" on="1"/>
        <pt x="1" y="80" on="1"/>
        <pt x="41" y="89" on="0"/>
        <pt x="68" y="120" on="0"/>
        <pt x="73" y="162" on="1"/>
        <pt x="118" y="521" on="0"/>
        <pt x="118" y="543" on="0"/>
        <pt x="108" y="559" on="0"/>
        <pt x="88" y="559" on="1"/>
        <pt x="64" y="558" on="1"/>
        <pt x="56" y="572" on="1"/>
        <pt x="73" y="647" on="1"/>
        <pt x="232" y="647" on="1"/>
        <pt x="402" y="652" on="1"/>
        <pt x="384" y="562" on="1"/>
        <pt x="351" y="557" on="0"/>
        <pt x="329" y="538" on="0"/>
        <pt x="323" y="510" on="1"/>
      </contour>
      <contour>
        <pt x="348" y="748" on="0"/>
        <pt x="285" y="683" on="0"/>
        <pt x="240" y="683" on="1"/>
        <pt x="151" y="683" on="0"/>
        <pt x="151" y="763" on="1"/>
        <pt x="151" y="817" on="0"/>
        <pt x="214" y="882" on="0"/>
        <pt x="260" y="882" on="1"/>
        <pt x="348" y="882" on="0"/>
        <pt x="348" y="801" on="1"/>
      </contour>
    </TTGlyph>
    <TTGlyph name="Igrave" xMin="-17" yMin="-5" xMax="402" yMax="875">
      <contour>
        <pt x="308" y="428" on="0"/>
        <pt x="267" y="152" on="0"/>
        <pt x="267" y="103" on="0"/>
        <pt x="278" y="87" on="0"/>
        <pt x="292" y="87" on="1"/>
        <pt x="323" y="90" on="1"/>
        <pt x="329" y="80" on="1"/>
        <pt x="310" y="-4" on="1"/>
        <pt x="188" y="0" on="0"/>
        <pt x="147" y="0" on="1"/>
        <pt x="-17" y="-5" on="1"/>
        <pt x="1" y="80" on="1"/>
        <pt x="41" y="89" on="0"/>
        <pt x="68" y="120" on="0"/>
        <pt x="73" y="162" on="1"/>
        <pt x="118" y="521" on="0"/>
        <pt x="118" y="543" on="0"/>
        <pt x="108" y="559" on="0"/>
        <pt x="88" y="559" on="1"/>
        <pt x="64" y="558" on="1"/>
        <pt x="56" y="572" on="1"/>
        <pt x="73" y="647" on="1"/>
        <pt x="232" y="647" on="1"/>
        <pt x="402" y="652" on="1"/>
        <pt x="384" y="562" on="1"/>
        <pt x="351" y="557" on="0"/>
        <pt x="329" y="538" on="0"/>
        <pt x="323" y="510" on="1"/>
      </contour>
      <contour>
        <pt x="89" y="746" on="1"/>
        <pt x="82" y="762" on="1"/>
        <pt x="118" y="870" on="1"/>
        <pt x="134" y="875" on="1"/>
        <pt x="260" y="821" on="0"/>
        <pt x="383" y="775" on="1"/>
        <pt x="362" y="704" on="1"/>
        <pt x="343" y="691" on="1"/>
        <pt x="250" y="715" on="0"/>
      </contour>
    </TTGlyph>
    <TTGlyph name="Imacron" xMin="-17" yMin="-5" xMax="406" yMax="823">
      <contour>
        <pt x="308" y="428" on="0"/>
        <pt x="267" y="152" on="0"/>
        <pt x="267" y="103" on="0"/>
        <pt x="278" y="87" on="0"/>
        <pt x="292" y="87" on="1"/>
        <pt x="323" y="90" on="1"/>
        <pt x="329" y="80" on="1"/>
        <pt x="310" y="-4" on="1"/>
        <pt x="188" y="0" on="0"/>
        <pt x="147" y="0" on="1"/>
        <pt x="-17" y="-5" on="1"/>
        <pt x="1" y="80" on="1"/>
        <pt x="41" y="89" on="0"/>
        <pt x="68" y="120" on="0"/>
        <pt x="73" y="162" on="1"/>
        <pt x="118" y="521" on="0"/>
        <pt x="118" y="543" on="0"/>
        <pt x="108" y="559" on="0"/>
        <pt x="88" y="559" on="1"/>
        <pt x="64" y="558" on="1"/>
        <pt x="56" y="572" on="1"/>
        <pt x="73" y="647" on="1"/>
        <pt x="232" y="647" on="1"/>
        <pt x="402" y="652" on="1"/>
        <pt x="384" y="562" on="1"/>
        <pt x="351" y="557" on="0"/>
        <pt x="329" y="538" on="0"/>
        <pt x="323" y="510" on="1"/>
      </contour>
      <contour>
        <pt x="397" y="823" on="1"/>
        <pt x="406" y="805" on="1"/>
        <pt x="374" y="696" on="1"/>
        <pt x="109" y="694" on="1"/>
        <pt x="95" y="709" on="1"/>
        <pt x="127" y="818" on="1"/>
        <pt x="219" y="817" on="0"/>
        <pt x="276" y="817" on="1"/>
      </contour>
    </TTGlyph>
    <TTGlyph name="Iogonek" xMin="-17" yMin="-242" xMax="402" yMax="652">
      <contour>
        <pt x="146" y="-242" on="0"/>
        <pt x="84" y="-199" on="0"/>
        <pt x="84" y="-128" on="0"/>
        <pt x="126" y="-59" on="0"/>
        <pt x="188" y="0" on="1"/>
        <pt x="147" y="0" on="1"/>
        <pt x="-17" y="-5" on="1"/>
        <pt x="1" y="80" on="1"/>
        <pt x="41" y="89" on="0"/>
        <pt x="68" y="120" on="0"/>
        <pt x="73" y="162" on="1"/>
        <pt x="118" y="521" on="0"/>
        <pt x="118" y="543" on="0"/>
        <pt x="108" y="559" on="0"/>
        <pt x="88" y="559" on="1"/>
        <pt x="64" y="558" on="1"/>
        <pt x="56" y="572" on="1"/>
        <pt x="73" y="647" on="1"/>
        <pt x="232" y="647" on="1"/>
        <pt x="402" y="652" on="1"/>
        <pt x="384" y="562" on="1"/>
        <pt x="351" y="557" on="0"/>
        <pt x="329" y="538" on="0"/>
        <pt x="323" y="510" on="1"/>
        <pt x="308" y="428" on="0"/>
        <pt x="267" y="152" on="0"/>
        <pt x="267" y="103" on="0"/>
        <pt x="278" y="87" on="0"/>
        <pt x="292" y="87" on="1"/>
        <pt x="323" y="90" on="1"/>
        <pt x="329" y="80" on="1"/>
        <pt x="310" y="-4" on="1"/>
        <pt x="288" y="-3" on="0"/>
        <pt x="264" y="-2" on="1"/>
        <pt x="220" y="-55" on="0"/>
        <pt x="192" y="-102" on="0"/>
        <pt x="192" y="-136" on="0"/>
        <pt x="210" y="-155" on="0"/>
        <pt x="224" y="-155" on="1"/>
        <pt x="247" y="-155" on="0"/>
        <pt x="291" y="-130" on="1"/>
        <pt x="312" y="-170" on="1"/>
        <pt x="250" y="-224" on="0"/>
        <pt x="202" y="-242" on="1"/>
      </contour>
    </TTGlyph>
    <TTGlyph name="Itilde" xMin="-17" yMin="-5" xMax="448" yMax="913">
      <contour>
        <pt x="308" y="428" on="0"/>
        <pt x="267" y="152" on="0"/>
        <pt x="267" y="103" on="0"/>
        <pt x="278" y="87" on="0"/>
        <pt x="292" y="87" on="1"/>
        <pt x="323" y="90" on="1"/>
        <pt x="329" y="80" on="1"/>
        <pt x="310" y="-4" on="1"/>
        <pt x="188" y="0" on="0"/>
        <pt x="147" y="0" on="1"/>
        <pt x="-17" y="-5" on="1"/>
        <pt x="1" y="80" on="1"/>
        <pt x="41" y="89" on="0"/>
        <pt x="68" y="120" on="0"/>
        <pt x="73" y="162" on="1"/>
        <pt x="118" y="521" on="0"/>
        <pt x="118" y="543" on="0"/>
        <pt x="108" y="559" on="0"/>
        <pt x="88" y="559" on="1"/>
        <pt x="64" y="558" on="1"/>
        <pt x="56" y="572" on="1"/>
        <pt x="73" y="647" on="1"/>
        <pt x="232" y="647" on="1"/>
        <pt x="402" y="652" on="1"/>
        <pt x="384" y="562" on="1"/>
        <pt x="351" y="557" on="0"/>
        <pt x="329" y="538" on="0"/>
        <pt x="323" y="510" on="1"/>
      </contour>
      <contour>
        <pt x="179" y="889" on="0"/>
        <pt x="293" y="855" on="0"/>
        <pt x="305" y="855" on="1"/>
        <pt x="327" y="855" on="0"/>
        <pt x="366" y="898" on="1"/>
        <pt x="379" y="913" on="1"/>
        <pt x="395" y="913" on="1"/>
        <pt x="448" y="859" on="1"/>
        <pt x="446" y="843" on="1"/>
        <pt x="353" y="728" on="1"/>
        <pt x="336" y="724" on="1"/>
        <pt x="318" y="724" on="0"/>
        <pt x="204" y="758" on="0"/>
        <pt x="179" y="758" on="0"/>
        <pt x="143" y="729" on="0"/>
        <pt x="118" y="700" on="1"/>
        <pt x="102" y="700" on="1"/>
        <pt x="49" y="754" on="1"/>
        <pt x="51" y="770" on="1"/>
        <pt x="144" y="885" on="1"/>
        <pt x="161" y="889" on="1"/>
      </contour>
    </TTGlyph>
    <TTGlyph name="J" xMin="-70" yMin="-164" xMax="387" yMax="655">
      <contour>
        <pt x="62" y="132" on="1"/>
        <pt x="110" y="523" on="0"/>
        <pt x="110" y="544" on="0"/>
        <pt x="103" y="559" on="0"/>
        <pt x="84" y="559" on="1"/>
        <pt x="49" y="557" on="1"/>
        <pt x="42" y="571" on="1"/>
        <pt x="59" y="647" on="1"/>
        <pt x="198" y="648" on="1"/>
        <pt x="387" y="655" on="1"/>
        <pt x="367" y="562" on="1"/>
        <pt x="338" y="555" on="0"/>
        <pt x="321" y="538" on="0"/>
        <pt x="316" y="510" on="1"/>
        <pt x="285" y="353" on="0"/>
        <pt x="252" y="85" on="1"/>
        <pt x="238" y="-11" on="0"/>
        <pt x="101" y="-131" on="0"/>
        <pt x="-35" y="-164" on="1"/>
        <pt x="-70" y="-116" on="1"/>
        <pt x="-66" y="-101" on="1"/>
        <pt x="-1" y="-54" on="0"/>
        <pt x="49" y="35" on="0"/>
      </contour>
    </TTGlyph>
    <TTGlyph name="Jcircumflex" xMin="-70" yMin="-164" xMax="419" yMax="934">
      <contour>
        <pt x="62" y="132" on="1"/>
        <pt x="110" y="523" on="0"/>
        <pt x="110" y="544" on="0"/>
        <pt x="103" y="559" on="0"/>
        <pt x="84" y="559" on="1"/>
        <pt x="49" y="557" on="1"/>
        <pt x="42" y="571" on="1"/>
        <pt x="59" y="647" on="1"/>
        <pt x="198" y="648" on="1"/>
        <pt x="387" y="655" on="1"/>
        <pt x="367" y="562" on="1"/>
        <pt x="338" y="555" on="0"/>
        <pt x="321" y="538" on="0"/>
        <pt x="316" y="510" on="1"/>
        <pt x="285" y="353" on="0"/>
        <pt x="252" y="85" on="1"/>
        <pt x="238" y="-11" on="0"/>
        <pt x="101" y="-131" on="0"/>
        <pt x="-35" y="-164" on="1"/>
        <pt x="-70" y="-116" on="1"/>
        <pt x="-66" y="-101" on="1"/>
        <pt x="-1" y="-54" on="0"/>
        <pt x="49" y="35" on="0"/>
      </contour>
      <contour>
        <pt x="104" y="716" on="1"/>
        <pt x="66" y="778" on="1"/>
        <pt x="142" y="840" on="0"/>
        <pt x="248" y="934" on="1"/>
        <pt x="275" y="934" on="1"/>
        <pt x="351" y="847" on="0"/>
        <pt x="419" y="778" on="1"/>
        <pt x="366" y="716" on="1"/>
        <pt x="342" y="709" on="1"/>
        <pt x="315" y="730" on="0"/>
        <pt x="242" y="778" on="1"/>
        <pt x="170" y="738" on="0"/>
        <pt x="127" y="709" on="1"/>
      </contour>
    </TTGlyph>
    <TTGlyph name="K" xMin="-17" yMin="-16" xMax="723" yMax="652">
      <contour>
        <pt x="73" y="162" on="1"/>
        <pt x="118" y="521" on="0"/>
        <pt x="118" y="543" on="0"/>
        <pt x="108" y="559" on="0"/>
        <pt x="88" y="559" on="1"/>
        <pt x="63" y="558" on="1"/>
        <pt x="56" y="572" on="1"/>
        <pt x="74" y="648" on="1"/>
        <pt x="215" y="647" on="0"/>
        <pt x="232" y="647" on="1"/>
        <pt x="403" y="652" on="1"/>
        <pt x="385" y="562" on="1"/>
        <pt x="347" y="552" on="0"/>
        <pt x="322" y="531" on="0"/>
        <pt x="320" y="506" on="1"/>
        <pt x="270" y="156" on="1"/>
        <pt x="267" y="133" on="0"/>
        <pt x="267" y="107" on="0"/>
        <pt x="269" y="101" on="1"/>
        <pt x="273" y="87" on="0"/>
        <pt x="292" y="87" on="1"/>
        <pt x="323" y="90" on="1"/>
        <pt x="330" y="80" on="1"/>
        <pt x="311" y="-4" on="1"/>
        <pt x="188" y="0" on="0"/>
        <pt x="147" y="0" on="1"/>
        <pt x="-17" y="-5" on="1"/>
        <pt x="1" y="80" on="1"/>
        <pt x="40" y="88" on="0"/>
        <pt x="69" y="120" on="0"/>
      </contour>
      <contour>
        <pt x="454" y="532" on="1"/>
        <pt x="454" y="545" on="0"/>
        <pt x="438" y="557" on="0"/>
        <pt x="419" y="558" on="1"/>
        <pt x="414" y="568" on="1"/>
        <pt x="433" y="650" on="1"/>
        <pt x="528" y="647" on="0"/>
        <pt x="573" y="647" on="1"/>
        <pt x="716" y="652" on="1"/>
        <pt x="723" y="637" on="1"/>
        <pt x="705" y="562" on="1"/>
        <pt x="627" y="519" on="0"/>
        <pt x="561" y="435" on="1"/>
        <pt x="501" y="356" on="1"/>
        <pt x="566" y="174" on="1"/>
        <pt x="582" y="130" on="0"/>
        <pt x="619" y="89" on="0"/>
        <pt x="648" y="84" on="1"/>
        <pt x="657" y="69" on="1"/>
        <pt x="637" y="-5" on="1"/>
        <pt x="508" y="-16" on="0"/>
        <pt x="445" y="-16" on="0"/>
        <pt x="404" y="19" on="0"/>
        <pt x="387" y="65" on="1"/>
        <pt x="298" y="317" on="1"/>
        <pt x="307" y="347" on="1"/>
        <pt x="420" y="472" on="1"/>
        <pt x="454" y="508" on="0"/>
      </contour>
    </TTGlyph>
    <TTGlyph name="Kcommaaccent" xMin="-17" yMin="-345" xMax="723" yMax="652">
      <contour>
        <pt x="73" y="162" on="1"/>
        <pt x="118" y="521" on="0"/>
        <pt x="118" y="543" on="0"/>
        <pt x="108" y="559" on="0"/>
        <pt x="88" y="559" on="1"/>
        <pt x="63" y="558" on="1"/>
        <pt x="56" y="572" on="1"/>
        <pt x="74" y="648" on="1"/>
        <pt x="215" y="647" on="0"/>
        <pt x="232" y="647" on="1"/>
        <pt x="403" y="652" on="1"/>
        <pt x="385" y="562" on="1"/>
        <pt x="347" y="552" on="0"/>
        <pt x="322" y="531" on="0"/>
        <pt x="320" y="506" on="1"/>
        <pt x="270" y="156" on="1"/>
        <pt x="267" y="133" on="0"/>
        <pt x="267" y="107" on="0"/>
        <pt x="269" y="101" on="1"/>
        <pt x="273" y="87" on="0"/>
        <pt x="292" y="87" on="1"/>
        <pt x="323" y="90" on="1"/>
        <pt x="330" y="80" on="1"/>
        <pt x="311" y="-4" on="1"/>
        <pt x="188" y="0" on="0"/>
        <pt x="147" y="0" on="1"/>
        <pt x="-17" y="-5" on="1"/>
        <pt x="1" y="80" on="1"/>
        <pt x="40" y="88" on="0"/>
        <pt x="69" y="120" on="0"/>
      </contour>
      <contour>
        <pt x="454" y="532" on="1"/>
        <pt x="454" y="545" on="0"/>
        <pt x="438" y="557" on="0"/>
        <pt x="419" y="558" on="1"/>
        <pt x="414" y="568" on="1"/>
        <pt x="433" y="650" on="1"/>
        <pt x="528" y="647" on="0"/>
        <pt x="573" y="647" on="1"/>
        <pt x="716" y="652" on="1"/>
        <pt x="723" y="637" on="1"/>
        <pt x="705" y="562" on="1"/>
        <pt x="627" y="519" on="0"/>
        <pt x="561" y="435" on="1"/>
        <pt x="501" y="356" on="1"/>
        <pt x="566" y="174" on="1"/>
        <pt x="582" y="130" on="0"/>
        <pt x="619" y="89" on="0"/>
        <pt x="648" y="84" on="1"/>
        <pt x="657" y="69" on="1"/>
        <pt x="637" y="-5" on="1"/>
        <pt x="508" y="-16" on="0"/>
        <pt x="445" y="-16" on="0"/>
        <pt x="404" y="19" on="0"/>
        <pt x="387" y="65" on="1"/>
        <pt x="298" y="317" on="1"/>
        <pt x="307" y="347" on="1"/>
        <pt x="420" y="472" on="1"/>
        <pt x="454" y="508" on="0"/>
      </contour>
      <contour>
        <pt x="220" y="-78" on="1"/>
        <pt x="277" y="-34" on="0"/>
        <pt x="360" y="-34" on="0"/>
        <pt x="407" y="-89" on="0"/>
        <pt x="407" y="-188" on="0"/>
        <pt x="317" y="-301" on="0"/>
        <pt x="240" y="-345" on="1"/>
        <pt x="182" y="-299" on="1"/>
        <pt x="182" y="-274" on="1"/>
        <pt x="211" y="-253" on="0"/>
        <pt x="246" y="-195" on="0"/>
        <pt x="246" y="-124" on="0"/>
        <pt x="217" y="-92" on="1"/>
      </contour>
    </TTGlyph>
    <TTGlyph name="L" xMin="-20" yMin="-10" xMax="548" yMax="652">
      <contour>
        <pt x="475" y="-7" on="1"/>
        <pt x="331" y="0" on="0"/>
        <pt x="238" y="0" on="1"/>
        <pt x="100" y="0" on="0"/>
        <pt x="-20" y="-10" on="1"/>
        <pt x="0" y="82" on="1"/>
        <pt x="37" y="88" on="0"/>
        <pt x="68" y="125" on="0"/>
        <pt x="73" y="170" on="1"/>
        <pt x="117" y="521" on="0"/>
        <pt x="117" y="543" on="0"/>
        <pt x="107" y="559" on="0"/>
        <pt x="87" y="559" on="1"/>
        <pt x="62" y="558" on="1"/>
        <pt x="55" y="572" on="1"/>
        <pt x="72" y="647" on="1"/>
        <pt x="231" y="647" on="1"/>
        <pt x="437" y="652" on="1"/>
        <pt x="414" y="554" on="1"/>
        <pt x="363" y="549" on="0"/>
        <pt x="325" y="528" on="0"/>
        <pt x="321" y="502" on="1"/>
        <pt x="269" y="210" on="0"/>
        <pt x="269" y="147" on="1"/>
        <pt x="269" y="115" on="0"/>
        <pt x="298" y="115" on="1"/>
        <pt x="348" y="115" on="0"/>
        <pt x="391" y="178" on="0"/>
        <pt x="408" y="278" on="1"/>
        <pt x="538" y="291" on="1"/>
        <pt x="548" y="276" on="1"/>
        <pt x="518" y="148" on="0"/>
        <pt x="492" y="9" on="1"/>
      </contour>
    </TTGlyph>
    <TTGlyph name="Lacute" xMin="-20" yMin="-10" xMax="548" yMax="875">
      <contour>
        <pt x="475" y="-7" on="1"/>
        <pt x="331" y="0" on="0"/>
        <pt x="238" y="0" on="1"/>
        <pt x="100" y="0" on="0"/>
        <pt x="-20" y="-10" on="1"/>
        <pt x="0" y="82" on="1"/>
        <pt x="37" y="88" on="0"/>
        <pt x="68" y="125" on="0"/>
        <pt x="73" y="170" on="1"/>
        <pt x="117" y="521" on="0"/>
        <pt x="117" y="543" on="0"/>
        <pt x="107" y="559" on="0"/>
        <pt x="87" y="559" on="1"/>
        <pt x="62" y="558" on="1"/>
        <pt x="55" y="572" on="1"/>
        <pt x="72" y="647" on="1"/>
        <pt x="231" y="647" on="1"/>
        <pt x="437" y="652" on="1"/>
        <pt x="414" y="554" on="1"/>
        <pt x="363" y="549" on="0"/>
        <pt x="325" y="528" on="0"/>
        <pt x="321" y="502" on="1"/>
        <pt x="269" y="210" on="0"/>
        <pt x="269" y="147" on="1"/>
        <pt x="269" y="115" on="0"/>
        <pt x="298" y="115" on="1"/>
        <pt x="348" y="115" on="0"/>
        <pt x="391" y="178" on="0"/>
        <pt x="408" y="278" on="1"/>
        <pt x="538" y="291" on="1"/>
        <pt x="548" y="276" on="1"/>
        <pt x="518" y="148" on="0"/>
        <pt x="492" y="9" on="1"/>
      </contour>
      <contour>
        <pt x="401" y="762" on="1"/>
        <pt x="394" y="746" on="1"/>
        <pt x="264" y="722" on="0"/>
        <pt x="140" y="691" on="1"/>
        <pt x="121" y="704" on="1"/>
        <pt x="100" y="775" on="1"/>
        <pt x="203" y="813" on="0"/>
        <pt x="349" y="875" on="1"/>
        <pt x="365" y="870" on="1"/>
      </contour>
    </TTGlyph>
    <TTGlyph name="Lcaron" xMin="-20" yMin="-10" xMax="612" yMax="652">
      <contour>
        <pt x="478" y="395" on="1"/>
        <pt x="478" y="410" on="0"/>
        <pt x="478" y="438" on="1"/>
        <pt x="478" y="510" on="0"/>
        <pt x="469" y="633" on="1"/>
        <pt x="603" y="647" on="1"/>
        <pt x="612" y="635" on="1"/>
        <pt x="596" y="526" on="0"/>
        <pt x="570" y="414" on="1"/>
        <pt x="497" y="389" on="1"/>
      </contour>
      <contour>
        <pt x="475" y="-7" on="1"/>
        <pt x="331" y="0" on="0"/>
        <pt x="238" y="0" on="1"/>
        <pt x="100" y="0" on="0"/>
        <pt x="-20" y="-10" on="1"/>
        <pt x="0" y="82" on="1"/>
        <pt x="37" y="88" on="0"/>
        <pt x="68" y="125" on="0"/>
        <pt x="73" y="170" on="1"/>
        <pt x="117" y="521" on="0"/>
        <pt x="117" y="543" on="0"/>
        <pt x="107" y="559" on="0"/>
        <pt x="87" y="559" on="1"/>
        <pt x="62" y="558" on="1"/>
        <pt x="55" y="572" on="1"/>
        <pt x="72" y="647" on="1"/>
        <pt x="231" y="647" on="1"/>
        <pt x="437" y="652" on="1"/>
        <pt x="414" y="554" on="1"/>
        <pt x="363" y="549" on="0"/>
        <pt x="325" y="528" on="0"/>
        <pt x="321" y="502" on="1"/>
        <pt x="269" y="210" on="0"/>
        <pt x="269" y="147" on="1"/>
        <pt x="269" y="115" on="0"/>
        <pt x="298" y="115" on="1"/>
        <pt x="348" y="115" on="0"/>
        <pt x="391" y="178" on="0"/>
        <pt x="408" y="278" on="1"/>
        <pt x="538" y="291" on="1"/>
        <pt x="548" y="276" on="1"/>
        <pt x="518" y="148" on="0"/>
        <pt x="492" y="9" on="1"/>
      </contour>
    </TTGlyph>
    <TTGlyph name="Lcommaaccent" xMin="-20" yMin="-345" xMax="548" yMax="652">
      <contour>
        <pt x="475" y="-7" on="1"/>
        <pt x="331" y="0" on="0"/>
        <pt x="238" y="0" on="1"/>
        <pt x="100" y="0" on="0"/>
        <pt x="-20" y="-10" on="1"/>
        <pt x="0" y="82" on="1"/>
        <pt x="37" y="88" on="0"/>
        <pt x="68" y="125" on="0"/>
        <pt x="73" y="170" on="1"/>
        <pt x="117" y="521" on="0"/>
        <pt x="117" y="543" on="0"/>
        <pt x="107" y="559" on="0"/>
        <pt x="87" y="559" on="1"/>
        <pt x="62" y="558" on="1"/>
        <pt x="55" y="572" on="1"/>
        <pt x="72" y="647" on="1"/>
        <pt x="231" y="647" on="1"/>
        <pt x="437" y="652" on="1"/>
        <pt x="414" y="554" on="1"/>
        <pt x="363" y="549" on="0"/>
        <pt x="325" y="528" on="0"/>
        <pt x="321" y="502" on="1"/>
        <pt x="269" y="210" on="0"/>
        <pt x="269" y="147" on="1"/>
        <pt x="269" y="115" on="0"/>
        <pt x="298" y="115" on="1"/>
        <pt x="348" y="115" on="0"/>
        <pt x="391" y="178" on="0"/>
        <pt x="408" y="278" on="1"/>
        <pt x="538" y="291" on="1"/>
        <pt x="548" y="276" on="1"/>
        <pt x="518" y="148" on="0"/>
        <pt x="492" y="9" on="1"/>
      </contour>
      <contour>
        <pt x="135" y="-78" on="1"/>
        <pt x="192" y="-34" on="0"/>
        <pt x="275" y="-34" on="0"/>
        <pt x="322" y="-89" on="0"/>
        <pt x="322" y="-188" on="0"/>
        <pt x="232" y="-301" on="0"/>
        <pt x="155" y="-345" on="1"/>
        <pt x="97" y="-299" on="1"/>
        <pt x="97" y="-274" on="1"/>
        <pt x="126" y="-253" on="0"/>
        <pt x="161" y="-195" on="0"/>
        <pt x="161" y="-124" on="0"/>
        <pt x="132" y="-92" on="1"/>
      </contour>
    </TTGlyph>
    <TTGlyph name="Ldot" xMin="-20" yMin="-10" xMax="611" yMax="652">
      <contour>
        <pt x="475" y="-7" on="1"/>
        <pt x="331" y="0" on="0"/>
        <pt x="238" y="0" on="1"/>
        <pt x="100" y="0" on="0"/>
        <pt x="-20" y="-10" on="1"/>
        <pt x="0" y="82" on="1"/>
        <pt x="37" y="88" on="0"/>
        <pt x="68" y="125" on="0"/>
        <pt x="73" y="170" on="1"/>
        <pt x="117" y="521" on="0"/>
        <pt x="117" y="543" on="0"/>
        <pt x="107" y="559" on="0"/>
        <pt x="87" y="559" on="1"/>
        <pt x="62" y="558" on="1"/>
        <pt x="55" y="572" on="1"/>
        <pt x="72" y="647" on="1"/>
        <pt x="231" y="647" on="1"/>
        <pt x="437" y="652" on="1"/>
        <pt x="414" y="554" on="1"/>
        <pt x="363" y="549" on="0"/>
        <pt x="325" y="528" on="0"/>
        <pt x="321" y="502" on="1"/>
        <pt x="269" y="210" on="0"/>
        <pt x="269" y="147" on="1"/>
        <pt x="269" y="115" on="0"/>
        <pt x="298" y="115" on="1"/>
        <pt x="348" y="115" on="0"/>
        <pt x="391" y="178" on="0"/>
        <pt x="408" y="278" on="1"/>
        <pt x="538" y="291" on="1"/>
        <pt x="548" y="276" on="1"/>
        <pt x="518" y="148" on="0"/>
        <pt x="492" y="9" on="1"/>
      </contour>
      <contour>
        <pt x="497" y="378" on="1"/>
        <pt x="415" y="378" on="0"/>
        <pt x="415" y="458" on="1"/>
        <pt x="415" y="512" on="0"/>
        <pt x="478" y="577" on="0"/>
        <pt x="524" y="577" on="1"/>
        <pt x="611" y="577" on="0"/>
        <pt x="611" y="496" on="1"/>
        <pt x="611" y="443" on="0"/>
        <pt x="548" y="378" on="0"/>
      </contour>
    </TTGlyph>
    <TTGlyph name="Lslash" xMin="-20" yMin="-10" xMax="548" yMax="652">
      <contour>
        <pt x="475" y="-7" on="1"/>
        <pt x="331" y="0" on="0"/>
        <pt x="238" y="0" on="1"/>
        <pt x="100" y="0" on="0"/>
        <pt x="-20" y="-10" on="1"/>
        <pt x="0" y="82" on="1"/>
        <pt x="37" y="88" on="0"/>
        <pt x="68" y="125" on="0"/>
        <pt x="73" y="170" on="1"/>
        <pt x="80" y="228" on="1"/>
        <pt x="44" y="210" on="1"/>
        <pt x="34" y="212" on="1"/>
        <pt x="3" y="306" on="1"/>
        <pt x="95" y="352" on="1"/>
        <pt x="117" y="520" on="0"/>
        <pt x="117" y="543" on="0"/>
        <pt x="107" y="559" on="0"/>
        <pt x="87" y="559" on="1"/>
        <pt x="62" y="558" on="1"/>
        <pt x="55" y="572" on="1"/>
        <pt x="72" y="647" on="1"/>
        <pt x="231" y="647" on="1"/>
        <pt x="437" y="652" on="1"/>
        <pt x="414" y="554" on="1"/>
        <pt x="363" y="549" on="0"/>
        <pt x="325" y="528" on="0"/>
        <pt x="321" y="502" on="1"/>
        <pt x="310" y="437" on="1"/>
        <pt x="385" y="475" on="1"/>
        <pt x="394" y="471" on="1"/>
        <pt x="425" y="378" on="1"/>
        <pt x="289" y="310" on="1"/>
        <pt x="269" y="175" on="0"/>
        <pt x="269" y="115" on="0"/>
        <pt x="298" y="115" on="1"/>
        <pt x="348" y="115" on="0"/>
        <pt x="391" y="178" on="0"/>
        <pt x="408" y="278" on="1"/>
        <pt x="538" y="291" on="1"/>
        <pt x="548" y="276" on="1"/>
        <pt x="518" y="148" on="0"/>
        <pt x="492" y="9" on="1"/>
      </contour>
    </TTGlyph>
    <TTGlyph name="M" xMin="-25" yMin="-12" xMax="830" yMax="653">
      <contour>
        <pt x="293" y="-12" on="1"/>
        <pt x="239" y="363" on="1"/>
        <pt x="226" y="363" on="1"/>
        <pt x="193" y="128" on="0"/>
        <pt x="193" y="115" on="1"/>
        <pt x="193" y="88" on="0"/>
        <pt x="221" y="88" on="1"/>
        <pt x="246" y="90" on="1"/>
        <pt x="254" y="82" on="1"/>
        <pt x="231" y="-4" on="1"/>
        <pt x="123" y="0" on="0"/>
        <pt x="73" y="0" on="0"/>
        <pt x="44" y="-2" on="1"/>
        <pt x="-25" y="-7" on="0"/>
        <pt x="-25" y="-8" on="1"/>
        <pt x="-6" y="82" on="1"/>
        <pt x="21" y="85" on="0"/>
        <pt x="49" y="115" on="0"/>
        <pt x="70" y="207" on="0"/>
        <pt x="134" y="512" on="0"/>
        <pt x="134" y="543" on="0"/>
        <pt x="115" y="554" on="0"/>
        <pt x="79" y="558" on="1"/>
        <pt x="72" y="566" on="1"/>
        <pt x="92" y="652" on="1"/>
        <pt x="195" y="647" on="0"/>
        <pt x="236" y="647" on="1"/>
        <pt x="390" y="651" on="1"/>
        <pt x="396" y="519" on="0"/>
        <pt x="418" y="333" on="1"/>
        <pt x="431" y="333" on="1"/>
        <pt x="498" y="502" on="0"/>
        <pt x="547" y="647" on="1"/>
        <pt x="716" y="647" on="0"/>
        <pt x="732" y="648" on="1"/>
        <pt x="823" y="653" on="1"/>
        <pt x="830" y="649" on="1"/>
        <pt x="811" y="561" on="1"/>
        <pt x="772" y="560" on="0"/>
        <pt x="746" y="540" on="0"/>
        <pt x="742" y="510" on="1"/>
        <pt x="733" y="435" on="0"/>
        <pt x="725" y="165" on="0"/>
        <pt x="725" y="123" on="0"/>
        <pt x="737" y="89" on="0"/>
        <pt x="759" y="89" on="1"/>
        <pt x="788" y="91" on="1"/>
        <pt x="794" y="83" on="1"/>
        <pt x="775" y="-3" on="1"/>
        <pt x="664" y="1" on="0"/>
        <pt x="485" y="-5" on="0"/>
        <pt x="476" y="-8" on="1"/>
        <pt x="499" y="83" on="1"/>
        <pt x="526" y="86" on="0"/>
        <pt x="551" y="108" on="0"/>
        <pt x="554" y="132" on="1"/>
        <pt x="580" y="363" on="1"/>
        <pt x="567" y="363" on="1"/>
        <pt x="566" y="362" on="0"/>
        <pt x="550" y="322" on="0"/>
        <pt x="522" y="253" on="0"/>
        <pt x="504" y="210" on="1"/>
        <pt x="463" y="108" on="0"/>
        <pt x="421" y="-2" on="1"/>
      </contour>
    </TTGlyph>
    <TTGlyph name="N" xMin="-12" yMin="-12" xMax="770" yMax="652">
      <contour>
        <pt x="496" y="333" on="1"/>
        <pt x="515" y="521" on="0"/>
        <pt x="515" y="543" on="0"/>
        <pt x="505" y="559" on="0"/>
        <pt x="488" y="559" on="1"/>
        <pt x="458" y="559" on="1"/>
        <pt x="454" y="570" on="1"/>
        <pt x="469" y="651" on="1"/>
        <pt x="578" y="647" on="0"/>
        <pt x="770" y="647" on="0"/>
        <pt x="770" y="650" on="1"/>
        <pt x="754" y="560" on="1"/>
        <pt x="723" y="556" on="0"/>
        <pt x="696" y="528" on="0"/>
        <pt x="691" y="497" on="1"/>
        <pt x="617" y="0" on="1"/>
        <pt x="425" y="-12" on="1"/>
        <pt x="357" y="144" on="0"/>
        <pt x="275" y="315" on="1"/>
        <pt x="260" y="315" on="1"/>
        <pt x="241" y="128" on="0"/>
        <pt x="241" y="105" on="0"/>
        <pt x="252" y="86" on="0"/>
        <pt x="274" y="86" on="1"/>
        <pt x="306" y="90" on="1"/>
        <pt x="314" y="81" on="1"/>
        <pt x="293" y="-4" on="1"/>
        <pt x="183" y="0" on="0"/>
        <pt x="147" y="0" on="1"/>
        <pt x="80" y="0" on="0"/>
        <pt x="-12" y="-8" on="1"/>
        <pt x="9" y="82" on="1"/>
        <pt x="38" y="86" on="0"/>
        <pt x="68" y="115" on="0"/>
        <pt x="72" y="145" on="1"/>
        <pt x="127" y="504" on="0"/>
        <pt x="127" y="532" on="0"/>
        <pt x="107" y="552" on="0"/>
        <pt x="62" y="557" on="1"/>
        <pt x="52" y="571" on="1"/>
        <pt x="67" y="652" on="1"/>
        <pt x="140" y="647" on="0"/>
        <pt x="213" y="647" on="1"/>
        <pt x="341" y="651" on="1"/>
        <pt x="397" y="507" on="0"/>
        <pt x="481" y="333" on="1"/>
      </contour>
    </TTGlyph>
    <TTGlyph name="Nacute" xMin="-12" yMin="-12" xMax="770" yMax="875">
      <contour>
        <pt x="496" y="333" on="1"/>
        <pt x="515" y="521" on="0"/>
        <pt x="515" y="543" on="0"/>
        <pt x="505" y="559" on="0"/>
        <pt x="488" y="559" on="1"/>
        <pt x="458" y="559" on="1"/>
        <pt x="454" y="570" on="1"/>
        <pt x="469" y="651" on="1"/>
        <pt x="578" y="647" on="0"/>
        <pt x="770" y="647" on="0"/>
        <pt x="770" y="650" on="1"/>
        <pt x="754" y="560" on="1"/>
        <pt x="723" y="556" on="0"/>
        <pt x="696" y="528" on="0"/>
        <pt x="691" y="497" on="1"/>
        <pt x="617" y="0" on="1"/>
        <pt x="425" y="-12" on="1"/>
        <pt x="357" y="144" on="0"/>
        <pt x="275" y="315" on="1"/>
        <pt x="260" y="315" on="1"/>
        <pt x="241" y="128" on="0"/>
        <pt x="241" y="105" on="0"/>
        <pt x="252" y="86" on="0"/>
        <pt x="274" y="86" on="1"/>
        <pt x="306" y="90" on="1"/>
        <pt x="314" y="81" on="1"/>
        <pt x="293" y="-4" on="1"/>
        <pt x="183" y="0" on="0"/>
        <pt x="147" y="0" on="1"/>
        <pt x="80" y="0" on="0"/>
        <pt x="-12" y="-8" on="1"/>
        <pt x="9" y="82" on="1"/>
        <pt x="38" y="86" on="0"/>
        <pt x="68" y="115" on="0"/>
        <pt x="72" y="145" on="1"/>
        <pt x="127" y="504" on="0"/>
        <pt x="127" y="532" on="0"/>
        <pt x="107" y="552" on="0"/>
        <pt x="62" y="557" on="1"/>
        <pt x="52" y="571" on="1"/>
        <pt x="67" y="652" on="1"/>
        <pt x="140" y="647" on="0"/>
        <pt x="213" y="647" on="1"/>
        <pt x="341" y="651" on="1"/>
        <pt x="397" y="507" on="0"/>
        <pt x="481" y="333" on="1"/>
      </contour>
      <contour>
        <pt x="554" y="762" on="1"/>
        <pt x="547" y="746" on="1"/>
        <pt x="417" y="722" on="0"/>
        <pt x="293" y="691" on="1"/>
        <pt x="274" y="704" on="1"/>
        <pt x="253" y="775" on="1"/>
        <pt x="356" y="813" on="0"/>
        <pt x="502" y="875" on="1"/>
        <pt x="518" y="870" on="1"/>
      </contour>
    </TTGlyph>
    <TTGlyph name="Ncaron" xMin="-12" yMin="-12" xMax="770" yMax="895">
      <contour>
        <pt x="496" y="333" on="1"/>
        <pt x="515" y="521" on="0"/>
        <pt x="515" y="543" on="0"/>
        <pt x="505" y="559" on="0"/>
        <pt x="488" y="559" on="1"/>
        <pt x="458" y="559" on="1"/>
        <pt x="454" y="570" on="1"/>
        <pt x="469" y="651" on="1"/>
        <pt x="578" y="647" on="0"/>
        <pt x="770" y="647" on="0"/>
        <pt x="770" y="650" on="1"/>
        <pt x="754" y="560" on="1"/>
        <pt x="723" y="556" on="0"/>
        <pt x="696" y="528" on="0"/>
        <pt x="691" y="497" on="1"/>
        <pt x="617" y="0" on="1"/>
        <pt x="425" y="-12" on="1"/>
        <pt x="357" y="144" on="0"/>
        <pt x="275" y="315" on="1"/>
        <pt x="260" y="315" on="1"/>
        <pt x="241" y="128" on="0"/>
        <pt x="241" y="105" on="0"/>
        <pt x="252" y="86" on="0"/>
        <pt x="274" y="86" on="1"/>
        <pt x="306" y="90" on="1"/>
        <pt x="314" y="81" on="1"/>
        <pt x="293" y="-4" on="1"/>
        <pt x="183" y="0" on="0"/>
        <pt x="147" y="0" on="1"/>
        <pt x="80" y="0" on="0"/>
        <pt x="-12" y="-8" on="1"/>
        <pt x="9" y="82" on="1"/>
        <pt x="38" y="86" on="0"/>
        <pt x="68" y="115" on="0"/>
        <pt x="72" y="145" on="1"/>
        <pt x="127" y="504" on="0"/>
        <pt x="127" y="532" on="0"/>
        <pt x="107" y="552" on="0"/>
        <pt x="62" y="557" on="1"/>
        <pt x="52" y="571" on="1"/>
        <pt x="67" y="652" on="1"/>
        <pt x="140" y="647" on="0"/>
        <pt x="213" y="647" on="1"/>
        <pt x="341" y="651" on="1"/>
        <pt x="397" y="507" on="0"/>
        <pt x="481" y="333" on="1"/>
      </contour>
      <contour>
        <pt x="597" y="888" on="1"/>
        <pt x="626" y="826" on="1"/>
        <pt x="537" y="766" on="0"/>
        <pt x="435" y="688" on="1"/>
        <pt x="408" y="688" on="1"/>
        <pt x="327" y="765" on="0"/>
        <pt x="253" y="826" on="1"/>
        <pt x="295" y="888" on="1"/>
        <pt x="319" y="895" on="1"/>
        <pt x="342" y="884" on="0"/>
        <pt x="441" y="844" on="1"/>
        <pt x="491" y="862" on="0"/>
        <pt x="575" y="895" on="1"/>
      </contour>
    </TTGlyph>
    <TTGlyph name="Ncommaaccent" xMin="-12" yMin="-345" xMax="770" yMax="652">
      <contour>
        <pt x="496" y="333" on="1"/>
        <pt x="515" y="521" on="0"/>
        <pt x="515" y="543" on="0"/>
        <pt x="505" y="559" on="0"/>
        <pt x="488" y="559" on="1"/>
        <pt x="458" y="559" on="1"/>
        <pt x="454" y="570" on="1"/>
        <pt x="469" y="651" on="1"/>
        <pt x="578" y="647" on="0"/>
        <pt x="770" y="647" on="0"/>
        <pt x="770" y="650" on="1"/>
        <pt x="754" y="560" on="1"/>
        <pt x="723" y="556" on="0"/>
        <pt x="696" y="528" on="0"/>
        <pt x="691" y="497" on="1"/>
        <pt x="617" y="0" on="1"/>
        <pt x="425" y="-12" on="1"/>
        <pt x="357" y="144" on="0"/>
        <pt x="275" y="315" on="1"/>
        <pt x="260" y="315" on="1"/>
        <pt x="241" y="128" on="0"/>
        <pt x="241" y="105" on="0"/>
        <pt x="252" y="86" on="0"/>
        <pt x="274" y="86" on="1"/>
        <pt x="306" y="90" on="1"/>
        <pt x="314" y="81" on="1"/>
        <pt x="293" y="-4" on="1"/>
        <pt x="183" y="0" on="0"/>
        <pt x="147" y="0" on="1"/>
        <pt x="80" y="0" on="0"/>
        <pt x="-12" y="-8" on="1"/>
        <pt x="9" y="82" on="1"/>
        <pt x="38" y="86" on="0"/>
        <pt x="68" y="115" on="0"/>
        <pt x="72" y="145" on="1"/>
        <pt x="127" y="504" on="0"/>
        <pt x="127" y="532" on="0"/>
        <pt x="107" y="552" on="0"/>
        <pt x="62" y="557" on="1"/>
        <pt x="52" y="571" on="1"/>
        <pt x="67" y="652" on="1"/>
        <pt x="140" y="647" on="0"/>
        <pt x="213" y="647" on="1"/>
        <pt x="341" y="651" on="1"/>
        <pt x="397" y="507" on="0"/>
        <pt x="481" y="333" on="1"/>
      </contour>
      <contour>
        <pt x="231" y="-78" on="1"/>
        <pt x="288" y="-34" on="0"/>
        <pt x="371" y="-34" on="0"/>
        <pt x="418" y="-89" on="0"/>
        <pt x="418" y="-188" on="0"/>
        <pt x="328" y="-301" on="0"/>
        <pt x="251" y="-345" on="1"/>
        <pt x="193" y="-299" on="1"/>
        <pt x="193" y="-274" on="1"/>
        <pt x="222" y="-253" on="0"/>
        <pt x="257" y="-195" on="0"/>
        <pt x="257" y="-124" on="0"/>
        <pt x="228" y="-92" on="1"/>
      </contour>
    </TTGlyph>
    <TTGlyph name="Ntilde" xMin="-12" yMin="-12" xMax="770" yMax="888">
      <contour>
        <pt x="496" y="333" on="1"/>
        <pt x="515" y="521" on="0"/>
        <pt x="515" y="543" on="0"/>
        <pt x="505" y="559" on="0"/>
        <pt x="488" y="559" on="1"/>
        <pt x="458" y="559" on="1"/>
        <pt x="454" y="570" on="1"/>
        <pt x="469" y="651" on="1"/>
        <pt x="578" y="647" on="0"/>
        <pt x="770" y="647" on="0"/>
        <pt x="770" y="650" on="1"/>
        <pt x="754" y="560" on="1"/>
        <pt x="723" y="556" on="0"/>
        <pt x="696" y="528" on="0"/>
        <pt x="691" y="497" on="1"/>
        <pt x="617" y="0" on="1"/>
        <pt x="425" y="-12" on="1"/>
        <pt x="357" y="144" on="0"/>
        <pt x="275" y="315" on="1"/>
        <pt x="260" y="315" on="1"/>
        <pt x="241" y="128" on="0"/>
        <pt x="241" y="105" on="0"/>
        <pt x="252" y="86" on="0"/>
        <pt x="274" y="86" on="1"/>
        <pt x="306" y="90" on="1"/>
        <pt x="314" y="81" on="1"/>
        <pt x="293" y="-4" on="1"/>
        <pt x="183" y="0" on="0"/>
        <pt x="147" y="0" on="1"/>
        <pt x="80" y="0" on="0"/>
        <pt x="-12" y="-8" on="1"/>
        <pt x="9" y="82" on="1"/>
        <pt x="38" y="86" on="0"/>
        <pt x="68" y="115" on="0"/>
        <pt x="72" y="145" on="1"/>
        <pt x="127" y="504" on="0"/>
        <pt x="127" y="532" on="0"/>
        <pt x="107" y="552" on="0"/>
        <pt x="62" y="557" on="1"/>
        <pt x="52" y="571" on="1"/>
        <pt x="67" y="652" on="1"/>
        <pt x="140" y="647" on="0"/>
        <pt x="213" y="647" on="1"/>
        <pt x="341" y="651" on="1"/>
        <pt x="397" y="507" on="0"/>
        <pt x="481" y="333" on="1"/>
      </contour>
      <contour>
        <pt x="367" y="864" on="0"/>
        <pt x="480" y="830" on="0"/>
        <pt x="492" y="830" on="1"/>
        <pt x="515" y="830" on="0"/>
        <pt x="554" y="874" on="1"/>
        <pt x="567" y="888" on="1"/>
        <pt x="583" y="888" on="1"/>
        <pt x="635" y="834" on="1"/>
        <pt x="633" y="818" on="1"/>
        <pt x="540" y="703" on="1"/>
        <pt x="523" y="699" on="1"/>
        <pt x="505" y="699" on="0"/>
        <pt x="392" y="733" on="0"/>
        <pt x="367" y="733" on="0"/>
        <pt x="330" y="704" on="0"/>
        <pt x="305" y="675" on="1"/>
        <pt x="289" y="675" on="1"/>
        <pt x="237" y="729" on="1"/>
        <pt x="239" y="745" on="1"/>
        <pt x="332" y="860" on="1"/>
        <pt x="349" y="864" on="1"/>
      </contour>
    </TTGlyph>
    <TTGlyph name="O" xMin="18" yMin="-12" xMax="638" yMax="659">
      <contour>
        <pt x="310" y="114" on="1"/>
        <pt x="362" y="114" on="0"/>
        <pt x="407" y="248" on="0"/>
        <pt x="407" y="402" on="1"/>
        <pt x="407" y="522" on="0"/>
        <pt x="342" y="522" on="1"/>
        <pt x="292" y="522" on="0"/>
        <pt x="247" y="387" on="0"/>
        <pt x="247" y="234" on="1"/>
        <pt x="247" y="114" on="0"/>
      </contour>
      <contour>
        <pt x="283" y="-12" on="1"/>
        <pt x="158" y="-12" on="0"/>
        <pt x="18" y="127" on="0"/>
        <pt x="18" y="256" on="1"/>
        <pt x="18" y="450" on="0"/>
        <pt x="199" y="659" on="0"/>
        <pt x="372" y="659" on="1"/>
        <pt x="500" y="659" on="0"/>
        <pt x="638" y="526" on="0"/>
        <pt x="638" y="398" on="1"/>
        <pt x="638" y="204" on="0"/>
        <pt x="454" y="-12" on="0"/>
      </contour>
    </TTGlyph>
    <TTGlyph name="OE" xMin="18" yMin="-10" xMax="922" yMax="659">
      <contour>
        <pt x="583" y="260" on="1"/>
        <pt x="569" y="160" on="0"/>
        <pt x="569" y="132" on="0"/>
        <pt x="580" y="115" on="0"/>
        <pt x="609" y="115" on="1"/>
        <pt x="669" y="115" on="0"/>
        <pt x="714" y="154" on="0"/>
        <pt x="730" y="221" on="1"/>
        <pt x="860" y="230" on="1"/>
        <pt x="870" y="215" on="1"/>
        <pt x="841" y="118" on="0"/>
        <pt x="818" y="9" on="1"/>
        <pt x="801" y="-7" on="1"/>
        <pt x="640" y="3" on="0"/>
        <pt x="448" y="3" on="0"/>
        <pt x="312" y="-10" on="0"/>
        <pt x="289" y="-10" on="1"/>
        <pt x="161" y="-10" on="0"/>
        <pt x="18" y="130" on="0"/>
        <pt x="18" y="259" on="1"/>
        <pt x="18" y="451" on="0"/>
        <pt x="193" y="650" on="0"/>
        <pt x="366" y="650" on="1"/>
        <pt x="394" y="650" on="0"/>
        <pt x="550" y="638" on="0"/>
        <pt x="598" y="638" on="1"/>
        <pt x="750" y="638" on="0"/>
        <pt x="911" y="659" on="1"/>
        <pt x="922" y="643" on="1"/>
        <pt x="892" y="538" on="0"/>
        <pt x="876" y="444" on="1"/>
        <pt x="736" y="435" on="1"/>
        <pt x="744" y="467" on="0"/>
        <pt x="744" y="510" on="0"/>
        <pt x="709" y="527" on="0"/>
        <pt x="638" y="527" on="0"/>
        <pt x="625" y="517" on="0"/>
        <pt x="623" y="500" on="1"/>
        <pt x="603" y="387" on="1"/>
        <pt x="681" y="386" on="1"/>
        <pt x="788" y="392" on="1"/>
        <pt x="799" y="378" on="1"/>
        <pt x="771" y="263" on="1"/>
        <pt x="700" y="266" on="0"/>
        <pt x="656" y="266" on="1"/>
      </contour>
      <contour>
        <pt x="309" y="108" on="1"/>
        <pt x="371" y="108" on="0"/>
        <pt x="381" y="196" on="1"/>
        <pt x="413" y="450" on="0"/>
        <pt x="413" y="459" on="1"/>
        <pt x="413" y="528" on="0"/>
        <pt x="344" y="528" on="1"/>
        <pt x="245" y="528" on="0"/>
        <pt x="245" y="235" on="1"/>
        <pt x="245" y="167" on="0"/>
        <pt x="275" y="108" on="0"/>
      </contour>
    </TTGlyph>
    <TTGlyph name="Oacute" xMin="18" yMin="-12" xMax="638" yMax="875">
      <contour>
        <pt x="310" y="114" on="1"/>
        <pt x="362" y="114" on="0"/>
        <pt x="407" y="248" on="0"/>
        <pt x="407" y="402" on="1"/>
        <pt x="407" y="522" on="0"/>
        <pt x="342" y="522" on="1"/>
        <pt x="292" y="522" on="0"/>
        <pt x="247" y="387" on="0"/>
        <pt x="247" y="234" on="1"/>
        <pt x="247" y="114" on="0"/>
      </contour>
      <contour>
        <pt x="283" y="-12" on="1"/>
        <pt x="158" y="-12" on="0"/>
        <pt x="18" y="127" on="0"/>
        <pt x="18" y="256" on="1"/>
        <pt x="18" y="450" on="0"/>
        <pt x="199" y="659" on="0"/>
        <pt x="372" y="659" on="1"/>
        <pt x="500" y="659" on="0"/>
        <pt x="638" y="526" on="0"/>
        <pt x="638" y="398" on="1"/>
        <pt x="638" y="204" on="0"/>
        <pt x="454" y="-12" on="0"/>
      </contour>
      <contour>
        <pt x="528" y="762" on="1"/>
        <pt x="521" y="746" on="1"/>
        <pt x="391" y="722" on="0"/>
        <pt x="267" y="691" on="1"/>
        <pt x="248" y="704" on="1"/>
        <pt x="227" y="775" on="1"/>
        <pt x="330" y="813" on="0"/>
        <pt x="476" y="875" on="1"/>
        <pt x="492" y="870" on="1"/>
      </contour>
    </TTGlyph>
    <TTGlyph name="Obreve" xMin="18" yMin="-12" xMax="638" yMax="895">
      <contour>
        <pt x="310" y="114" on="1"/>
        <pt x="362" y="114" on="0"/>
        <pt x="407" y="248" on="0"/>
        <pt x="407" y="402" on="1"/>
        <pt x="407" y="522" on="0"/>
        <pt x="342" y="522" on="1"/>
        <pt x="292" y="522" on="0"/>
        <pt x="247" y="387" on="0"/>
        <pt x="247" y="234" on="1"/>
        <pt x="247" y="114" on="0"/>
      </contour>
      <contour>
        <pt x="283" y="-12" on="1"/>
        <pt x="158" y="-12" on="0"/>
        <pt x="18" y="127" on="0"/>
        <pt x="18" y="256" on="1"/>
        <pt x="18" y="450" on="0"/>
        <pt x="199" y="659" on="0"/>
        <pt x="372" y="659" on="1"/>
        <pt x="500" y="659" on="0"/>
        <pt x="638" y="526" on="0"/>
        <pt x="638" y="398" on="1"/>
        <pt x="638" y="204" on="0"/>
        <pt x="454" y="-12" on="0"/>
      </contour>
      <contour>
        <pt x="272" y="895" on="1"/>
        <pt x="293" y="825" on="0"/>
        <pt x="452" y="825" on="0"/>
        <pt x="489" y="895" on="1"/>
        <pt x="516" y="888" on="1"/>
        <pt x="548" y="826" on="1"/>
        <pt x="523" y="768" on="0"/>
        <pt x="426" y="690" on="0"/>
        <pt x="286" y="690" on="0"/>
        <pt x="207" y="768" on="0"/>
        <pt x="197" y="826" on="1"/>
        <pt x="244" y="888" on="1"/>
      </contour>
    </TTGlyph>
    <TTGlyph name="Ocircumflex" xMin="18" yMin="-12" xMax="638" yMax="908">
      <contour>
        <pt x="310" y="114" on="1"/>
        <pt x="362" y="114" on="0"/>
        <pt x="407" y="248" on="0"/>
        <pt x="407" y="402" on="1"/>
        <pt x="407" y="522" on="0"/>
        <pt x="342" y="522" on="1"/>
        <pt x="292" y="522" on="0"/>
        <pt x="247" y="387" on="0"/>
        <pt x="247" y="234" on="1"/>
        <pt x="247" y="114" on="0"/>
      </contour>
      <contour>
        <pt x="283" y="-12" on="1"/>
        <pt x="158" y="-12" on="0"/>
        <pt x="18" y="127" on="0"/>
        <pt x="18" y="256" on="1"/>
        <pt x="18" y="450" on="0"/>
        <pt x="199" y="659" on="0"/>
        <pt x="372" y="659" on="1"/>
        <pt x="500" y="659" on="0"/>
        <pt x="638" y="526" on="0"/>
        <pt x="638" y="398" on="1"/>
        <pt x="638" y="204" on="0"/>
        <pt x="454" y="-12" on="0"/>
      </contour>
      <contour>
        <pt x="414" y="908" on="1"/>
        <pt x="414" y="911" on="0"/>
        <pt x="540" y="796" on="0"/>
        <pt x="570" y="770" on="1"/>
        <pt x="527" y="708" on="1"/>
        <pt x="503" y="701" on="1"/>
        <pt x="459" y="721" on="0"/>
        <pt x="381" y="752" on="1"/>
        <pt x="331" y="734" on="0"/>
        <pt x="247" y="701" on="1"/>
        <pt x="225" y="708" on="1"/>
        <pt x="197" y="770" on="1"/>
        <pt x="277" y="824" on="0"/>
        <pt x="387" y="908" on="1"/>
      </contour>
    </TTGlyph>
    <TTGlyph name="Odieresis" xMin="18" yMin="-12" xMax="638" yMax="862">
      <contour>
        <pt x="310" y="114" on="1"/>
        <pt x="362" y="114" on="0"/>
        <pt x="407" y="248" on="0"/>
        <pt x="407" y="402" on="1"/>
        <pt x="407" y="522" on="0"/>
        <pt x="342" y="522" on="1"/>
        <pt x="292" y="522" on="0"/>
        <pt x="247" y="387" on="0"/>
        <pt x="247" y="234" on="1"/>
        <pt x="247" y="114" on="0"/>
      </contour>
      <contour>
        <pt x="283" y="-12" on="1"/>
        <pt x="158" y="-12" on="0"/>
        <pt x="18" y="127" on="0"/>
        <pt x="18" y="256" on="1"/>
        <pt x="18" y="450" on="0"/>
        <pt x="199" y="659" on="0"/>
        <pt x="372" y="659" on="1"/>
        <pt x="500" y="659" on="0"/>
        <pt x="638" y="526" on="0"/>
        <pt x="638" y="398" on="1"/>
        <pt x="638" y="204" on="0"/>
        <pt x="454" y="-12" on="0"/>
      </contour>
      <contour>
        <pt x="465" y="695" on="1"/>
        <pt x="394" y="695" on="0"/>
        <pt x="394" y="762" on="1"/>
        <pt x="394" y="807" on="0"/>
        <pt x="447" y="862" on="0"/>
        <pt x="486" y="862" on="1"/>
        <pt x="561" y="862" on="0"/>
        <pt x="561" y="794" on="1"/>
        <pt x="561" y="750" on="0"/>
        <pt x="508" y="695" on="0"/>
      </contour>
      <contour>
        <pt x="277" y="695" on="1"/>
        <pt x="207" y="695" on="0"/>
        <pt x="207" y="762" on="1"/>
        <pt x="207" y="807" on="0"/>
        <pt x="260" y="862" on="0"/>
        <pt x="298" y="862" on="1"/>
        <pt x="373" y="862" on="0"/>
        <pt x="373" y="794" on="1"/>
        <pt x="373" y="750" on="0"/>
        <pt x="320" y="695" on="0"/>
      </contour>
    </TTGlyph>
    <TTGlyph name="Ograve" xMin="18" yMin="-12" xMax="638" yMax="875">
      <contour>
        <pt x="310" y="114" on="1"/>
        <pt x="362" y="114" on="0"/>
        <pt x="407" y="248" on="0"/>
        <pt x="407" y="402" on="1"/>
        <pt x="407" y="522" on="0"/>
        <pt x="342" y="522" on="1"/>
        <pt x="292" y="522" on="0"/>
        <pt x="247" y="387" on="0"/>
        <pt x="247" y="234" on="1"/>
        <pt x="247" y="114" on="0"/>
      </contour>
      <contour>
        <pt x="283" y="-12" on="1"/>
        <pt x="158" y="-12" on="0"/>
        <pt x="18" y="127" on="0"/>
        <pt x="18" y="256" on="1"/>
        <pt x="18" y="450" on="0"/>
        <pt x="199" y="659" on="0"/>
        <pt x="372" y="659" on="1"/>
        <pt x="500" y="659" on="0"/>
        <pt x="638" y="526" on="0"/>
        <pt x="638" y="398" on="1"/>
        <pt x="638" y="204" on="0"/>
        <pt x="454" y="-12" on="0"/>
      </contour>
      <contour>
        <pt x="235" y="746" on="1"/>
        <pt x="228" y="762" on="1"/>
        <pt x="264" y="870" on="1"/>
        <pt x="280" y="875" on="1"/>
        <pt x="406" y="821" on="0"/>
        <pt x="529" y="775" on="1"/>
        <pt x="508" y="704" on="1"/>
        <pt x="489" y="691" on="1"/>
        <pt x="396" y="715" on="0"/>
      </contour>
    </TTGlyph>
    <TTGlyph name="Ohungarumlaut" xMin="18" yMin="-12" xMax="638" yMax="880">
      <contour>
        <pt x="310" y="114" on="1"/>
        <pt x="362" y="114" on="0"/>
        <pt x="407" y="248" on="0"/>
        <pt x="407" y="402" on="1"/>
        <pt x="407" y="522" on="0"/>
        <pt x="342" y="522" on="1"/>
        <pt x="292" y="522" on="0"/>
        <pt x="247" y="387" on="0"/>
        <pt x="247" y="234" on="1"/>
        <pt x="247" y="114" on="0"/>
      </contour>
      <contour>
        <pt x="283" y="-12" on="1"/>
        <pt x="158" y="-12" on="0"/>
        <pt x="18" y="127" on="0"/>
        <pt x="18" y="256" on="1"/>
        <pt x="18" y="450" on="0"/>
        <pt x="199" y="659" on="0"/>
        <pt x="372" y="659" on="1"/>
        <pt x="500" y="659" on="0"/>
        <pt x="638" y="526" on="0"/>
        <pt x="638" y="398" on="1"/>
        <pt x="638" y="204" on="0"/>
        <pt x="454" y="-12" on="0"/>
      </contour>
      <contour>
        <pt x="394" y="799" on="1"/>
        <pt x="394" y="784" on="1"/>
        <pt x="305" y="731" on="0"/>
        <pt x="221" y="674" on="1"/>
        <pt x="202" y="679" on="1"/>
        <pt x="164" y="727" on="1"/>
        <pt x="313" y="879" on="1"/>
        <pt x="328" y="880" on="1"/>
      </contour>
      <contour>
        <pt x="592" y="799" on="1"/>
        <pt x="592" y="784" on="1"/>
        <pt x="503" y="731" on="0"/>
        <pt x="419" y="674" on="1"/>
        <pt x="400" y="679" on="1"/>
        <pt x="362" y="727" on="1"/>
        <pt x="511" y="879" on="1"/>
        <pt x="526" y="880" on="1"/>
      </contour>
    </TTGlyph>
    <TTGlyph name="Omacron" xMin="18" yMin="-12" xMax="638" yMax="823">
      <contour>
        <pt x="310" y="114" on="1"/>
        <pt x="362" y="114" on="0"/>
        <pt x="407" y="248" on="0"/>
        <pt x="407" y="402" on="1"/>
        <pt x="407" y="522" on="0"/>
        <pt x="342" y="522" on="1"/>
        <pt x="292" y="522" on="0"/>
        <pt x="247" y="387" on="0"/>
        <pt x="247" y="234" on="1"/>
        <pt x="247" y="114" on="0"/>
      </contour>
      <contour>
        <pt x="283" y="-12" on="1"/>
        <pt x="158" y="-12" on="0"/>
        <pt x="18" y="127" on="0"/>
        <pt x="18" y="256" on="1"/>
        <pt x="18" y="450" on="0"/>
        <pt x="199" y="659" on="0"/>
        <pt x="372" y="659" on="1"/>
        <pt x="500" y="659" on="0"/>
        <pt x="638" y="526" on="0"/>
        <pt x="638" y="398" on="1"/>
        <pt x="638" y="204" on="0"/>
        <pt x="454" y="-12" on="0"/>
      </contour>
      <contour>
        <pt x="534" y="823" on="1"/>
        <pt x="543" y="805" on="1"/>
        <pt x="511" y="696" on="1"/>
        <pt x="246" y="694" on="1"/>
        <pt x="232" y="709" on="1"/>
        <pt x="264" y="818" on="1"/>
        <pt x="356" y="817" on="0"/>
        <pt x="413" y="817" on="1"/>
      </contour>
    </TTGlyph>
    <TTGlyph name="Omega" xMin="-22" yMin="-7" xMax="839" yMax="659">
      <contour>
        <pt x="462" y="123" on="0"/>
        <pt x="516" y="284" on="0"/>
        <pt x="516" y="456" on="0"/>
        <pt x="485" y="522" on="0"/>
        <pt x="450" y="522" on="1"/>
        <pt x="399" y="522" on="0"/>
        <pt x="354" y="391" on="0"/>
        <pt x="354" y="127" on="0"/>
        <pt x="392" y="74" on="1"/>
        <pt x="356" y="-7" on="1"/>
        <pt x="286" y="3" on="1"/>
        <pt x="-4" y="-3" on="1"/>
        <pt x="-22" y="19" on="1"/>
        <pt x="4" y="246" on="1"/>
        <pt x="111" y="255" on="1"/>
        <pt x="110" y="235" on="0"/>
        <pt x="110" y="204" on="1"/>
        <pt x="110" y="119" on="0"/>
        <pt x="167" y="112" on="1"/>
        <pt x="216" y="103" on="1"/>
        <pt x="133" y="195" on="0"/>
        <pt x="133" y="472" on="0"/>
        <pt x="326" y="659" on="0"/>
        <pt x="475" y="659" on="1"/>
        <pt x="599" y="659" on="0"/>
        <pt x="749" y="532" on="0"/>
        <pt x="749" y="426" on="1"/>
        <pt x="749" y="243" on="0"/>
        <pt x="587" y="102" on="1"/>
        <pt x="642" y="112" on="1"/>
        <pt x="675" y="117" on="0"/>
        <pt x="717" y="179" on="0"/>
        <pt x="732" y="246" on="1"/>
        <pt x="839" y="255" on="1"/>
        <pt x="820" y="111" on="0"/>
        <pt x="808" y="19" on="1"/>
        <pt x="785" y="-3" on="1"/>
        <pt x="503" y="3" on="1"/>
        <pt x="430" y="-7" on="1"/>
        <pt x="413" y="74" on="1"/>
      </contour>
    </TTGlyph>
    <TTGlyph name="Oslash" xMin="9" yMin="-117" xMax="642" yMax="752">
      <contour>
        <pt x="18" y="256" on="1"/>
        <pt x="18" y="450" on="0"/>
        <pt x="199" y="659" on="0"/>
        <pt x="372" y="659" on="1"/>
        <pt x="427" y="659" on="0"/>
        <pt x="474" y="645" on="1"/>
        <pt x="543" y="752" on="1"/>
        <pt x="640" y="698" on="1"/>
        <pt x="642" y="685" on="1"/>
        <pt x="576" y="585" on="1"/>
        <pt x="638" y="517" on="0"/>
        <pt x="638" y="398" on="1"/>
        <pt x="638" y="204" on="0"/>
        <pt x="454" y="-12" on="0"/>
        <pt x="283" y="-12" on="1"/>
        <pt x="230" y="-12" on="0"/>
        <pt x="187" y="0" on="1"/>
        <pt x="108" y="-117" on="1"/>
        <pt x="13" y="-62" on="1"/>
        <pt x="9" y="-52" on="1"/>
        <pt x="85" y="60" on="1"/>
        <pt x="18" y="130" on="0"/>
      </contour>
      <contour>
        <pt x="310" y="114" on="1"/>
        <pt x="362" y="114" on="0"/>
        <pt x="407" y="248" on="0"/>
        <pt x="407" y="402" on="1"/>
        <pt x="407" y="522" on="0"/>
        <pt x="342" y="522" on="1"/>
        <pt x="292" y="522" on="0"/>
        <pt x="247" y="387" on="0"/>
        <pt x="247" y="234" on="1"/>
        <pt x="247" y="114" on="0"/>
      </contour>
    </TTGlyph>
    <TTGlyph name="Oslashacute" xMin="9" yMin="-117" xMax="642" yMax="885">
      <contour>
        <pt x="18" y="256" on="1"/>
        <pt x="18" y="450" on="0"/>
        <pt x="199" y="659" on="0"/>
        <pt x="372" y="659" on="1"/>
        <pt x="427" y="659" on="0"/>
        <pt x="474" y="645" on="1"/>
        <pt x="543" y="752" on="1"/>
        <pt x="640" y="698" on="1"/>
        <pt x="642" y="685" on="1"/>
        <pt x="576" y="585" on="1"/>
        <pt x="638" y="517" on="0"/>
        <pt x="638" y="398" on="1"/>
        <pt x="638" y="204" on="0"/>
        <pt x="454" y="-12" on="0"/>
        <pt x="283" y="-12" on="1"/>
        <pt x="230" y="-12" on="0"/>
        <pt x="187" y="0" on="1"/>
        <pt x="108" y="-117" on="1"/>
        <pt x="13" y="-62" on="1"/>
        <pt x="9" y="-52" on="1"/>
        <pt x="85" y="60" on="1"/>
        <pt x="18" y="130" on="0"/>
      </contour>
      <contour>
        <pt x="310" y="114" on="1"/>
        <pt x="362" y="114" on="0"/>
        <pt x="407" y="248" on="0"/>
        <pt x="407" y="402" on="1"/>
        <pt x="407" y="522" on="0"/>
        <pt x="342" y="522" on="1"/>
        <pt x="292" y="522" on="0"/>
        <pt x="247" y="387" on="0"/>
        <pt x="247" y="234" on="1"/>
        <pt x="247" y="114" on="0"/>
      </contour>
      <contour>
        <pt x="503" y="772" on="1"/>
        <pt x="496" y="756" on="1"/>
        <pt x="366" y="732" on="0"/>
        <pt x="242" y="701" on="1"/>
        <pt x="223" y="714" on="1"/>
        <pt x="202" y="785" on="1"/>
        <pt x="305" y="823" on="0"/>
        <pt x="451" y="885" on="1"/>
        <pt x="467" y="880" on="1"/>
      </contour>
    </TTGlyph>
    <TTGlyph name="Otilde" xMin="18" yMin="-12" xMax="638" yMax="888">
      <contour>
        <pt x="310" y="114" on="1"/>
        <pt x="362" y="114" on="0"/>
        <pt x="407" y="248" on="0"/>
        <pt x="407" y="402" on="1"/>
        <pt x="407" y="522" on="0"/>
        <pt x="342" y="522" on="1"/>
        <pt x="292" y="522" on="0"/>
        <pt x="247" y="387" on="0"/>
        <pt x="247" y="234" on="1"/>
        <pt x="247" y="114" on="0"/>
      </contour>
      <contour>
        <pt x="283" y="-12" on="1"/>
        <pt x="158" y="-12" on="0"/>
        <pt x="18" y="127" on="0"/>
        <pt x="18" y="256" on="1"/>
        <pt x="18" y="450" on="0"/>
        <pt x="199" y="659" on="0"/>
        <pt x="372" y="659" on="1"/>
        <pt x="500" y="659" on="0"/>
        <pt x="638" y="526" on="0"/>
        <pt x="638" y="398" on="1"/>
        <pt x="638" y="204" on="0"/>
        <pt x="454" y="-12" on="0"/>
      </contour>
      <contour>
        <pt x="317" y="864" on="0"/>
        <pt x="430" y="830" on="0"/>
        <pt x="442" y="830" on="1"/>
        <pt x="465" y="830" on="0"/>
        <pt x="504" y="874" on="1"/>
        <pt x="517" y="888" on="1"/>
        <pt x="533" y="888" on="1"/>
        <pt x="585" y="834" on="1"/>
        <pt x="583" y="818" on="1"/>
        <pt x="490" y="703" on="1"/>
        <pt x="473" y="699" on="1"/>
        <pt x="455" y="699" on="0"/>
        <pt x="342" y="733" on="0"/>
        <pt x="317" y="733" on="0"/>
        <pt x="280" y="704" on="0"/>
        <pt x="255" y="675" on="1"/>
        <pt x="239" y="675" on="1"/>
        <pt x="187" y="729" on="1"/>
        <pt x="189" y="745" on="1"/>
        <pt x="282" y="860" on="1"/>
        <pt x="299" y="864" on="1"/>
      </contour>
    </TTGlyph>
    <TTGlyph name="P" xMin="-19" yMin="-9" xMax="635" yMax="653">
      <contour>
        <pt x="118" y="530" on="1"/>
        <pt x="118" y="559" on="0"/>
        <pt x="98" y="559" on="1"/>
        <pt x="63" y="557" on="1"/>
        <pt x="55" y="569" on="1"/>
        <pt x="74" y="647" on="1"/>
        <pt x="214" y="647" on="1"/>
        <pt x="383" y="653" on="1"/>
        <pt x="456" y="653" on="0"/>
        <pt x="561" y="619" on="0"/>
        <pt x="587" y="590" on="1"/>
        <pt x="635" y="538" on="0"/>
        <pt x="635" y="473" on="1"/>
        <pt x="635" y="367" on="0"/>
        <pt x="466" y="208" on="0"/>
        <pt x="360" y="208" on="1"/>
        <pt x="277" y="208" on="1"/>
        <pt x="269" y="145" on="0"/>
        <pt x="269" y="113" on="0"/>
        <pt x="282" y="88" on="0"/>
        <pt x="311" y="88" on="1"/>
        <pt x="342" y="90" on="1"/>
        <pt x="346" y="82" on="1"/>
        <pt x="326" y="-4" on="1"/>
        <pt x="206" y="0" on="0"/>
        <pt x="164" y="0" on="1"/>
        <pt x="-19" y="-9" on="1"/>
        <pt x="1" y="83" on="1"/>
        <pt x="37" y="89" on="0"/>
        <pt x="69" y="126" on="0"/>
        <pt x="74" y="168" on="1"/>
        <pt x="118" y="521" on="0"/>
      </contour>
      <contour>
        <pt x="427" y="452" on="1"/>
        <pt x="427" y="492" on="0"/>
        <pt x="385" y="528" on="0"/>
        <pt x="341" y="528" on="1"/>
        <pt x="331" y="528" on="0"/>
        <pt x="328" y="524" on="1"/>
        <pt x="320" y="513" on="0"/>
        <pt x="294" y="331" on="1"/>
        <pt x="357" y="321" on="1"/>
        <pt x="427" y="346" on="0"/>
      </contour>
    </TTGlyph>
    <TTGlyph name="Q" xMin="18" yMin="-242" xMax="759" yMax="659">
      <contour>
        <pt x="18" y="256" on="1"/>
        <pt x="18" y="450" on="0"/>
        <pt x="199" y="659" on="0"/>
        <pt x="372" y="659" on="1"/>
        <pt x="500" y="659" on="0"/>
        <pt x="638" y="526" on="0"/>
        <pt x="638" y="258" on="0"/>
        <pt x="541" y="65" on="0"/>
        <pt x="448" y="21" on="1"/>
        <pt x="448" y="18" on="1"/>
        <pt x="492" y="-23" on="0"/>
        <pt x="602" y="-72" on="0"/>
        <pt x="650" y="-72" on="1"/>
        <pt x="688" y="-72" on="0"/>
        <pt x="740" y="-62" on="1"/>
        <pt x="750" y="-73" on="1"/>
        <pt x="759" y="-141" on="1"/>
        <pt x="609" y="-242" on="0"/>
        <pt x="572" y="-242" on="1"/>
        <pt x="513" y="-242" on="0"/>
        <pt x="403" y="-158" on="0"/>
        <pt x="273" y="-12" on="1"/>
        <pt x="152" y="-9" on="0"/>
        <pt x="18" y="129" on="0"/>
      </contour>
      <contour>
        <pt x="310" y="114" on="1"/>
        <pt x="362" y="114" on="0"/>
        <pt x="407" y="248" on="0"/>
        <pt x="407" y="402" on="1"/>
        <pt x="407" y="522" on="0"/>
        <pt x="342" y="522" on="1"/>
        <pt x="292" y="522" on="0"/>
        <pt x="247" y="387" on="0"/>
        <pt x="247" y="234" on="1"/>
        <pt x="247" y="114" on="0"/>
      </contour>
    </TTGlyph>
    <TTGlyph name="R" xMin="-19" yMin="-16" xMax="648" yMax="653">
      <contour>
        <pt x="279" y="228" on="1"/>
        <pt x="269" y="145" on="0"/>
        <pt x="269" y="109" on="0"/>
        <pt x="285" y="90" on="0"/>
        <pt x="331" y="88" on="1"/>
        <pt x="335" y="80" on="1"/>
        <pt x="315" y="-4" on="1"/>
        <pt x="194" y="0" on="0"/>
        <pt x="158" y="0" on="1"/>
        <pt x="78" y="0" on="0"/>
        <pt x="-19" y="-9" on="1"/>
        <pt x="1" y="83" on="1"/>
        <pt x="37" y="89" on="0"/>
        <pt x="69" y="125" on="0"/>
        <pt x="74" y="168" on="1"/>
        <pt x="118" y="525" on="0"/>
        <pt x="118" y="544" on="0"/>
        <pt x="112" y="559" on="0"/>
        <pt x="98" y="559" on="1"/>
        <pt x="63" y="557" on="1"/>
        <pt x="55" y="569" on="1"/>
        <pt x="75" y="648" on="1"/>
        <pt x="174" y="647" on="0"/>
        <pt x="214" y="647" on="1"/>
        <pt x="388" y="653" on="1"/>
        <pt x="514" y="653" on="0"/>
        <pt x="648" y="570" on="0"/>
        <pt x="648" y="489" on="1"/>
        <pt x="648" y="356" on="0"/>
        <pt x="508" y="276" on="1"/>
        <pt x="553" y="172" on="1"/>
        <pt x="592" y="84" on="0"/>
        <pt x="635" y="84" on="1"/>
        <pt x="644" y="68" on="1"/>
        <pt x="626" y="-5" on="1"/>
        <pt x="471" y="-16" on="1"/>
        <pt x="429" y="-16" on="0"/>
        <pt x="384" y="25" on="0"/>
        <pt x="371" y="75" on="1"/>
        <pt x="332" y="228" on="1"/>
      </contour>
      <contour>
        <pt x="439" y="458" on="1"/>
        <pt x="439" y="528" on="0"/>
        <pt x="342" y="528" on="1"/>
        <pt x="332" y="528" on="0"/>
        <pt x="325" y="520" on="0"/>
        <pt x="304" y="404" on="0"/>
        <pt x="297" y="354" on="1"/>
        <pt x="369" y="344" on="1"/>
        <pt x="439" y="371" on="0"/>
      </contour>
    </TTGlyph>
    <TTGlyph name="Racute" xMin="-19" yMin="-16" xMax="648" yMax="875">
      <contour>
        <pt x="279" y="228" on="1"/>
        <pt x="269" y="145" on="0"/>
        <pt x="269" y="109" on="0"/>
        <pt x="285" y="90" on="0"/>
        <pt x="331" y="88" on="1"/>
        <pt x="335" y="80" on="1"/>
        <pt x="315" y="-4" on="1"/>
        <pt x="194" y="0" on="0"/>
        <pt x="158" y="0" on="1"/>
        <pt x="78" y="0" on="0"/>
        <pt x="-19" y="-9" on="1"/>
        <pt x="1" y="83" on="1"/>
        <pt x="37" y="89" on="0"/>
        <pt x="69" y="125" on="0"/>
        <pt x="74" y="168" on="1"/>
        <pt x="118" y="525" on="0"/>
        <pt x="118" y="544" on="0"/>
        <pt x="112" y="559" on="0"/>
        <pt x="98" y="559" on="1"/>
        <pt x="63" y="557" on="1"/>
        <pt x="55" y="569" on="1"/>
        <pt x="75" y="648" on="1"/>
        <pt x="174" y="647" on="0"/>
        <pt x="214" y="647" on="1"/>
        <pt x="388" y="653" on="1"/>
        <pt x="514" y="653" on="0"/>
        <pt x="648" y="570" on="0"/>
        <pt x="648" y="489" on="1"/>
        <pt x="648" y="356" on="0"/>
        <pt x="508" y="276" on="1"/>
        <pt x="553" y="172" on="1"/>
        <pt x="592" y="84" on="0"/>
        <pt x="635" y="84" on="1"/>
        <pt x="644" y="68" on="1"/>
        <pt x="626" y="-5" on="1"/>
        <pt x="471" y="-16" on="1"/>
        <pt x="429" y="-16" on="0"/>
        <pt x="384" y="25" on="0"/>
        <pt x="371" y="75" on="1"/>
        <pt x="332" y="228" on="1"/>
      </contour>
      <contour>
        <pt x="439" y="458" on="1"/>
        <pt x="439" y="528" on="0"/>
        <pt x="342" y="528" on="1"/>
        <pt x="332" y="528" on="0"/>
        <pt x="325" y="520" on="0"/>
        <pt x="304" y="404" on="0"/>
        <pt x="297" y="354" on="1"/>
        <pt x="369" y="344" on="1"/>
        <pt x="439" y="371" on="0"/>
      </contour>
      <contour>
        <pt x="512" y="762" on="1"/>
        <pt x="505" y="746" on="1"/>
        <pt x="375" y="722" on="0"/>
        <pt x="251" y="691" on="1"/>
        <pt x="232" y="704" on="1"/>
        <pt x="211" y="775" on="1"/>
        <pt x="314" y="813" on="0"/>
        <pt x="460" y="875" on="1"/>
        <pt x="476" y="870" on="1"/>
      </contour>
    </TTGlyph>
    <TTGlyph name="Rcaron" xMin="-19" yMin="-16" xMax="648" yMax="895">
      <contour>
        <pt x="279" y="228" on="1"/>
        <pt x="269" y="145" on="0"/>
        <pt x="269" y="109" on="0"/>
        <pt x="285" y="90" on="0"/>
        <pt x="331" y="88" on="1"/>
        <pt x="335" y="80" on="1"/>
        <pt x="315" y="-4" on="1"/>
        <pt x="194" y="0" on="0"/>
        <pt x="158" y="0" on="1"/>
        <pt x="78" y="0" on="0"/>
        <pt x="-19" y="-9" on="1"/>
        <pt x="1" y="83" on="1"/>
        <pt x="37" y="89" on="0"/>
        <pt x="69" y="125" on="0"/>
        <pt x="74" y="168" on="1"/>
        <pt x="118" y="525" on="0"/>
        <pt x="118" y="544" on="0"/>
        <pt x="112" y="559" on="0"/>
        <pt x="98" y="559" on="1"/>
        <pt x="63" y="557" on="1"/>
        <pt x="55" y="569" on="1"/>
        <pt x="75" y="648" on="1"/>
        <pt x="174" y="647" on="0"/>
        <pt x="214" y="647" on="1"/>
        <pt x="388" y="653" on="1"/>
        <pt x="514" y="653" on="0"/>
        <pt x="648" y="570" on="0"/>
        <pt x="648" y="489" on="1"/>
        <pt x="648" y="356" on="0"/>
        <pt x="508" y="276" on="1"/>
        <pt x="553" y="172" on="1"/>
        <pt x="592" y="84" on="0"/>
        <pt x="635" y="84" on="1"/>
        <pt x="644" y="68" on="1"/>
        <pt x="626" y="-5" on="1"/>
        <pt x="471" y="-16" on="1"/>
        <pt x="429" y="-16" on="0"/>
        <pt x="384" y="25" on="0"/>
        <pt x="371" y="75" on="1"/>
        <pt x="332" y="228" on="1"/>
      </contour>
      <contour>
        <pt x="439" y="458" on="1"/>
        <pt x="439" y="528" on="0"/>
        <pt x="342" y="528" on="1"/>
        <pt x="332" y="528" on="0"/>
        <pt x="325" y="520" on="0"/>
        <pt x="304" y="404" on="0"/>
        <pt x="297" y="354" on="1"/>
        <pt x="369" y="344" on="1"/>
        <pt x="439" y="371" on="0"/>
      </contour>
      <contour>
        <pt x="555" y="888" on="1"/>
        <pt x="584" y="826" on="1"/>
        <pt x="495" y="766" on="0"/>
        <pt x="393" y="688" on="1"/>
        <pt x="366" y="688" on="1"/>
        <pt x="285" y="765" on="0"/>
        <pt x="211" y="826" on="1"/>
        <pt x="253" y="888" on="1"/>
        <pt x="277" y="895" on="1"/>
        <pt x="300" y="884" on="0"/>
        <pt x="399" y="844" on="1"/>
        <pt x="449" y="862" on="0"/>
        <pt x="533" y="895" on="1"/>
      </contour>
    </TTGlyph>
    <TTGlyph name="Rcommaaccent" xMin="-19" yMin="-345" xMax="648" yMax="653">
      <contour>
        <pt x="279" y="228" on="1"/>
        <pt x="269" y="145" on="0"/>
        <pt x="269" y="109" on="0"/>
        <pt x="285" y="90" on="0"/>
        <pt x="331" y="88" on="1"/>
        <pt x="335" y="80" on="1"/>
        <pt x="315" y="-4" on="1"/>
        <pt x="194" y="0" on="0"/>
        <pt x="158" y="0" on="1"/>
        <pt x="78" y="0" on="0"/>
        <pt x="-19" y="-9" on="1"/>
        <pt x="1" y="83" on="1"/>
        <pt x="37" y="89" on="0"/>
        <pt x="69" y="125" on="0"/>
        <pt x="74" y="168" on="1"/>
        <pt x="118" y="525" on="0"/>
        <pt x="118" y="544" on="0"/>
        <pt x="112" y="559" on="0"/>
        <pt x="98" y="559" on="1"/>
        <pt x="63" y="557" on="1"/>
        <pt x="55" y="569" on="1"/>
        <pt x="75" y="648" on="1"/>
        <pt x="174" y="647" on="0"/>
        <pt x="214" y="647" on="1"/>
        <pt x="388" y="653" on="1"/>
        <pt x="514" y="653" on="0"/>
        <pt x="648" y="570" on="0"/>
        <pt x="648" y="489" on="1"/>
        <pt x="648" y="356" on="0"/>
        <pt x="508" y="276" on="1"/>
        <pt x="553" y="172" on="1"/>
        <pt x="592" y="84" on="0"/>
        <pt x="635" y="84" on="1"/>
        <pt x="644" y="68" on="1"/>
        <pt x="626" y="-5" on="1"/>
        <pt x="471" y="-16" on="1"/>
        <pt x="429" y="-16" on="0"/>
        <pt x="384" y="25" on="0"/>
        <pt x="371" y="75" on="1"/>
        <pt x="332" y="228" on="1"/>
      </contour>
      <contour>
        <pt x="439" y="458" on="1"/>
        <pt x="439" y="528" on="0"/>
        <pt x="342" y="528" on="1"/>
        <pt x="332" y="528" on="0"/>
        <pt x="325" y="520" on="0"/>
        <pt x="304" y="404" on="0"/>
        <pt x="297" y="354" on="1"/>
        <pt x="369" y="344" on="1"/>
        <pt x="439" y="371" on="0"/>
      </contour>
      <contour>
        <pt x="196" y="-78" on="1"/>
        <pt x="253" y="-34" on="0"/>
        <pt x="336" y="-34" on="0"/>
        <pt x="383" y="-89" on="0"/>
        <pt x="383" y="-188" on="0"/>
        <pt x="293" y="-301" on="0"/>
        <pt x="216" y="-345" on="1"/>
        <pt x="158" y="-299" on="1"/>
        <pt x="158" y="-274" on="1"/>
        <pt x="187" y="-253" on="0"/>
        <pt x="222" y="-195" on="0"/>
        <pt x="222" y="-124" on="0"/>
        <pt x="193" y="-92" on="1"/>
      </contour>
    </TTGlyph>
    <TTGlyph name="S" xMin="-13" yMin="-12" xMax="563" yMax="659">
      <contour>
        <pt x="195" y="-12" on="1"/>
        <pt x="144" y="-12" on="0"/>
        <pt x="45" y="9" on="0"/>
        <pt x="21" y="20" on="1"/>
        <pt x="-3" y="31" on="1"/>
        <pt x="-13" y="49" on="1"/>
        <pt x="18" y="148" on="0"/>
        <pt x="29" y="214" on="1"/>
        <pt x="156" y="223" on="1"/>
        <pt x="155" y="213" on="0"/>
        <pt x="155" y="203" on="1"/>
        <pt x="155" y="169" on="0"/>
        <pt x="187" y="121" on="0"/>
        <pt x="256" y="121" on="0"/>
        <pt x="292" y="146" on="0"/>
        <pt x="292" y="182" on="0"/>
        <pt x="278" y="196" on="1"/>
        <pt x="258" y="216" on="0"/>
        <pt x="198" y="243" on="1"/>
        <pt x="79" y="296" on="0"/>
        <pt x="52" y="360" on="1"/>
        <pt x="39" y="389" on="0"/>
        <pt x="39" y="425" on="1"/>
        <pt x="39" y="531" on="0"/>
        <pt x="215" y="659" on="0"/>
        <pt x="360" y="659" on="1"/>
        <pt x="455" y="659" on="0"/>
        <pt x="528" y="638" on="1"/>
        <pt x="553" y="631" on="1"/>
        <pt x="563" y="609" on="1"/>
        <pt x="534" y="525" on="0"/>
        <pt x="516" y="435" on="1"/>
        <pt x="398" y="427" on="1"/>
        <pt x="387" y="435" on="1"/>
        <pt x="390" y="458" on="0"/>
        <pt x="390" y="463" on="1"/>
        <pt x="390" y="521" on="0"/>
        <pt x="328" y="521" on="1"/>
        <pt x="300" y="521" on="0"/>
        <pt x="265" y="493" on="0"/>
        <pt x="265" y="453" on="0"/>
        <pt x="299" y="424" on="0"/>
        <pt x="336" y="405" on="0"/>
        <pt x="395" y="378" on="0"/>
        <pt x="412" y="368" on="0"/>
        <pt x="461" y="340" on="0"/>
        <pt x="480" y="317" on="0"/>
        <pt x="494" y="300" on="1"/>
        <pt x="519" y="268" on="0"/>
        <pt x="519" y="216" on="1"/>
        <pt x="519" y="110" on="0"/>
        <pt x="346" y="-12" on="0"/>
      </contour>
    </TTGlyph>
    <TTGlyph name="Sacute" xMin="-13" yMin="-12" xMax="563" yMax="875">
      <contour>
        <pt x="195" y="-12" on="1"/>
        <pt x="144" y="-12" on="0"/>
        <pt x="45" y="9" on="0"/>
        <pt x="21" y="20" on="1"/>
        <pt x="-3" y="31" on="1"/>
        <pt x="-13" y="49" on="1"/>
        <pt x="18" y="148" on="0"/>
        <pt x="29" y="214" on="1"/>
        <pt x="156" y="223" on="1"/>
        <pt x="155" y="213" on="0"/>
        <pt x="155" y="203" on="1"/>
        <pt x="155" y="169" on="0"/>
        <pt x="187" y="121" on="0"/>
        <pt x="256" y="121" on="0"/>
        <pt x="292" y="146" on="0"/>
        <pt x="292" y="182" on="0"/>
        <pt x="278" y="196" on="1"/>
        <pt x="258" y="216" on="0"/>
        <pt x="198" y="243" on="1"/>
        <pt x="79" y="296" on="0"/>
        <pt x="52" y="360" on="1"/>
        <pt x="39" y="389" on="0"/>
        <pt x="39" y="425" on="1"/>
        <pt x="39" y="531" on="0"/>
        <pt x="215" y="659" on="0"/>
        <pt x="360" y="659" on="1"/>
        <pt x="455" y="659" on="0"/>
        <pt x="528" y="638" on="1"/>
        <pt x="553" y="631" on="1"/>
        <pt x="563" y="609" on="1"/>
        <pt x="534" y="525" on="0"/>
        <pt x="516" y="435" on="1"/>
        <pt x="398" y="427" on="1"/>
        <pt x="387" y="435" on="1"/>
        <pt x="390" y="458" on="0"/>
        <pt x="390" y="463" on="1"/>
        <pt x="390" y="521" on="0"/>
        <pt x="328" y="521" on="1"/>
        <pt x="300" y="521" on="0"/>
        <pt x="265" y="493" on="0"/>
        <pt x="265" y="453" on="0"/>
        <pt x="299" y="424" on="0"/>
        <pt x="336" y="405" on="0"/>
        <pt x="395" y="378" on="0"/>
        <pt x="412" y="368" on="0"/>
        <pt x="461" y="340" on="0"/>
        <pt x="480" y="317" on="0"/>
        <pt x="494" y="300" on="1"/>
        <pt x="519" y="268" on="0"/>
        <pt x="519" y="216" on="1"/>
        <pt x="519" y="110" on="0"/>
        <pt x="346" y="-12" on="0"/>
      </contour>
      <contour>
        <pt x="487" y="762" on="1"/>
        <pt x="480" y="746" on="1"/>
        <pt x="350" y="722" on="0"/>
        <pt x="226" y="691" on="1"/>
        <pt x="207" y="704" on="1"/>
        <pt x="186" y="775" on="1"/>
        <pt x="289" y="813" on="0"/>
        <pt x="435" y="875" on="1"/>
        <pt x="451" y="870" on="1"/>
      </contour>
    </TTGlyph>
    <TTGlyph name="Scaron" xMin="-13" yMin="-12" xMax="563" yMax="895">
      <contour>
        <pt x="195" y="-12" on="1"/>
        <pt x="144" y="-12" on="0"/>
        <pt x="45" y="9" on="0"/>
        <pt x="21" y="20" on="1"/>
        <pt x="-3" y="31" on="1"/>
        <pt x="-13" y="49" on="1"/>
        <pt x="18" y="148" on="0"/>
        <pt x="29" y="214" on="1"/>
        <pt x="156" y="223" on="1"/>
        <pt x="155" y="213" on="0"/>
        <pt x="155" y="203" on="1"/>
        <pt x="155" y="169" on="0"/>
        <pt x="187" y="121" on="0"/>
        <pt x="256" y="121" on="0"/>
        <pt x="292" y="146" on="0"/>
        <pt x="292" y="182" on="0"/>
        <pt x="278" y="196" on="1"/>
        <pt x="258" y="216" on="0"/>
        <pt x="198" y="243" on="1"/>
        <pt x="79" y="296" on="0"/>
        <pt x="52" y="360" on="1"/>
        <pt x="39" y="389" on="0"/>
        <pt x="39" y="425" on="1"/>
        <pt x="39" y="531" on="0"/>
        <pt x="215" y="659" on="0"/>
        <pt x="360" y="659" on="1"/>
        <pt x="455" y="659" on="0"/>
        <pt x="528" y="638" on="1"/>
        <pt x="553" y="631" on="1"/>
        <pt x="563" y="609" on="1"/>
        <pt x="534" y="525" on="0"/>
        <pt x="516" y="435" on="1"/>
        <pt x="398" y="427" on="1"/>
        <pt x="387" y="435" on="1"/>
        <pt x="390" y="458" on="0"/>
        <pt x="390" y="463" on="1"/>
        <pt x="390" y="521" on="0"/>
        <pt x="328" y="521" on="1"/>
        <pt x="300" y="521" on="0"/>
        <pt x="265" y="493" on="0"/>
        <pt x="265" y="453" on="0"/>
        <pt x="299" y="424" on="0"/>
        <pt x="336" y="405" on="0"/>
        <pt x="395" y="378" on="0"/>
        <pt x="412" y="368" on="0"/>
        <pt x="461" y="340" on="0"/>
        <pt x="480" y="317" on="0"/>
        <pt x="494" y="300" on="1"/>
        <pt x="519" y="268" on="0"/>
        <pt x="519" y="216" on="1"/>
        <pt x="519" y="110" on="0"/>
        <pt x="346" y="-12" on="0"/>
      </contour>
      <contour>
        <pt x="520" y="888" on="1"/>
        <pt x="549" y="826" on="1"/>
        <pt x="460" y="766" on="0"/>
        <pt x="358" y="688" on="1"/>
        <pt x="331" y="688" on="1"/>
        <pt x="250" y="765" on="0"/>
        <pt x="176" y="826" on="1"/>
        <pt x="218" y="888" on="1"/>
        <pt x="242" y="895" on="1"/>
        <pt x="265" y="884" on="0"/>
        <pt x="364" y="844" on="1"/>
        <pt x="414" y="862" on="0"/>
        <pt x="498" y="895" on="1"/>
      </contour>
    </TTGlyph>
    <TTGlyph name="Scedilla" xMin="-13" yMin="-243" xMax="563" yMax="659">
      <contour>
        <pt x="161" y="-126" on="1"/>
        <pt x="161" y="-174" on="0"/>
        <pt x="201" y="-174" on="1"/>
        <pt x="232" y="-174" on="0"/>
        <pt x="232" y="-127" on="0"/>
        <pt x="155" y="-87" on="1"/>
        <pt x="182" y="-12" on="1"/>
        <pt x="134" y="-11" on="0"/>
        <pt x="42" y="11" on="0"/>
        <pt x="-3" y="31" on="1"/>
        <pt x="-13" y="49" on="1"/>
        <pt x="18" y="148" on="0"/>
        <pt x="29" y="214" on="1"/>
        <pt x="156" y="223" on="1"/>
        <pt x="155" y="213" on="0"/>
        <pt x="155" y="203" on="1"/>
        <pt x="155" y="169" on="0"/>
        <pt x="187" y="121" on="0"/>
        <pt x="256" y="121" on="0"/>
        <pt x="292" y="146" on="0"/>
        <pt x="292" y="182" on="0"/>
        <pt x="278" y="196" on="1"/>
        <pt x="258" y="216" on="0"/>
        <pt x="198" y="243" on="1"/>
        <pt x="79" y="296" on="0"/>
        <pt x="52" y="360" on="1"/>
        <pt x="39" y="389" on="0"/>
        <pt x="39" y="425" on="1"/>
        <pt x="39" y="531" on="0"/>
        <pt x="215" y="659" on="0"/>
        <pt x="360" y="659" on="1"/>
        <pt x="455" y="659" on="0"/>
        <pt x="528" y="638" on="1"/>
        <pt x="553" y="631" on="1"/>
        <pt x="563" y="609" on="1"/>
        <pt x="534" y="525" on="0"/>
        <pt x="516" y="435" on="1"/>
        <pt x="398" y="427" on="1"/>
        <pt x="387" y="435" on="1"/>
        <pt x="390" y="458" on="0"/>
        <pt x="390" y="463" on="1"/>
        <pt x="390" y="521" on="0"/>
        <pt x="328" y="521" on="1"/>
        <pt x="300" y="521" on="0"/>
        <pt x="265" y="493" on="0"/>
        <pt x="265" y="453" on="0"/>
        <pt x="299" y="424" on="0"/>
        <pt x="336" y="405" on="0"/>
        <pt x="395" y="378" on="0"/>
        <pt x="412" y="368" on="0"/>
        <pt x="461" y="340" on="0"/>
        <pt x="480" y="317" on="0"/>
        <pt x="494" y="300" on="1"/>
        <pt x="519" y="268" on="0"/>
        <pt x="519" y="216" on="1"/>
        <pt x="519" y="120" on="0"/>
        <pt x="375" y="1" on="0"/>
        <pt x="247" y="-10" on="1"/>
        <pt x="239" y="-37" on="1"/>
        <pt x="276" y="-56" on="0"/>
        <pt x="335" y="-109" on="0"/>
        <pt x="335" y="-138" on="1"/>
        <pt x="335" y="-181" on="0"/>
        <pt x="240" y="-243" on="0"/>
        <pt x="174" y="-243" on="1"/>
        <pt x="144" y="-243" on="0"/>
        <pt x="92" y="-215" on="0"/>
        <pt x="92" y="-171" on="0"/>
        <pt x="153" y="-118" on="1"/>
        <pt x="161" y="-118" on="1"/>
        <pt x="161" y="-122" on="0"/>
      </contour>
    </TTGlyph>
    <TTGlyph name="Scircumflex" xMin="-13" yMin="-12" xMax="563" yMax="934">
      <contour>
        <pt x="195" y="-12" on="1"/>
        <pt x="144" y="-12" on="0"/>
        <pt x="45" y="9" on="0"/>
        <pt x="21" y="20" on="1"/>
        <pt x="-3" y="31" on="1"/>
        <pt x="-13" y="49" on="1"/>
        <pt x="18" y="148" on="0"/>
        <pt x="29" y="214" on="1"/>
        <pt x="156" y="223" on="1"/>
        <pt x="155" y="213" on="0"/>
        <pt x="155" y="203" on="1"/>
        <pt x="155" y="169" on="0"/>
        <pt x="187" y="121" on="0"/>
        <pt x="256" y="121" on="0"/>
        <pt x="292" y="146" on="0"/>
        <pt x="292" y="182" on="0"/>
        <pt x="278" y="196" on="1"/>
        <pt x="258" y="216" on="0"/>
        <pt x="198" y="243" on="1"/>
        <pt x="79" y="296" on="0"/>
        <pt x="52" y="360" on="1"/>
        <pt x="39" y="389" on="0"/>
        <pt x="39" y="425" on="1"/>
        <pt x="39" y="531" on="0"/>
        <pt x="215" y="659" on="0"/>
        <pt x="360" y="659" on="1"/>
        <pt x="455" y="659" on="0"/>
        <pt x="528" y="638" on="1"/>
        <pt x="553" y="631" on="1"/>
        <pt x="563" y="609" on="1"/>
        <pt x="534" y="525" on="0"/>
        <pt x="516" y="435" on="1"/>
        <pt x="398" y="427" on="1"/>
        <pt x="387" y="435" on="1"/>
        <pt x="390" y="458" on="0"/>
        <pt x="390" y="463" on="1"/>
        <pt x="390" y="521" on="0"/>
        <pt x="328" y="521" on="1"/>
        <pt x="300" y="521" on="0"/>
        <pt x="265" y="493" on="0"/>
        <pt x="265" y="453" on="0"/>
        <pt x="299" y="424" on="0"/>
        <pt x="336" y="405" on="0"/>
        <pt x="395" y="378" on="0"/>
        <pt x="412" y="368" on="0"/>
        <pt x="461" y="340" on="0"/>
        <pt x="480" y="317" on="0"/>
        <pt x="494" y="300" on="1"/>
        <pt x="519" y="268" on="0"/>
        <pt x="519" y="216" on="1"/>
        <pt x="519" y="110" on="0"/>
        <pt x="346" y="-12" on="0"/>
      </contour>
      <contour>
        <pt x="203" y="716" on="1"/>
        <pt x="165" y="778" on="1"/>
        <pt x="241" y="840" on="0"/>
        <pt x="347" y="934" on="1"/>
        <pt x="374" y="934" on="1"/>
        <pt x="450" y="847" on="0"/>
        <pt x="518" y="778" on="1"/>
        <pt x="465" y="716" on="1"/>
        <pt x="441" y="709" on="1"/>
        <pt x="414" y="730" on="0"/>
        <pt x="341" y="778" on="1"/>
        <pt x="269" y="738" on="0"/>
        <pt x="226" y="709" on="1"/>
      </contour>
    </TTGlyph>
    <TTGlyph name="Scommaaccent" xMin="-13" yMin="-345" xMax="563" yMax="659">
      <contour>
        <pt x="195" y="-12" on="1"/>
        <pt x="144" y="-12" on="0"/>
        <pt x="45" y="9" on="0"/>
        <pt x="21" y="20" on="1"/>
        <pt x="-3" y="31" on="1"/>
        <pt x="-13" y="49" on="1"/>
        <pt x="18" y="148" on="0"/>
        <pt x="29" y="214" on="1"/>
        <pt x="156" y="223" on="1"/>
        <pt x="155" y="213" on="0"/>
        <pt x="155" y="203" on="1"/>
        <pt x="155" y="169" on="0"/>
        <pt x="187" y="121" on="0"/>
        <pt x="256" y="121" on="0"/>
        <pt x="292" y="146" on="0"/>
        <pt x="292" y="182" on="0"/>
        <pt x="278" y="196" on="1"/>
        <pt x="258" y="216" on="0"/>
        <pt x="198" y="243" on="1"/>
        <pt x="79" y="296" on="0"/>
        <pt x="52" y="360" on="1"/>
        <pt x="39" y="389" on="0"/>
        <pt x="39" y="425" on="1"/>
        <pt x="39" y="531" on="0"/>
        <pt x="215" y="659" on="0"/>
        <pt x="360" y="659" on="1"/>
        <pt x="455" y="659" on="0"/>
        <pt x="528" y="638" on="1"/>
        <pt x="553" y="631" on="1"/>
        <pt x="563" y="609" on="1"/>
        <pt x="534" y="525" on="0"/>
        <pt x="516" y="435" on="1"/>
        <pt x="398" y="427" on="1"/>
        <pt x="387" y="435" on="1"/>
        <pt x="390" y="458" on="0"/>
        <pt x="390" y="463" on="1"/>
        <pt x="390" y="521" on="0"/>
        <pt x="328" y="521" on="1"/>
        <pt x="300" y="521" on="0"/>
        <pt x="265" y="493" on="0"/>
        <pt x="265" y="453" on="0"/>
        <pt x="299" y="424" on="0"/>
        <pt x="336" y="405" on="0"/>
        <pt x="395" y="378" on="0"/>
        <pt x="412" y="368" on="0"/>
        <pt x="461" y="340" on="0"/>
        <pt x="480" y="317" on="0"/>
        <pt x="494" y="300" on="1"/>
        <pt x="519" y="268" on="0"/>
        <pt x="519" y="216" on="1"/>
        <pt x="519" y="110" on="0"/>
        <pt x="346" y="-12" on="0"/>
      </contour>
      <contour>
        <pt x="111" y="-78" on="1"/>
        <pt x="168" y="-34" on="0"/>
        <pt x="251" y="-34" on="0"/>
        <pt x="298" y="-89" on="0"/>
        <pt x="298" y="-188" on="0"/>
        <pt x="208" y="-301" on="0"/>
        <pt x="131" y="-345" on="1"/>
        <pt x="73" y="-299" on="1"/>
        <pt x="73" y="-274" on="1"/>
        <pt x="102" y="-253" on="0"/>
        <pt x="137" y="-195" on="0"/>
        <pt x="137" y="-124" on="0"/>
        <pt x="108" y="-92" on="1"/>
      </contour>
    </TTGlyph>
    <TTGlyph name="T" xMin="17" yMin="-9" xMax="624" yMax="658">
      <contour>
        <pt x="472" y="382" on="1"/>
        <pt x="474" y="422" on="0"/>
        <pt x="474" y="488" on="0"/>
        <pt x="470" y="502" on="1"/>
        <pt x="463" y="526" on="0"/>
        <pt x="428" y="526" on="1"/>
        <pt x="377" y="189" on="0"/>
        <pt x="377" y="114" on="0"/>
        <pt x="397" y="91" on="0"/>
        <pt x="420" y="91" on="1"/>
        <pt x="470" y="94" on="1"/>
        <pt x="474" y="88" on="1"/>
        <pt x="454" y="-6" on="1"/>
        <pt x="311" y="0" on="0"/>
        <pt x="255" y="0" on="1"/>
        <pt x="55" y="-9" on="1"/>
        <pt x="74" y="83" on="1"/>
        <pt x="134" y="88" on="0"/>
        <pt x="175" y="121" on="0"/>
        <pt x="181" y="168" on="1"/>
        <pt x="225" y="526" on="1"/>
        <pt x="189" y="526" on="0"/>
        <pt x="160" y="476" on="0"/>
        <pt x="143" y="390" on="1"/>
        <pt x="17" y="382" on="1"/>
        <pt x="42" y="530" on="0"/>
        <pt x="57" y="644" on="1"/>
        <pt x="72" y="658" on="1"/>
        <pt x="187" y="647" on="1"/>
        <pt x="492" y="647" on="1"/>
        <pt x="613" y="658" on="1"/>
        <pt x="624" y="644" on="1"/>
        <pt x="597" y="390" on="1"/>
      </contour>
    </TTGlyph>
    <TTGlyph name="Tbar" xMin="17" yMin="-9" xMax="624" yMax="658">
      <contour>
        <pt x="472" y="382" on="1"/>
        <pt x="474" y="422" on="0"/>
        <pt x="474" y="488" on="0"/>
        <pt x="470" y="502" on="1"/>
        <pt x="463" y="526" on="0"/>
        <pt x="428" y="526" on="1"/>
        <pt x="413" y="433" on="0"/>
        <pt x="396" y="310" on="1"/>
        <pt x="469" y="312" on="1"/>
        <pt x="484" y="297" on="1"/>
        <pt x="479" y="242" on="1"/>
        <pt x="387" y="242" on="1"/>
        <pt x="377" y="159" on="0"/>
        <pt x="377" y="136" on="1"/>
        <pt x="377" y="91" on="0"/>
        <pt x="420" y="91" on="1"/>
        <pt x="470" y="94" on="1"/>
        <pt x="474" y="88" on="1"/>
        <pt x="454" y="-6" on="1"/>
        <pt x="311" y="0" on="0"/>
        <pt x="255" y="0" on="1"/>
        <pt x="55" y="-9" on="1"/>
        <pt x="74" y="83" on="1"/>
        <pt x="134" y="88" on="0"/>
        <pt x="175" y="121" on="0"/>
        <pt x="181" y="168" on="1"/>
        <pt x="190" y="241" on="1"/>
        <pt x="112" y="241" on="1"/>
        <pt x="101" y="251" on="1"/>
        <pt x="109" y="309" on="1"/>
        <pt x="198" y="308" on="1"/>
        <pt x="225" y="526" on="1"/>
        <pt x="189" y="526" on="0"/>
        <pt x="160" y="476" on="0"/>
        <pt x="143" y="390" on="1"/>
        <pt x="17" y="382" on="1"/>
        <pt x="42" y="530" on="0"/>
        <pt x="57" y="644" on="1"/>
        <pt x="72" y="658" on="1"/>
        <pt x="187" y="647" on="1"/>
        <pt x="492" y="647" on="1"/>
        <pt x="613" y="658" on="1"/>
        <pt x="624" y="644" on="1"/>
        <pt x="597" y="390" on="1"/>
      </contour>
    </TTGlyph>
    <TTGlyph name="Tcaron" xMin="17" yMin="-9" xMax="624" yMax="895">
      <contour>
        <pt x="472" y="382" on="1"/>
        <pt x="474" y="422" on="0"/>
        <pt x="474" y="488" on="0"/>
        <pt x="470" y="502" on="1"/>
        <pt x="463" y="526" on="0"/>
        <pt x="428" y="526" on="1"/>
        <pt x="377" y="189" on="0"/>
        <pt x="377" y="114" on="0"/>
        <pt x="397" y="91" on="0"/>
        <pt x="420" y="91" on="1"/>
        <pt x="470" y="94" on="1"/>
        <pt x="474" y="88" on="1"/>
        <pt x="454" y="-6" on="1"/>
        <pt x="311" y="0" on="0"/>
        <pt x="255" y="0" on="1"/>
        <pt x="55" y="-9" on="1"/>
        <pt x="74" y="83" on="1"/>
        <pt x="134" y="88" on="0"/>
        <pt x="175" y="121" on="0"/>
        <pt x="181" y="168" on="1"/>
        <pt x="225" y="526" on="1"/>
        <pt x="189" y="526" on="0"/>
        <pt x="160" y="476" on="0"/>
        <pt x="143" y="390" on="1"/>
        <pt x="17" y="382" on="1"/>
        <pt x="42" y="530" on="0"/>
        <pt x="57" y="644" on="1"/>
        <pt x="72" y="658" on="1"/>
        <pt x="187" y="647" on="1"/>
        <pt x="492" y="647" on="1"/>
        <pt x="613" y="658" on="1"/>
        <pt x="624" y="644" on="1"/>
        <pt x="597" y="390" on="1"/>
      </contour>
      <contour>
        <pt x="523" y="888" on="1"/>
        <pt x="552" y="826" on="1"/>
        <pt x="463" y="766" on="0"/>
        <pt x="361" y="688" on="1"/>
        <pt x="334" y="688" on="1"/>
        <pt x="253" y="765" on="0"/>
        <pt x="179" y="826" on="1"/>
        <pt x="221" y="888" on="1"/>
        <pt x="245" y="895" on="1"/>
        <pt x="268" y="884" on="0"/>
        <pt x="367" y="844" on="1"/>
        <pt x="417" y="862" on="0"/>
        <pt x="501" y="895" on="1"/>
      </contour>
    </TTGlyph>
    <TTGlyph name="Tcedilla" xMin="17" yMin="-243" xMax="624" yMax="658">
      <contour>
        <pt x="200" y="-126" on="1"/>
        <pt x="200" y="-174" on="0"/>
        <pt x="240" y="-174" on="1"/>
        <pt x="271" y="-174" on="0"/>
        <pt x="271" y="-127" on="0"/>
        <pt x="194" y="-87" on="1"/>
        <pt x="225" y="0" on="1"/>
        <pt x="55" y="-9" on="1"/>
        <pt x="74" y="83" on="1"/>
        <pt x="134" y="88" on="0"/>
        <pt x="175" y="121" on="0"/>
        <pt x="181" y="168" on="1"/>
        <pt x="225" y="526" on="1"/>
        <pt x="189" y="526" on="0"/>
        <pt x="160" y="476" on="0"/>
        <pt x="143" y="390" on="1"/>
        <pt x="17" y="382" on="1"/>
        <pt x="42" y="530" on="0"/>
        <pt x="57" y="644" on="1"/>
        <pt x="72" y="658" on="1"/>
        <pt x="187" y="647" on="1"/>
        <pt x="492" y="647" on="1"/>
        <pt x="613" y="658" on="1"/>
        <pt x="624" y="644" on="1"/>
        <pt x="597" y="390" on="1"/>
        <pt x="472" y="382" on="1"/>
        <pt x="474" y="422" on="0"/>
        <pt x="474" y="488" on="0"/>
        <pt x="470" y="502" on="1"/>
        <pt x="463" y="526" on="0"/>
        <pt x="428" y="526" on="1"/>
        <pt x="377" y="189" on="0"/>
        <pt x="377" y="114" on="0"/>
        <pt x="397" y="91" on="0"/>
        <pt x="420" y="91" on="1"/>
        <pt x="470" y="94" on="1"/>
        <pt x="474" y="88" on="1"/>
        <pt x="454" y="-6" on="1"/>
        <pt x="355" y="-2" on="0"/>
        <pt x="289" y="0" on="1"/>
        <pt x="278" y="-37" on="1"/>
        <pt x="315" y="-56" on="0"/>
        <pt x="374" y="-109" on="0"/>
        <pt x="374" y="-138" on="1"/>
        <pt x="374" y="-181" on="0"/>
        <pt x="279" y="-243" on="0"/>
        <pt x="213" y="-243" on="1"/>
        <pt x="183" y="-243" on="0"/>
        <pt x="131" y="-215" on="0"/>
        <pt x="131" y="-171" on="0"/>
        <pt x="192" y="-118" on="1"/>
        <pt x="200" y="-118" on="1"/>
        <pt x="200" y="-122" on="0"/>
      </contour>
    </TTGlyph>
</ttFont>
